<svg xmlns="http://www.w3.org/2000/svg" width="17.85" height="8.322" viewBox="0 0 17.85 8.322"><defs><style>.a{fill:#f5532f;}</style></defs><g transform="translate(-41 -982.902)"><g transform="translate(41 861.275)"><g transform="translate(12.763 122.626)"><g transform="matrix(0.966, 0.259, -0.259, 0.966, 0.356, 0.799)"><path class="a" d="M339.023,152.855a.523.523,0,0,0-.714.191l-.84,1.455a.523.523,0,1,0,.906.523l.84-1.455A.523.523,0,0,0,339.023,152.855Z" transform="translate(-337.398 -152.785)"/></g></g><g transform="translate(8.402 121.627)"><path class="a" d="M241.522,120.5a.523.523,0,0,0-.523.523v1.68a.523.523,0,0,0,1.046,0v-1.68A.523.523,0,0,0,241.522,120.5Z" transform="translate(-240.999 -120.501)"/></g><g transform="matrix(0.966, -0.259, 0.259, 0.966, 2.909, 123.913)"><path class="a" d="M122.313,154.5l-.84-1.455a.523.523,0,1,0-.906.523l.84,1.455a.523.523,0,1,0,.906-.523Z" transform="translate(-120.496 -152.785)"/></g><g transform="translate(0 125.542)"><path class="a" d="M17.327,268.461H12.773a3.884,3.884,0,0,0-7.7,0H.523a.523.523,0,1,0,0,1.046h16.8a.523.523,0,1,0,0-1.046Z" transform="translate(0 -265.1)"/></g></g></g></svg>