<svg xmlns="http://www.w3.org/2000/svg" width="11.739" height="13.098" viewBox="0 0 11.739 13.098"><defs><style>.a{fill:#f5532f;}</style></defs><g transform="translate(-30.048 4.953) rotate(-7)"><g transform="translate(30.274 0)"><path class="a" d="M40.6,10.536a.2.2,0,0,0-.139-.078h-.026a5.858,5.858,0,0,1-6.088-5.6,5.475,5.475,0,0,1,2.5-4.536.169.169,0,0,0,.053-.247A.2.2,0,0,0,36.744,0h0a6.232,6.232,0,0,0-6.471,5.961,6.231,6.231,0,0,0,6.47,5.962,6.85,6.85,0,0,0,3.808-1.141A.169.169,0,0,0,40.6,10.536Z" transform="translate(-30.274 0)"/></g><g transform="translate(35.723 3.168)"><path class="a" d="M211.466,202.994a.188.188,0,0,0-.078-.039v0l-.507-.121-.272-.441a.187.187,0,0,0-.321,0l-.275.441-.5.121a.187.187,0,0,0-.107.306l.338.4-.04.52a.187.187,0,0,0,.264.187l.483-.2.473.194a.187.187,0,0,0,.264-.183l-.04-.52.338-.4A.187.187,0,0,0,211.466,202.994Z" transform="translate(-209.362 -202.299)"/></g><g transform="translate(37.776 5.653)"><path class="a" d="M297.283,153.707a.187.187,0,0,0-.078-.039l-.005,0-.4-.1-.21-.341a.187.187,0,0,0-.321,0l-.207.347-.383.094a.187.187,0,0,0-.108.3l.264.308-.03.4a.187.187,0,0,0,.264.187l.372-.153.362.148a.187.187,0,0,0,.264-.184l-.03-.4.264-.308A.187.187,0,0,0,297.283,153.707Z" transform="translate(-295.533 -153.139)"/></g></g></svg>