<svg xmlns="http://www.w3.org/2000/svg" width="13.075" height="13.075" viewBox="0 0 13.075 13.075"><defs><style>.a{fill:#f5532f;}</style></defs><path class="a" d="M14.544,11.269a3.275,3.275,0,1,0,3.275,3.275A3.279,3.279,0,0,0,14.544,11.269Z" transform="translate(-8.006 -8.006)"/><g transform="translate(5.899)"><path class="a" d="M21.012,2.3a.639.639,0,0,1-.639-.639V.639a.639.639,0,0,1,1.278,0V1.661A.639.639,0,0,1,21.012,2.3Z" transform="translate(-20.373)"/></g><g transform="translate(5.899 10.775)"><path class="a" d="M21.012,37.215a.639.639,0,0,0-.639.639v1.022a.639.639,0,1,0,1.278,0V37.854A.639.639,0,0,0,21.012,37.215Z" transform="translate(-20.373 -37.215)"/></g><g transform="translate(9.347 1.728)"><path class="a" d="M32.469,7.781a.639.639,0,0,1,0-.9l.723-.723a.639.639,0,0,1,.9.9l-.723.723A.639.639,0,0,1,32.469,7.781Z" transform="translate(-32.282 -5.967)"/></g><g transform="translate(1.728 9.347)"><path class="a" d="M7.781,32.47a.638.638,0,0,0-.9,0l-.723.723a.639.639,0,0,0,.9.9l.723-.723A.638.638,0,0,0,7.781,32.47Z" transform="translate(-5.967 -32.283)"/></g><g transform="translate(10.775 5.899)"><path class="a" d="M37.215,21.012a.639.639,0,0,1,.639-.639h1.022a.639.639,0,1,1,0,1.278H37.854A.639.639,0,0,1,37.215,21.012Z" transform="translate(-37.215 -20.373)"/></g><g transform="translate(0 5.899)"><path class="a" d="M2.3,21.012a.639.639,0,0,0-.639-.639H.639a.639.639,0,1,0,0,1.278H1.661A.639.639,0,0,0,2.3,21.012Z" transform="translate(0 -20.373)"/></g><g transform="translate(9.346 9.347)"><path class="a" d="M32.469,32.471a.639.639,0,0,1,.9,0l.723.723a.639.639,0,0,1-.9.9l-.723-.723A.639.639,0,0,1,32.469,32.471Z" transform="translate(-32.281 -32.284)"/></g><g transform="translate(1.727 1.728)"><path class="a" d="M7.78,7.781a.639.639,0,0,0,0-.9l-.723-.723a.639.639,0,1,0-.9.9l.723.723A.638.638,0,0,0,7.78,7.781Z" transform="translate(-5.966 -5.967)"/></g></svg>