<svg xmlns="http://www.w3.org/2000/svg" width="17.85" height="9.448" viewBox="0 0 17.85 9.448"><defs><style>.a{fill:#f5532f;}</style></defs><g transform="translate(0 -120.501)"><g transform="translate(14.223 124.702)"><path class="a" d="M410.4,241.257a.523.523,0,0,0-.714-.191l-1.455.84a.523.523,0,1,0,.523.906l1.455-.84A.523.523,0,0,0,410.4,241.257Z" transform="translate(-407.968 -240.995)"/></g><g transform="translate(11.763 121.627)"><path class="a" d="M339.023,152.855a.523.523,0,0,0-.714.191l-.84,1.455a.523.523,0,1,0,.906.523l.84-1.455A.523.523,0,0,0,339.023,152.855Z" transform="translate(-337.398 -152.785)"/></g><g transform="translate(8.402 120.501)"><path class="a" d="M241.522,120.5a.523.523,0,0,0-.523.523v1.68a.523.523,0,0,0,1.046,0v-1.68A.523.523,0,0,0,241.522,120.5Z" transform="translate(-240.999 -120.501)"/></g><g transform="translate(4.201 121.627)"><path class="a" d="M122.313,154.5l-.84-1.455a.523.523,0,1,0-.906.523l.84,1.455a.523.523,0,1,0,.906-.523Z" transform="translate(-120.496 -152.785)"/></g><g transform="translate(1.126 124.702)"><path class="a" d="M34.525,241.909l-1.455-.84a.523.523,0,1,0-.523.906l1.455.84a.523.523,0,1,0,.523-.906Z" transform="translate(-32.286 -240.999)"/></g><g transform="translate(0 125.542)"><path class="a" d="M17.327,268.461H12.773a3.884,3.884,0,0,0-7.7,0H.523a.523.523,0,1,0,0,1.046h16.8a.523.523,0,1,0,0-1.046Z" transform="translate(0 -265.1)"/></g></g></svg>