<svg xmlns="http://www.w3.org/2000/svg" width="21" height="23.035" viewBox="0 0 21 23.035"><defs><style>.a{fill:#2f61f5;}</style></defs><g transform="translate(-22.612)"><path class="a" d="M154.012,61.684a7.592,7.592,0,0,0-.71-3.295,7.286,7.286,0,0,0-1.873-2.409.337.337,0,0,0-.438.513,6.531,6.531,0,0,1,2.346,5.19c0,3.064-.4,4.319-3.069,6.732-.767.694-.678,2.274.271,4.831a.57.57,0,0,1-.391.751l-6.707,1.729a.571.571,0,0,1-.669-.336c-.4-.986-1.338-3.294-3.72-2.971l-.548.076a.337.337,0,1,0,.094.668l.545-.076c1.638-.222,2.412,1.1,3,2.556a1.249,1.249,0,0,0,1.154.775,1.233,1.233,0,0,0,.308-.039l6.707-1.729a1.245,1.245,0,0,0,.855-1.639c-.795-2.143-.959-3.636-.451-4.1C153.536,66.369,154.012,64.876,154.012,61.684Z" transform="translate(-110.4 -53.385)"/><path class="a" d="M26.571,19.286a2.307,2.307,0,0,1-.448-.012c-.8-.131-1.24-.463-1.383-1.044a1.084,1.084,0,0,1,.178-.892.667.667,0,0,0-.208-.852,1.846,1.846,0,0,0-.464-.223c-.005-.08.035-.188.2-.31a.337.337,0,0,0,.07-.479,3.677,3.677,0,0,0-.6-.574.185.185,0,0,1-.049-.05c.28-.2.813-.648.744-1.146-.029-.208-.172-.489-.688-.648-.565-.174-.643-.392-.644-.6s.127-.347.432-.582a5.252,5.252,0,0,0,1.462-1.619.95.95,0,0,0,.046-.835,3.335,3.335,0,0,0-.254-.453c-.14-.222-.286-.453-.252-.6a1.8,1.8,0,0,1,.126-.306,3.356,3.356,0,0,0,.371-1.313c.274-4.194,4.117-6.072,7.8-6.072a13,13,0,0,1,6.329,1.563.337.337,0,1,0,.338-.584A13.5,13.5,0,0,0,33.022,0a9.82,9.82,0,0,0-5.71,1.677A6.529,6.529,0,0,0,24.544,6.7a2.692,2.692,0,0,1-.308,1.069,2.246,2.246,0,0,0-.173.441A1.477,1.477,0,0,0,24.4,9.324a2.813,2.813,0,0,1,.2.359.271.271,0,0,1-.014.238,4.491,4.491,0,0,1-1.286,1.415,1.41,1.41,0,0,0-.695,1.118c0,.6.378,1.018,1.12,1.246a.552.552,0,0,1,.217.1,1.478,1.478,0,0,1-.542.547.337.337,0,0,0-.094.091.719.719,0,0,0,.189.985c.112.09.2.171.277.24a.907.907,0,0,0-.065,1.065.337.337,0,0,0,.208.14,1.335,1.335,0,0,1,.392.162,1.719,1.719,0,0,0-.231,1.358,2.1,2.1,0,0,0,1.93,1.548,2.345,2.345,0,0,0,.375.026c.066,0,.137,0,.213-.005a.337.337,0,1,0-.031-.674Z"/><path class="a" d="M248.616,266.292h0Z" transform="translate(-215.836 -254.311)"/><path class="a" d="M118.783,49.3a2.564,2.564,0,0,0-1.661-3.061,2.564,2.564,0,0,0-3.681-1.654,2.967,2.967,0,0,0-4.433-.611,2.34,2.34,0,0,0-3.243,1.235,2.7,2.7,0,0,0-2.161,1.993,2.669,2.669,0,0,0,.061,1.537,2.4,2.4,0,0,0,3.223,3.437.8.8,0,0,1,.386-.123v1.991a1.237,1.237,0,1,0,2.474.022v-.787s-.006,0,0,0,0,0,0,0a2.665,2.665,0,0,0,1.459.96,2.77,2.77,0,0,0,.673.079,1.239,1.239,0,0,0,.859,1.025,1.261,1.261,0,0,0,1.533-.767,3.035,3.035,0,0,0,.435.117,2.95,2.95,0,0,0,.552.052A2.982,2.982,0,0,0,118,50.588,2.565,2.565,0,0,0,118.783,49.3Zm-1.4.911a.337.337,0,0,0-.1.439,2.292,2.292,0,0,1,.185,1.79,2.327,2.327,0,0,1-2.632,1.59,2.362,2.362,0,0,1-.358-.1l1.848-5.924a1.237,1.237,0,0,0-2.362-.737l-.916,2.937a.337.337,0,0,0,.644.2l.916-2.937a.562.562,0,1,1,1.074.335l-2.034,6.522a.578.578,0,0,1-.7.369.562.562,0,0,1-.369-.7l.649-2.08a.337.337,0,0,0-.644-.2l-.6,1.925a1.891,1.891,0,0,1-1.71-.842.561.561,0,0,0-.3-.161,3.5,3.5,0,0,0,1.068-.763,3.452,3.452,0,0,0,.952-2.58,3.5,3.5,0,0,0-3.149-3.282.337.337,0,0,0-.063.672,2.82,2.82,0,0,1,2.538,2.645,2.784,2.784,0,0,1-.767,2.08,2.825,2.825,0,0,1-1.1.712.563.563,0,0,0-.374.53V54.07a.563.563,0,1,1-1.125-.022V51.73a.582.582,0,0,1,.17-.41.6.6,0,0,1,.392-.158,1.683,1.683,0,0,0,1.679-1.772,1.681,1.681,0,0,0-3.361.079.562.562,0,1,1-1.125.012,2.827,2.827,0,0,1,.027-.391,2.786,2.786,0,0,1,1.657-2.182.337.337,0,0,0-.27-.619A3.456,3.456,0,0,0,105.064,49a3.511,3.511,0,0,0-.034.484,1.23,1.23,0,0,0,.475.975,1.236,1.236,0,0,0,2-.982,1,1,0,0,1,1.028-1,1.006,1.006,0,0,1,.708,1.7,1,1,0,0,1-.73.314,1.275,1.275,0,0,0-.868.354,1.258,1.258,0,0,0-.319.541,1.469,1.469,0,0,0-.8.229,1.724,1.724,0,0,1-2.606-1.822,1.7,1.7,0,0,1,.383-.765.337.337,0,0,0,.055-.354,2,2,0,0,1-.1-1.3,2.025,2.025,0,0,1,1.788-1.516.338.338,0,0,0,.3-.245,1.664,1.664,0,0,1,2.527-.934.337.337,0,0,0,.431-.047,2.292,2.292,0,0,1,3.717.578.337.337,0,0,0,.5.124,1.889,1.889,0,0,1,2.979,1.23.338.338,0,0,0,.252.275,1.932,1.932,0,0,1,1.172.869,1.887,1.887,0,0,1-.539,2.509Z" transform="translate(-76.969 -41.302)"/><path class="a" d="M277.712,326.161a1.237,1.237,0,1,0-1.464,1.756,1.23,1.23,0,0,0,.943-.085,1.229,1.229,0,0,0,.606-.727h0A1.229,1.229,0,0,0,277.712,326.161Zm-.559.742a.563.563,0,1,1-.369-.7A.559.559,0,0,1,277.154,326.9Z" transform="translate(-241.395 -310.854)"/><path class="a" d="M195.233,326a1.237,1.237,0,1,0,1.237,1.237A1.239,1.239,0,0,0,195.233,326Zm0,1.8a.562.562,0,1,1,.562-.562A.563.563,0,0,1,195.233,327.8Z" transform="translate(-163.673 -311.333)"/></g></svg>