<svg xmlns="http://www.w3.org/2000/svg" width="19" height="22" viewBox="0 0 19 22"><defs><style>.a{fill:#2f61f5;}.b{fill:#f5532f;}.c,.d,.f{fill:none;}.c,.d{stroke:#f0512e;opacity:0.5;}.d{stroke-width:0.5px;}.e{stroke:none;}</style></defs><g transform="translate(-249 -1256)"><g transform="translate(247 1256)"><path class="a" d="M2.458,22A.459.459,0,0,1,2,21.542V7.944A4.112,4.112,0,0,1,4.863,4.017l2.6-.836a1.37,1.37,0,0,0,.954-1.309V.458a.458.458,0,0,1,.917,0V1.872a2.285,2.285,0,0,1-1.59,2.182l-2.6.836A3.2,3.2,0,0,0,2.917,7.944v13.6A.459.459,0,0,1,2.458,22Z" transform="translate(0 0)"/><path class="a" d="M20.875,22a.459.459,0,0,1-.458-.458V7.944A3.2,3.2,0,0,0,18.189,4.89l-2.6-.836A2.285,2.285,0,0,1,14,1.872V.458a.458.458,0,1,1,.917,0V1.872a1.37,1.37,0,0,0,.954,1.309l2.6.836a4.112,4.112,0,0,1,2.863,3.927v13.6a.459.459,0,0,1-.458.458Z" transform="translate(-1)"/><path class="a" d="M5.459,22.917l-.054,0a.459.459,0,0,1-.4-.509,13.586,13.586,0,0,1,.415-2.1,14.212,14.212,0,0,0-.241-8.275l-.147-.424a.459.459,0,0,1,.867-.3l.146.422A15.178,15.178,0,0,1,6.3,20.557a12.571,12.571,0,0,0-.387,1.955.458.458,0,0,1-.455.4Z" transform="translate(-0.25 -0.917)"/><path class="a" d="M18.374,22.917a.459.459,0,0,1-.455-.405,12.56,12.56,0,0,0-.387-1.954,15.183,15.183,0,0,1,.258-8.83l.145-.419a.459.459,0,0,1,.867.3l-.146.422a14.225,14.225,0,0,0-.242,8.278,13.553,13.553,0,0,1,.415,2.1.46.46,0,0,1-.4.509.357.357,0,0,1-.054,0Z" transform="translate(-1.25 -0.917)"/><path class="a" d="M7.458,9.667a.458.458,0,0,1-.325-.782A2.653,2.653,0,0,0,7.917,7V6.458a.458.458,0,1,1,.917,0V7A3.565,3.565,0,0,1,7.783,9.533.46.46,0,0,1,7.458,9.667Z" transform="translate(-0.417 -0.5)"/><path class="a" d="M16.375,9.667a.46.46,0,0,1-.324-.134A3.565,3.565,0,0,1,15,7V6.458a.458.458,0,1,1,.917,0V7A2.653,2.653,0,0,0,16.7,8.885a.458.458,0,0,1-.325.782Z" transform="translate(-1.083 -0.5)"/><path class="a" d="M11.958,20.833a.459.459,0,0,1-.458-.458V8.458a.458.458,0,0,1,.917,0V20.375A.459.459,0,0,1,11.958,20.833Z" transform="translate(-0.792 -0.667)"/></g><circle class="b" cx="2" cy="2" r="2" transform="translate(255 1272)"/><circle class="b" cx="1" cy="1" r="1" transform="translate(265 1261)"/><g class="c" transform="translate(253 1270)"><circle class="e" cx="4" cy="4" r="4"/><circle class="f" cx="4" cy="4" r="3.5"/></g><g class="d" transform="translate(264 1260)"><circle class="e" cx="2" cy="2" r="2"/><circle class="f" cx="2" cy="2" r="1.75"/></g></g></svg>