<svg xmlns="http://www.w3.org/2000/svg" width="21" height="21" viewBox="0 0 21 21">
  <g id="cough_2_" data-name="cough (2)" transform="translate(-1 -1)">
    <path id="Path_246" data-name="Path 246" d="M24.139,27.772l-.479-.479-1.348,1.348,1.775.888.3-.606-.934-.467Z" transform="translate(-14.093 -17.387)" fill="#2f61f5"/>
    <path id="Path_247" data-name="Path 247" d="M23.9,19.549V16.365l1.034-1.241a10.171,10.171,0,0,0,2.353-6.5A7.624,7.624,0,0,0,17.255,1.391l-.268.089a3.855,3.855,0,0,1-2.426,0l-1.068-.356A2.417,2.417,0,0,0,12.726,1,3.73,3.73,0,0,0,9,4.726v.1a3.633,3.633,0,0,0,3.281,3.606,6.917,6.917,0,0,0-.232,1.766v1.227a5.763,5.763,0,0,1-.172,1.4l-.223.89.315.157a3.237,3.237,0,0,0,1.168.328l.341,1.366h1.574a1.3,1.3,0,0,1-.334.578l-.356.357.111.277a2.922,2.922,0,0,0,3.346,1.767l1.343-.3v.009a1.018,1.018,0,0,1-.425.827l-.932.666a3.608,3.608,0,0,0-1.335,1.807L16.321,22h9.407l-.237-.711a2.913,2.913,0,0,0-1.588-1.74ZM9.677,4.827v-.1a3.052,3.052,0,0,1,3.048-3.048,1.733,1.733,0,0,1,.553.09l1.068.356a4.531,4.531,0,0,0,2.855,0l.268-.089a6.946,6.946,0,0,1,9.143,6.59,9.492,9.492,0,0,1-2.2,6.066l-.875,1.05-2.547-2.547a3.165,3.165,0,0,0,.877-2.211,1.515,1.515,0,0,0-1.533-1.514,1.532,1.532,0,0,0-1.091.45l-.147.147a3.292,3.292,0,0,1-1.452-1.8L17.394,7.5a1.6,1.6,0,0,0-2.515-.729l-.6.479a2.4,2.4,0,0,1-1.5.526h-.148A2.956,2.956,0,0,1,9.677,4.827Zm10.256,16.5H17.3a2.935,2.935,0,0,1,.9-1.024l.932-.666a1.7,1.7,0,0,0,.709-1.378v-.16l.751-.167-.147-.661-2.772.616a2.256,2.256,0,0,1-.487.053,2.233,2.233,0,0,1-2.025-1.277l.037-.037a1.988,1.988,0,0,0,.578-1.4v-.339H14.006l-.339-1.355H13.4a2.538,2.538,0,0,1-.959-.189l.089-.356a6.444,6.444,0,0,0,.192-1.56V10.2a6.257,6.257,0,0,1,.257-1.757,3.084,3.084,0,0,0,1.72-.665l.6-.48a.93.93,0,0,1,.6-.2.9.9,0,0,1,.854.615l.255.764a3.968,3.968,0,0,0,2,2.31l.218.109.5-.5a.874.874,0,0,1,.631-.251.831.831,0,0,1,.592.245.846.846,0,0,1,.245.615,2.476,2.476,0,0,1-.73,1.761l-.427.427,3.189,3.189v2.956a2.9,2.9,0,0,0-3.281,1.951Zm.723,0a2.246,2.246,0,0,1,4.123,0Z" transform="translate(-5.29)" fill="#2f61f5"/>
    <path id="Path_248" data-name="Path 248" d="M7.132,42.373a.549.549,0,0,1-.333.111.38.38,0,0,1-.269-.648l.257-.257a1.057,1.057,0,0,0-.748-1.8H5.994a1.062,1.062,0,0,0-.66.232l-1.137.91a.508.508,0,1,1-.635-.793l1.119-.9A1.025,1.025,0,0,0,4.04,37.4H2.016a.339.339,0,1,1,0-.677H4.1a.967.967,0,0,0,.432-1.831L4,34.629a.521.521,0,0,1-.289-.468.484.484,0,0,1,.7-.433l1.181.591.3-.606-1.182-.591a1.161,1.161,0,0,0-1.679,1.039A1.194,1.194,0,0,0,3.7,35.235l.531.266a.289.289,0,0,1-.129.548H2.016a1.016,1.016,0,1,0,0,2.032H4.04a.347.347,0,0,1,.217.619l-1.119.9a1.185,1.185,0,0,0,1.482,1.85l1.137-.91a.382.382,0,0,1,.237-.083H6.04a.38.38,0,0,1,.269.648l-.257.257a1.057,1.057,0,0,0,.748,1.8,1.239,1.239,0,0,0,.739-.247l1.117-.837-.406-.542Z" transform="translate(0 -21.161)" fill="#f5532f"/>
    <path id="Path_249" data-name="Path 249" d="M15,46h.677v.677H15Z" transform="translate(-9.258 -29.758)" fill="#f5532f"/>
    <path id="Path_250" data-name="Path 250" d="M17,42h.677v.677H17Z" transform="translate(-10.581 -27.113)" fill="#f5532f"/>
    <path id="Path_251" data-name="Path 251" d="M19,48h.677v.677H19Z" transform="translate(-11.903 -31.081)" fill="#f5532f"/>
    <path id="Path_252" data-name="Path 252" d="M21,52h.677v.677H21Z" transform="translate(-13.226 -33.726)" fill="#f5532f"/>
  </g>
</svg>
