<svg xmlns="http://www.w3.org/2000/svg" xmlns:xlink="http://www.w3.org/1999/xlink" width="24" height="21" viewBox="0 0 24 21"><defs><style>.a{fill:#2f61f5;}.b{clip-path:url(#c);}.c{fill:#f5532f;}.d{filter:url(#a);}</style><filter id="a" x="-18" y="-15" width="60" height="57" filterUnits="userSpaceOnUse"><feOffset dy="3" input="SourceAlpha"/><feGaussianBlur stdDeviation="6" result="b"/><feFlood flood-color="#a8a8a8" flood-opacity="0.161"/><feComposite operator="in" in2="b"/><feComposite in="SourceGraphic"/></filter><clipPath id="c"><g class="d" transform="matrix(1, 0, 0, 1, 0, 0)"><rect class="a" width="24" height="21" rx="7" transform="translate(0 0)"/></g></clipPath></defs><g transform="translate(-549 -865.267)"><g class="b" transform="translate(549 865.266)"><g transform="translate(3.176 0)"><g transform="translate(0 0)"><path class="a" d="M215.79,107.485a.34.34,0,0,0,0,.679c1.123,0,1.7-.893,1.7-2.038,0-2.153-2.378-2.148-2.378-.34a.34.34,0,0,0,.679,0c0-.93,1.019-.877,1.019.34C216.809,106.535,216.709,107.485,215.79,107.485Z" transform="translate(-203.901 -98.036)"/><path class="a" d="M200.94,264.761a2.381,2.381,0,0,0-2.378,2.378v2.718a.34.34,0,0,0,.679,0v-2.718a1.7,1.7,0,0,1,3.4,0v2.718a.34.34,0,0,0,.679,0v-2.718A2.381,2.381,0,0,0,200.94,264.761Z" transform="translate(-188.372 -248.456)"/><path class="c" d="M88.593,177.187h.679a.34.34,0,0,0,0-.679h-.679a.34.34,0,0,0,0,.679Z" transform="translate(-84.857 -165.638)"/><path class="c" d="M121.341,215.5v.679a.34.34,0,0,0,.679,0V215.5A.34.34,0,0,0,121.341,215.5Z" transform="translate(-115.906 -201.911)"/><path class="c" d="M93.869,199.276a.34.34,0,0,0,.24.58c.241,0,.3-.2.92-.779a.34.34,0,0,0-.48-.48Z" transform="translate(-90.033 -186.269)"/><path class="a" d="M37.179,195.773a1.02,1.02,0,0,0-1.019,1.019v.767a.253.253,0,0,1-.492.08l-.513-1.539.408-1.633a1.135,1.135,0,0,0-1.1-1.411c-.419,0-.3.389-1.337,2.938-.068.181-.029.038,1,4.574v2a.34.34,0,1,0,.679,0v-2.038c0-.073.051.194-1-4.393l.88-2.348a.456.456,0,0,1,.227.513c-.429,1.789-.48,1.754-.425,1.919l.544,1.633a.933.933,0,0,0,1.816-.295v-.767a.34.34,0,0,1,.679,0,5.3,5.3,0,0,1-.951,3.533c-.135.18-.042.187.09,2.268a.34.34,0,0,0,.677-.052l-.147-1.913a5.973,5.973,0,0,0,1.011-3.836,1.02,1.02,0,0,0-1.019-1.019Z" transform="translate(-33.103 -181.166)"/><path class="a" d="M107.341,7.043a6.807,6.807,0,0,0-.168-4.308A2.314,2.314,0,0,0,105.4,1.29c-.749-1.408-2.421-1.412-3.987-1.126a.34.34,0,0,0,.122.668c3.472-.636,3.027,1.1,3.63,1.119a1.638,1.638,0,0,1,1.4,1.069,6.236,6.236,0,0,1,.123,3.866,14.157,14.157,0,0,1-2.588,5.223,3.38,3.38,0,0,1-1.395-1.089.34.34,0,0,0-.545.405,4.113,4.113,0,0,0,1.711,1.324v1.326A14.722,14.722,0,0,1,99.121,15.6c1-1.435.544-.177.664-2.681a.34.34,0,0,0-.131-.268c-.227-.177-.361,0-1.812.318a.952.952,0,0,1-1.024-.4c.4-.258,1.067-.344.91-.788-.245-.689-.49-1.173-1.523-1.112-.17-.493-.139-.652-.318-.762l-.781-.481c.85-1.13.943-1.125.943-1.329V6.24c1.061.4,1.979.14,4.416.228a.34.34,0,0,0,0-.679H97.317c-.064-.045-2.712.279-2.952-3.715,1.037.539,2.759-.051,4.583-.582A.34.34,0,0,0,98.757.84c-1.988.623-3.938,1.19-4.434.318a.338.338,0,0,0-.642.13c-.111,1.544.346,3.637,1.689,4.59V7.99L94.337,9.317a.34.34,0,0,0,.09.5l.994.611c.164.381.138,1.019.588.954.746-.107.858.077.974.356-.445.283-1.065.35-.935.782a1.63,1.63,0,0,0,1.959,1.114l1.1-.275V14.5a11.55,11.55,0,0,0-2.718,6.919.34.34,0,0,0,.679,0,10.152,10.152,0,0,1,1.59-5.1,14.33,14.33,0,0,0,5.444-1.6c3.225,4.451,1.48,7.036,2.478,7.036a.34.34,0,0,0,.34-.34,10.922,10.922,0,0,0-2.378-7.246v-1.53A14.918,14.918,0,0,0,107.341,7.043Z" transform="translate(-89.935 -0.015)"/><path class="a" d="M193.734,5.9a.34.34,0,0,0-.679,0A.34.34,0,0,0,193.734,5.9Z" transform="translate(-183.204 -5.217)"/></g></g></g></g></svg>