<svg xmlns="http://www.w3.org/2000/svg" width="21.891" height="21.933" viewBox="0 0 21.891 21.933"><defs><style>.a{fill:#f5532f;}.b{fill:#2f61f5;}</style></defs><g transform="translate(-0.5)"><path class="a" d="M439.083,244.042a.428.428,0,0,0-.493-.353l-.791.131-.073-.268a.428.428,0,0,0-.483-.31l-1.037.171a.428.428,0,1,0,.14.845l.655-.108.073.268a.428.428,0,0,0,.483.31l1.173-.194A.428.428,0,0,0,439.083,244.042Z" transform="translate(-416.698 -232.817)"/><path class="a" d="M431.681,309.625l-.789-.3.054-.306a.428.428,0,0,0-.271-.475l-.993-.374a.428.428,0,0,0-.3.8l.66.249-.054.306a.428.428,0,0,0,.271.475l1.122.423a.428.428,0,0,0,.3-.8Z" transform="translate(-410.241 -294.944)"/><path class="a" d="M429.534,152.068a.427.427,0,0,0,.308-.131l.48-.5.17.149a.428.428,0,0,0,.59-.025l.862-.891a.428.428,0,0,0-.616-.6l-.578.6-.17-.149a.428.428,0,0,0-.59.024l-.764.789a.428.428,0,0,0,.308.726Z" transform="translate(-410.245 -143.525)"/><path class="a" d="M2.1,244.733a.429.429,0,0,0,.413-.316l.073-.268.657.108a.428.428,0,1,0,.139-.845l-1.038-.171a.428.428,0,0,0-.483.31l-.073.268L1,243.688a.428.428,0,1,0-.14.845l1.171.194a.422.422,0,0,0,.07.006Z" transform="translate(0 -232.815)"/><path class="a" d="M18.5,308.174l-.992.374a.428.428,0,0,0-.271.474l.053.306-.789.3a.428.428,0,1,0,.3.8l1.12-.423a.428.428,0,0,0,.271-.474l-.053-.307.66-.249a.428.428,0,0,0-.3-.8Z" transform="translate(-15.051 -294.946)"/><path class="a" d="M15.864,150.553a.428.428,0,0,0-.591-.024l-.169.149-.579-.6a.428.428,0,1,0-.616.6l.863.891a.428.428,0,0,0,.59.024l.169-.148.48.5a.428.428,0,0,0,.616-.6Z" transform="translate(-12.72 -143.525)"/><path class="b" d="M326.505,170.926a.428.428,0,0,0,0,.857h0a.428.428,0,1,0,0-.857Z" transform="translate(-311.63 -163.604)"/><path class="b" d="M127.885,7.751a2.575,2.575,0,0,0-2.571-2.573h-1.141a1.492,1.492,0,0,0,.145-.644V1.5a1.5,1.5,0,1,0-3,0V3.035h-2.865a2.572,2.572,0,0,0-1.42,4.716,2.571,2.571,0,0,0,0,4.288,2.572,2.572,0,0,0,1.42,4.716h.866a1.492,1.492,0,0,0-.145.644v3.035a1.5,1.5,0,1,0,3,0V18.9h3.139a2.572,2.572,0,0,0,1.419-4.716,2.572,2.572,0,0,0,0-4.289,2.572,2.572,0,0,0,1.152-2.143Zm-2.571,1.715h-6.861a.428.428,0,0,0,0,.857h6.861a1.716,1.716,0,0,1,0,3.432h-6.861a.428.428,0,0,0,0,.857h6.861a1.715,1.715,0,0,1,0,3.431h-3.568a.428.428,0,0,0-.428.428v1.962a.643.643,0,1,1-1.287,0V17.4a.644.644,0,0,1,.643-.644h4.639a.428.428,0,1,0,0-.857h-6.861a1.715,1.715,0,0,1,0-3.431h6.861a.428.428,0,1,0,0-.857h-6.861a1.715,1.715,0,0,1,0-3.431h4.937a.428.428,0,1,0,0-.857h-4.937a1.715,1.715,0,0,1,0-3.431h3.293a.428.428,0,0,0,.428-.428V1.5a.643.643,0,1,1,1.287,0V4.534a.644.644,0,0,1-.643.644h-4.365a.428.428,0,0,0,0,.857h6.861a1.715,1.715,0,0,1,0,3.431Z" transform="translate(-110.439)"/></g></svg>