<svg xmlns="http://www.w3.org/2000/svg" width="24.75" height="24.351" viewBox="0 0 24.75 24.351"><defs><style>.a{fill:#f5532f;}.b{fill:#2f61f5;}</style></defs><g transform="translate(-1 -1.993)"><path class="a" d="M24.593,27.787a1.4,1.4,0,0,0-.5-1.08,1.3,1.3,0,0,0-1.221-.1l.253.757c.132-.043.372-.1.5-.013a.625.625,0,0,1,.172.433c0,.377-.792.4-.8.4a1.2,1.2,0,1,1,0-2.4l0-.8a2,2,0,0,0,0,3.992C23.548,28.985,24.593,28.735,24.593,27.787Z" transform="translate(-12.016 -13.819)"/><path class="a" d="M37.091,26.708a1.3,1.3,0,0,0-1.221-.1l.253.757c.132-.043.372-.1.5-.013a.625.625,0,0,1,.172.433c0,.377-.792.4-.8.4a1.2,1.2,0,1,1,0-2.4l0-.8a2,2,0,0,0,0,3.992c.552,0,1.6-.25,1.6-1.2A1.4,1.4,0,0,0,37.091,26.708Z" transform="translate(-19.827 -13.819)"/><path class="b" d="M28.205,38.338l-1.2-.4-1.324.442.252.757,1.071-.357,1.2.4,1.2-.4,1.071.357.252-.757L29.4,37.939Z" transform="translate(-14.83 -21.597)"/><path class="b" d="M35.8,15.388h.8v-.8h.8v-.8h-.8v-.8h-.8v.8H35v.8h.8Z" transform="translate(-20.427 -6.609)"/><path class="b" d="M39.8,4.388h.8v-.8h.8v-.8h-.8v-.8h-.8v.8H39v.8h.8Z" transform="translate(-22.831)"/><path class="b" d="M11.2,6.187H12v-1.2h1.2v-.8H12v-1.2h-.8v1.2H10v.8h1.2Z" transform="translate(-5.407 -0.601)"/><path class="b" d="M25.75,6.388c0-2.328-5.375-2.4-5.988-2.4v.8c1.693,0,5.19.39,5.19,1.6,0,.8-2.482,1.358-5.272,1.535-.9-.937-2.695-1.934-6.3-1.934-3.591,0-5.39.987-6.291,1.92C4.077,7.671,1.8,6.889,1.8,5.989c0-1.175,1.533-1.2,1.6-1.2v-.8c-.828,0-2.4.417-2.4,2C1,7.65,3.845,8.394,6.517,8.66a2.572,2.572,0,0,0-.325.872l0,3.58a1.964,1.964,0,0,0-.4,1.26,1.874,1.874,0,0,0,1.628,1.96A4.849,4.849,0,0,0,10.581,20.3v.468c-5.9.261-7.165,6.235-7.177,6.3l-.1.477H23.443l-.1-.477c-.013-.062-1.28-6.035-7.178-6.3V20.3a4.85,4.85,0,0,0,3.162-3.971,1.875,1.875,0,0,0,1.628-1.96,1.964,1.964,0,0,0-.4-1.26V9.582l0-.049a2.557,2.557,0,0,0-.308-.842C22.7,8.505,25.75,7.959,25.75,6.388ZM6.589,14.372a1.071,1.071,0,0,1,.8-1.135v2.271a1.071,1.071,0,0,1-.8-1.135Zm3.53,7.231c.188-.02.382-.034.582-.041a2.668,2.668,0,0,0,1.515,1.4l-1.538.879A3.3,3.3,0,0,1,10.118,21.6Zm12.321,5.144H19.69l-.335-1.675-.783.157.3,1.519h-11l.3-1.519L7.4,25.072,7.06,26.747H4.311a7.055,7.055,0,0,1,5-5.009,3.963,3.963,0,0,0,.991,2.9l.216.216,2.861-1.635,2.861,1.635.216-.216a3.961,3.961,0,0,0,.991-2.9A7.055,7.055,0,0,1,22.439,26.747Zm-6.365-2.909-1.539-.879a2.666,2.666,0,0,0,1.515-1.4c.2.007.394.02.582.041A3.283,3.283,0,0,1,16.074,23.838Zm-.7-2.738a1.944,1.944,0,0,1-2,1.256,1.94,1.94,0,0,1-2-1.256v-.555a8.713,8.713,0,0,0,2,.214,8.735,8.735,0,0,0,2-.214Zm3.992-5.593V13.237a1.071,1.071,0,0,1,.8,1.135A1.07,1.07,0,0,1,19.363,15.507Zm.4-5.894v2.92a2.3,2.3,0,0,0-.4-.116V11.178h-.8v4.789c0,.163-.084,3.993-5.19,3.993s-5.189-3.83-5.19-3.992V11.2c.02-.146.3-.422,1.2-.422v-.8c-1.973,0-2,1.149-2,1.2v1.239a2.3,2.3,0,0,0-.4.116V9.613a2.2,2.2,0,0,1,.436-.88c.553.035,1.083.05,1.56.05v-.8q-.375,0-.741-.011a8.96,8.96,0,0,1,5.132-1.186A8.965,8.965,0,0,1,18.52,7.975c-.252.006-.5.01-.754.01v.8c.38,0,.935-.008,1.576-.037a2.178,2.178,0,0,1,.42.867Z" transform="translate(0 -1.202)"/><path class="b" d="M36.369,20.079v-.8c-2.2,0-2.739-.522-2.869-.746a.7.7,0,0,1,.02-.649l-.345-.2-.342-.206a1.488,1.488,0,0,0-.032,1.444C33.242,19.7,34.409,20.079,36.369,20.079Z" transform="translate(-19.002 -9.303)"/><path class="b" d="M27.361,19.363v-.8c-2.43,0-2.847-.546-2.917-.713-.141-.339.256-.849.406-1l-.283-.281-.282-.282c-.1.1-.946.982-.578,1.869C24.042,18.968,25.238,19.363,27.361,19.363Z" transform="translate(-13.587 -8.587)"/></g></svg>