<svg xmlns="http://www.w3.org/2000/svg" width="15.412" height="24.042" viewBox="0 0 15.412 24.042"><defs><style>.a{fill:#2f61f5;}.b{fill:#f5532f;}</style></defs><g transform="translate(-191.197 -1018.066)"><path class="a" d="M366.582,7.794A7.527,7.527,0,0,0,366.4,3.03a2.559,2.559,0,0,0-1.965-1.6C363.6-.124,361.754-.13,360.022.187a.376.376,0,0,0,.135.739c3.836-.7,3.354,1.213,4.015,1.237a1.811,1.811,0,0,1,1.543,1.183,6.9,6.9,0,0,1,.136,4.276,15.657,15.657,0,0,1-2.862,5.776,3.738,3.738,0,0,1-1.542-1.2.376.376,0,0,0-.6.448,4.548,4.548,0,0,0,1.892,1.464c.024,1.706-.056,1.743.075,1.918,3.819,5.092,1.811,8.039,2.93,8.039a.376.376,0,0,0,.376-.376,12.079,12.079,0,0,0-2.63-8.014V13.982a16.5,16.5,0,0,0,3.1-6.188Z" transform="translate(-160.261 1018.044)"/><path class="a" d="M360.576,154.822a.376.376,0,0,0,0,.751c2.478,0,2.381-4.089.485-4.089-1.227,0-1.613,1.835-.861,1.835a.376.376,0,0,0,.376-.376c0-1.03,1.127-.968,1.127.376C361.7,153.771,361.593,154.822,360.576,154.822Z" transform="translate(-160.355 873.695)"/><path class="a" d="M338.63,384a2.633,2.633,0,0,0-2.63,2.63v3.005a.376.376,0,0,0,.751,0V386.63a1.878,1.878,0,0,1,3.757,0v3.005a.376.376,0,0,0,.751,0V386.63A2.633,2.633,0,0,0,338.63,384Z" transform="translate(-137.658 652.097)"/><path class="a" d="M193.849,34.34a14.409,14.409,0,0,1-3.97,1.1c.984-1.409.691-.314.735-2.966a.376.376,0,0,0-.376-.376h-2.818a.94.94,0,0,1-.939-.939V29.466c0-.346-.349-.372-1.043-.852.94-1.25,1.043-1.244,1.043-1.47V25.082a3.723,3.723,0,0,0,.687.188.376.376,0,0,0,.129-.74c-1.866-.326-2.565-2.163-2.679-4.055,1.06.551,2.613.078,5.068-.643a.376.376,0,0,0-.211-.721c-2.072.608-4.328,1.363-4.9.351a.374.374,0,0,0-.71.143c-.123,1.707.382,4.023,1.868,5.076v2.335l-1.142,1.468a.376.376,0,0,0,.1.551l1.042.641v1.481a1.692,1.692,0,0,0,1.691,1.691h2.442v1.364a13.329,13.329,0,0,0-.959,1.328.375.375,0,0,0-.164.263,11.913,11.913,0,0,0-1.882,6.061.376.376,0,1,0,.751,0,11.228,11.228,0,0,1,1.759-5.64,14.224,14.224,0,0,0,4.774-1.191A.376.376,0,0,0,193.849,34.34Z" transform="translate(7.353 999.869)"/><path class="b" d="M273.175,104.191A10,10,0,0,0,272,107a1.5,1.5,0,0,0,3.005,0,10,10,0,0,0-1.175-2.814.376.376,0,0,0-.655,0Zm.328,3.565a.752.752,0,0,1-.751-.751,7.164,7.164,0,0,1,.751-1.836,7.16,7.16,0,0,1,.751,1.836A.752.752,0,0,1,273.5,107.756Z" transform="translate(-76.663 918.95)"/><path class="a" d="M328.429,8.751a.376.376,0,0,0,0-.751A.376.376,0,0,0,328.429,8.751Z" transform="translate(-130.087 1010.441)"/></g></svg>