<svg xmlns="http://www.w3.org/2000/svg" width="21.437" height="21.434" viewBox="0 0 21.437 21.434"><defs><style>.a{fill:#2f61f5;}.b,.c{fill:#f5532f;}.c{stroke-linejoin:round;}.d,.e{stroke:none;}.e{fill:#2f61f5;}</style></defs><path class="a" d="M365.837,6.951a6.71,6.71,0,0,0-.165-4.247,2.281,2.281,0,0,0-1.752-1.424c-.738-1.387-2.386-1.392-3.93-1.11a.335.335,0,0,0,.121.659c3.419-.626,2.99,1.082,3.579,1.1a1.615,1.615,0,0,1,1.375,1.054,6.148,6.148,0,0,1,.121,3.812,13.959,13.959,0,0,1-2.552,5.15,3.332,3.332,0,0,1-1.375-1.073.335.335,0,0,0-.538.4,4.054,4.054,0,0,0,1.687,1.306c.022,1.521-.05,1.554.067,1.71,3.4,4.54,1.615,7.167,2.612,7.167a.335.335,0,0,0,.335-.335,10.768,10.768,0,0,0-2.344-7.144V12.468a14.708,14.708,0,0,0,2.76-5.517Z" transform="translate(-344.657 -0.022)"/><path class="a" d="M360.493,154.46a.335.335,0,0,0,0,.67c2.209,0,2.123-3.646.432-3.646-1.094,0-1.438,1.636-.767,1.636a.335.335,0,0,0,.335-.335c0-.918,1-.863,1,.335C361.5,153.523,361.4,154.46,360.493,154.46Z" transform="translate(-344.752 -145.142)"/><path class="a" d="M338.344,384A2.347,2.347,0,0,0,336,386.344v2.679a.335.335,0,0,0,.67,0v-2.679a1.675,1.675,0,0,1,3.349,0v2.679a.335.335,0,0,0,.67,0v-2.679A2.347,2.347,0,0,0,338.344,384Z" transform="translate(-321.933 -367.925)"/><path class="a" d="M192.764,32.686a12.846,12.846,0,0,1-3.539.978c.877-1.256.616-.28.655-2.644a.335.335,0,0,0-.335-.335h-2.512a.838.838,0,0,1-.837-.837V28.341c0-.309-.311-.331-.93-.759.838-1.114.93-1.109.93-1.31V24.432a3.319,3.319,0,0,0,.612.167.335.335,0,0,0,.115-.66c-1.664-.291-2.287-1.929-2.388-3.615.945.491,2.329.07,4.518-.574a.335.335,0,0,0-.188-.643c-1.847.542-3.859,1.215-4.372.313a.333.333,0,0,0-.633.128c-.109,1.522.341,3.586,1.665,4.526v2.082l-1.018,1.309a.335.335,0,0,0,.089.491l.929.572v1.32a1.509,1.509,0,0,0,1.507,1.507h2.177v1.216a11.881,11.881,0,0,0-.855,1.184.335.335,0,0,0-.146.234,10.621,10.621,0,0,0-1.678,5.4.335.335,0,1,0,.67,0,10.01,10.01,0,0,1,1.568-5.028,12.681,12.681,0,0,0,4.256-1.062A.335.335,0,0,0,192.764,32.686Z" transform="translate(-176.147 -18.294)"/><path class="b" d="M273.048,104.17A8.915,8.915,0,0,0,272,106.678a1.34,1.34,0,0,0,2.679,0,8.916,8.916,0,0,0-1.048-2.508.335.335,0,0,0-.584,0Zm.292,3.178a.671.671,0,0,1-.67-.67,6.386,6.386,0,0,1,.67-1.637,6.383,6.383,0,0,1,.67,1.637A.671.671,0,0,1,273.34,107.348Z" transform="translate(-260.612 -99.646)"/><path class="a" d="M6.016,58.22V49a1.006,1.006,0,0,0-1-1H2.332a1.006,1.006,0,0,0-1,1V58.22a3.684,3.684,0,1,0,4.689,0ZM3.6,64.075A3.019,3.019,0,0,1,1.864,58.65c.254-.191.085-.184.134-5.961H3a.335.335,0,0,0,0-.67H2v-.67H3.672a.335.335,0,0,0,0-.67H2v-.67H3a.335.335,0,0,0,0-.67H2c.02-.091-.113-.67.335-.67H5.012A.335.335,0,0,1,5.347,49c.05,9.735-.121,9.454.134,9.646A3.018,3.018,0,0,1,3.6,64.075Z" transform="translate(0.013 -45.991)"/><g class="c" transform="translate(-30.742 -168.633)"><path class="d" d="M35.431,181.585v-5.25A.335.335,0,0,0,35.1,176h-1.34a.335.335,0,0,0-.335.335v5.25a2.344,2.344,0,1,0,2.009,0Zm-1,3.792a1.676,1.676,0,0,1-.558-3.253c.423-.15.14-.43.223-5.455h.67c.085,5.14-.186,5.309.223,5.455A1.676,1.676,0,0,1,34.427,185.378Z"/><path class="e" d="M 34.4265022277832 186.0474243164062 C 31.94884300231934 186.0474243164062 31.16318321228027 182.6591339111328 33.4217643737793 181.5853729248047 L 33.4217643737793 176.3349151611328 C 33.4217643737793 176.1499633789062 33.57170486450195 176 33.75667190551758 176 L 35.09633255004883 176 C 35.28130340576172 176 35.43124389648438 176.1499633789062 35.43124389648438 176.3349151611328 L 35.43124389648438 181.5853729248047 C 37.69258499145508 182.6606140136719 36.90068435668945 186.0474243164062 34.4265022277832 186.0474243164062 Z M 34.09158325195312 176.6698303222656 C 34.00856399536133 181.6941223144531 34.2916145324707 181.9743804931641 33.86861419677734 182.1244049072266 C 32.09884262084961 182.7521209716797 32.55667495727539 185.3776092529297 34.4265022277832 185.3776092529297 C 36.29695129394531 185.3776092529297 36.75344467163086 182.7517852783203 34.98438262939453 182.1244049072266 C 34.57524490356445 181.9793090820312 34.8463249206543 181.8098449707031 34.76141357421875 176.6698303222656 L 34.09158325195312 176.6698303222656 Z"/></g><path class="a" d="M328.389,8.67a.335.335,0,0,0,0-.67A.335.335,0,0,0,328.389,8.67Z" transform="translate(-314.322 -7.665)"/></svg>