<svg xmlns="http://www.w3.org/2000/svg" width="19.014" height="21.693" viewBox="0 0 19.014 21.693"><defs><style>.a{fill:none;stroke:#2f61f5;}.b{fill:#f5532f;}</style></defs><g transform="translate(-32.282 0.544)"><path class="a" d="M48.35,14.528a3.846,3.846,0,0,0-.69,3.492,14.97,14.97,0,0,0,.6,2.63H39.211c.172-2.759-1.811-2.457-1.811-2.457a18.281,18.281,0,0,1-2.242,0c-1.293.129-.776-1.681-.776-1.681.172-.517-.345-1.035-.345-1.035-.388-.172.216-.776.216-.776-.905-.259-.129-1.336-.129-1.336.216-.819-.905-.905-.905-.905-1.336-.474.819-2.759.819-2.759a3.415,3.415,0,0,0,.431-.905,2.806,2.806,0,0,0-.043-1.336,2.817,2.817,0,0,1,.129-1.509,6.153,6.153,0,0,1,4.4-5.432c5.863-1.552,8.751.776,9.7,1.811A1.913,1.913,0,0,1,49,2.759l.388.517C53.049,8.708,48.35,14.528,48.35,14.528Z" transform="translate(0 0)"/><path class="b" d="M233.765,57.554,231.653,60.4l-1.293-2.026-1.9,2.888-1.336-1.336-2.2,2.328,2.112-3.923,1.078,1.379,2.026-2.8,1.423,1.854,1.509-2.2a1.914,1.914,0,0,1,.345.431C233.55,57.21,233.679,57.382,233.765,57.554Z" transform="translate(-184.38 -54.278)"/></g></svg>