<svg xmlns="http://www.w3.org/2000/svg" width="22.5" height="22.5" viewBox="0 0 22.5 22.5"><defs><style>.a{fill:#2f61f5;}</style></defs><g transform="translate(0 -0.005)"><path class="a" d="M1.758,22.5a1.77,1.77,0,0,0,.74-.163c.548-.166,6.288-1.96,7.4-4.773.712-1.8.237-4.153-.332-5.9l.749-.749a1.32,1.32,0,0,1,1.864,0l.749.749c-.568,1.747-1.044,4.1-.332,5.9,1.114,2.813,6.854,4.607,7.4,4.773a1.758,1.758,0,0,0,2.495-1.7c-.021-.57-.1-2.571-.312-4.828a.439.439,0,0,0-.875.081c.253,2.74.3,4.633.31,4.8a.88.88,0,0,1-.877.928,1.1,1.1,0,0,1-.457-.117c-2.006-.595-6.085-2.286-6.869-4.264a8.184,8.184,0,0,1,.217-4.874l.821.821a.439.439,0,1,0,.622-.622L12.8,10.3a2.2,2.2,0,0,0-3.107,0L7.424,12.571a.439.439,0,1,0,.622.622l.821-.821a8.183,8.183,0,0,1,.217,4.873c-.4,1.008-1.7,2.061-3.752,3.044a23.946,23.946,0,0,1-3.117,1.219,1.1,1.1,0,0,1-.457.117.879.879,0,0,1-.877-.942c.035-.965.381-9.5,1.7-11.851,1.3-2.321,4.99-4.17,6.033-4.17A1.32,1.32,0,0,1,9.932,5.981v.686a2.183,2.183,0,0,1-.643,1.554l-.836.836H6.727a3.232,3.232,0,0,0-2.9,2,.439.439,0,1,0,.786.393A2.235,2.235,0,0,1,6.727,9.936h.846L5.813,11.7a3.983,3.983,0,0,0-1.154,2.811v2.718L3.029,18.854a.439.439,0,0,0,.622.622L5.1,18.029l.568.568a.439.439,0,1,0,.622-.622l-.751-.751,0-1.4,1.011,1.011a.439.439,0,0,0,.622-.622L5.531,14.582v-.077a3.1,3.1,0,0,1,.9-2.187L9.91,8.843a3.056,3.056,0,0,0,.9-2.175V.884h.879V6.668a3.056,3.056,0,0,0,.9,2.175l3.472,3.471a3.058,3.058,0,0,1,.9,2.175v.1l-1.629,1.629a.439.439,0,0,0,.622.622l1.008-1.008v1.394l-.75.75a.439.439,0,1,0,.622.622l.568-.568,1.447,1.447a.439.439,0,0,0,.622-.622l-1.629-1.629V14.489a3.931,3.931,0,0,0-1.158-2.8L14.928,9.937h.846a2.235,2.235,0,0,1,2.115,1.515.439.439,0,1,0,.786-.393,3.232,3.232,0,0,0-2.9-2H14.048l-.836-.836a2.183,2.183,0,0,1-.643-1.554V5.982a1.32,1.32,0,0,1,1.318-1.318c1.23,0,4.83,2.021,6.032,4.17a11.053,11.053,0,0,1,.9,3.177.439.439,0,1,0,.866-.15,11.621,11.621,0,0,0-1-3.456c-1.37-2.446-5.269-4.619-6.8-4.619a2.186,2.186,0,0,0-1.318.441V.444A.439.439,0,0,0,12.129,0H10.371a.439.439,0,0,0-.439.439v3.78a2.186,2.186,0,0,0-1.318-.441c-1.532,0-5.43,2.173-6.8,4.619C.426,10.883.062,19.021,0,20.646A1.76,1.76,0,0,0,1.758,22.5Z" transform="translate(0)"/><ellipse class="a" cx="0.5" rx="0.5" transform="translate(21 14.005)"/></g></svg>