<svg xmlns="http://www.w3.org/2000/svg" width="17.084" height="20.75" viewBox="0 0 17.084 20.75"><defs><style>.a{fill:#2f61f5;stroke:#f8f8f8;stroke-width:0.5px;}.b{fill:#f5532f;}</style></defs><g transform="translate(-0.295 0.251)"><g transform="translate(1.657 0)"><path class="a" d="M114.254,275.531s1.233-5.486-3.97-.124a.464.464,0,0,0,.33.79,10.1,10.1,0,0,0,3.161-.508Zm0,0" transform="translate(-106.016 -259.389)"/><path class="a" d="M98.244,19.725a.693.693,0,0,1-.682-.7c0-1.51,2.739-2.328,3.917-2.61a.68.68,0,0,1,.16-.019A2.733,2.733,0,0,0,103.6,11.76L94.2,1.135A.683.683,0,0,1,95.225.23l9.375,10.6a4.054,4.054,0,0,1,1.139,2.835,4.105,4.105,0,0,1-4.014,4.1c-1.333.331-2.681.95-2.8,1.289a.671.671,0,0,1-.681.671Zm0,0" transform="translate(-90.701 0)"/><path class="a" d="M30.645,278.526a3.121,3.121,0,0,1-2.284-5.249.683.683,0,1,1,1,.932,1.756,1.756,0,0,0,1.967,2.813.683.683,0,0,1,.532,1.259,3.1,3.1,0,0,1-1.215.245Zm0,0" transform="translate(-27.523 -259.392)"/></g><path class="b" d="M.978,33.459a.683.683,0,0,1-.521-1.126l15.717-18.45a.684.684,0,1,1,1.041.886L1.5,33.219a.682.682,0,0,1-.52.24Zm0,0" transform="translate(0 -12.96)"/></g></svg>