<svg xmlns="http://www.w3.org/2000/svg" width="22.414" height="22.476" viewBox="0 0 22.414 22.476"><defs><style>.a{fill:#2f61f5;stroke:#f8f8f8;stroke-width:0.5px;}.b{fill:none;stroke:#f5532f;stroke-linecap:round;}</style></defs><g transform="translate(-74.793 -1091.731)"><g transform="translate(75.254 1086.149)"><path class="a" d="M19.842,11.969a12.383,12.383,0,0,0-5.7-5.834,3.448,3.448,0,0,0-3.026.139.758.758,0,0,1-.741,0,3.448,3.448,0,0,0-3.026-.139,12.383,12.383,0,0,0-5.7,5.834,20.025,20.025,0,0,0-1.6,4.022l-.05.2.077.19A11.53,11.53,0,0,0,4.649,21.47c.218.454.455.906.71,1.343,1.563,2.679,3.375,4.037,5.386,4.037s3.824-1.358,5.387-4.037c.255-.438.492-.89.71-1.344a11.529,11.529,0,0,0,4.572-5.091l.077-.19-.05-.2a20.026,20.026,0,0,0-1.6-4.022Zm-9.1,13.622c-1.531,0-2.978-1.148-4.3-3.412a28.947,28.947,0,0,1-2.275-5.405H8.227a1.892,1.892,0,0,1,1.889,1.889v.63h1.26v-.63a1.892,1.892,0,0,1,1.889-1.89H17.32a28.924,28.924,0,0,1-2.275,5.405c-1.321,2.264-2.767,3.412-4.3,3.412ZM5.605,13H15.887a14.3,14.3,0,0,1,1.382,2.519h-4a3.146,3.146,0,0,0-2.519,1.262,3.146,3.146,0,0,0-2.519-1.262h-4A14.307,14.307,0,0,1,5.605,13Zm1.035-1.26a5.7,5.7,0,0,1,4.106-1.889,5.7,5.7,0,0,1,4.106,1.889Zm11.169,7.459c.445-1.179.61-1.77,1.053-3.049a15.874,15.874,0,0,0-2.418-4.512,7.254,7.254,0,0,0-5.7-3.046,7.255,7.255,0,0,0-5.7,3.048,15.827,15.827,0,0,0-2.416,4.509c.447,1.29.608,1.868,1.053,3.047a10.6,10.6,0,0,1-2.353-3.1,19.717,19.717,0,0,1,1.449-3.562A11.349,11.349,0,0,1,7.85,7.29a2.2,2.2,0,0,1,1.927.092,2.008,2.008,0,0,0,1.938,0,2.2,2.2,0,0,1,1.927-.092,11.349,11.349,0,0,1,5.072,5.239,19.719,19.719,0,0,1,1.45,3.563A10.478,10.478,0,0,1,17.809,19.194Z"/></g><line class="b" y1="21" x2="21" transform="translate(75.5 1092.5)"/></g></svg>