<svg xmlns="http://www.w3.org/2000/svg" width="26.454" height="26.502" viewBox="0 0 26.454 26.502"><defs><style>.a{fill:#2f61f5;stroke:#2e5ff0;stroke-width:0.1px;}</style></defs><g transform="translate(0.084 0.127)"><path class="a" d="M24.752,10.955H20.024a17.37,17.37,0,0,1,1.484-1.569c.854-.787,1.736-1.558,2.624-2.3a1.311,1.311,0,0,0,1.8-1.9l-4.8-4.8a1.311,1.311,0,0,0-1.9,1.806c-.748.91-1.53,1.812-2.329,2.684-.265.289-.547.57-.85.85a6.559,6.559,0,0,0-.171-.81A.9.9,0,0,0,15.27,4.3,6.581,6.581,0,0,0,8.9,5.941a.386.386,0,1,0,.541.55,5.808,5.808,0,0,1,5.621-1.447.121.121,0,0,1,.082.082,5.8,5.8,0,0,1-1.663,5.829H9.9l2.824-2.648a.386.386,0,0,0-.527-.562L9.19,10.568A6.522,6.522,0,0,0,7.268,5.981,6.576,6.576,0,0,0,.86,4.3a.9.9,0,0,0-.618.617,6.577,6.577,0,0,0,1.336,6.036h-.01a1.568,1.568,0,0,0-.411,3.081v.9a9.4,9.4,0,0,0,7.223,9.13V24.4a1.93,1.93,0,0,0,1.928,1.928h5.706A1.93,1.93,0,0,0,17.941,24.4v-.326a9.339,9.339,0,0,0,5.195-3.306.386.386,0,0,0-.6-.479A8.569,8.569,0,0,1,17.5,23.379l-.036.007a8.692,8.692,0,0,1-1.681.164H10.538a8.62,8.62,0,0,1-8.611-8.611v-.848H24.392v.848a8.518,8.518,0,0,1-.935,3.907.386.386,0,1,0,.687.35,9.282,9.282,0,0,0,1.02-4.258v-.9a1.568,1.568,0,0,0-.411-3.081ZM9.15,24.218a9.421,9.421,0,0,0,1.388.1h5.243a9.5,9.5,0,0,0,1.388-.1V24.4a1.158,1.158,0,0,1-1.157,1.157H10.307A1.158,1.158,0,0,1,9.15,24.4ZM19.829.935a.54.54,0,0,1,.763,0l4.8,4.8a.54.54,0,0,1-.763.763l-4.8-4.8a.541.541,0,0,1,0-.763ZM16.128,6.7a15.336,15.336,0,0,0,1.349-1.3c.791-.863,1.566-1.755,2.308-2.656l3.8,3.8c-.879.733-1.751,1.5-2.6,2.276a19.643,19.643,0,0,0-1.962,2.136H14.552A6.578,6.578,0,0,0,16.128,6.7ZM.985,5.126a.119.119,0,0,1,.082-.082A5.8,5.8,0,0,1,6.723,6.526a5.758,5.758,0,0,1,1.686,4.429H7.353L3.929,7.745a.386.386,0,1,0-.527.562l2.824,2.648H2.648A5.8,5.8,0,0,1,.985,5.126ZM24.752,13.32H1.568a.8.8,0,0,1,0-1.594H24.752a.8.8,0,0,1,0,1.594ZM4.03,15.716a.386.386,0,0,0-.766.091,7.325,7.325,0,0,0,7.274,6.457.386.386,0,1,0,0-.771A6.554,6.554,0,0,1,4.03,15.716Z" transform="translate(0)"/></g></svg>