<svg xmlns="http://www.w3.org/2000/svg" width="30.749" height="30.75" viewBox="0 0 30.749 30.75"><defs><style>.a{fill:#2f61f5;}.a,.b{stroke:#fff;stroke-width:0.1px;}.b{fill:#f5532f;}</style></defs><g transform="translate(0.05 0.05)"><g transform="translate(0)"><path class="a" d="M9.163,301.506a3.909,3.909,0,1,0-6.526,0,4.266,4.266,0,0,0-2.63,3.913v2.394a.6.6,0,0,0,.6.6H11.194a.6.6,0,0,0,.6-.6v-2.394A4.266,4.266,0,0,0,9.163,301.506ZM5.9,296.646a2.711,2.711,0,1,1-2.712,2.71A2.714,2.714,0,0,1,5.9,296.646Zm4.7,10.569H1.2v-1.8a3.058,3.058,0,0,1,2.333-2.951,3.9,3.9,0,0,0,4.726,0,3.058,3.058,0,0,1,2.333,2.951Z" transform="translate(-0.007 -277.763)"/><path class="a" d="M324.248,301.506a3.908,3.908,0,1,0-6.525,0,4.266,4.266,0,0,0-2.631,3.914v2.394a.6.6,0,0,0,.6.6h10.59a.6.6,0,0,0,.6-.6v-2.394A4.266,4.266,0,0,0,324.248,301.506Zm-3.263-4.86a2.711,2.711,0,1,1-2.71,2.71A2.714,2.714,0,0,1,320.985,296.646Zm4.7,10.569h-9.393v-1.8a3.058,3.058,0,0,1,2.333-2.952,3.9,3.9,0,0,0,4.725,0,3.058,3.058,0,0,1,2.334,2.951v1.8Z" transform="translate(-296.23 -277.763)"/><path class="a" d="M49.268,15.818a.6.6,0,0,0,.921-.493l.035-1.806a3.615,3.615,0,0,0-.147-7.059A5.3,5.3,0,0,0,44.9,0H40.82a.6.6,0,0,0,0,1.2H44.9A4.1,4.1,0,0,1,48.861,6.39H40.684a3.621,3.621,0,0,0-3.565,3.017H35.51a.6.6,0,0,0-.373.13l-3.546,2.82-.046-2.382A.6.6,0,0,0,31,9.391,4.1,4.1,0,0,1,31.36,1.2h4.084a.6.6,0,1,0,0-1.2H31.36a5.3,5.3,0,0,0-1,10.509l.06,3.082a.6.6,0,0,0,.971.457l4.33-3.443h1.4a3.621,3.621,0,0,0,3.565,3.017h5.153Zm-11-5.812a2.421,2.421,0,0,1,2.418-2.418H49.37a2.418,2.418,0,0,1,.213,4.827.6.6,0,0,0-.546.585l-.024,1.233-2.678-1.714a.6.6,0,0,0-.323-.094H40.684a2.421,2.421,0,0,1-2.418-2.418Z" transform="translate(-24.497 0)"/><path class="b" d="M276.829,157.136a.6.6,0,1,0,.6.6v0A.6.6,0,0,0,276.829,157.136Z" transform="translate(-259.694 -147.729)"/><path class="b" d="M333.576,157.136a.6.6,0,1,0,.6.6v0A.6.6,0,0,0,333.576,157.136Z" transform="translate(-313.044 -147.729)"/><path class="b" d="M390.295,158.334a.6.6,0,0,0,.6-.6v0a.6.6,0,1,0-.6.6Z" transform="translate(-366.368 -147.729)"/><path class="a" d="M218.382,1.2h0a.6.6,0,1,0-.6-.6A.6.6,0,0,0,218.385,1.2Z" transform="translate(-204.746 0)"/></g></g></svg>