<svg xmlns="http://www.w3.org/2000/svg" width="26.25" height="26.25" viewBox="0 0 26.25 26.25"><defs><style>.a{fill:#fff;}</style></defs><g transform="translate(0 0)"><path class="a" d="M17.359,8.468A8.826,8.826,0,0,0,12.9,9.68L8.427.242a.424.424,0,0,0-.765,0L.773,14.786A8.028,8.028,0,0,0,8.061,26.25a7.98,7.98,0,0,0,4.527-1.4A8.887,8.887,0,1,0,17.359,8.468ZM8.028,25.4a7.181,7.181,0,0,1-6.49-10.256L8.044,1.412l4.137,8.733a8.863,8.863,0,0,0-.336,14.175A7.169,7.169,0,0,1,8.028,25.4Zm9.331,0A8.044,8.044,0,1,1,25.4,17.359,8.053,8.053,0,0,1,17.359,25.4Z" transform="translate(0 0)"/></g></svg>