<svg xmlns="http://www.w3.org/2000/svg" width="26.81" height="30.65" viewBox="0 0 26.81 30.65"><defs><style>.a{fill:#f5532f;}.b{fill:#2f61f5;}.c,.d{stroke:none;}.d{fill:#e4e4e4;}</style></defs><g transform="translate(-92.685 -599.088)"><g class="a" transform="translate(95.278 599.088)"><path class="c" d="M 1.251103639602661 10.16790199279785 L 0.05310968682169914 10.16679286956787 C 0.4100001752376556 4.489653587341309 5.136225700378418 0.05000397935509682 10.83622741699219 0.05000397935509682 C 16.53684616088867 0.05000397935509682 21.26358985900879 4.489140033721924 21.62050437927246 10.16564273834229 L 20.45917701721191 10.1667013168335 C 20.10468292236328 5.150021076202393 15.89498901367188 1.226953983306885 10.85462760925293 1.226953983306885 C 5.814266681671143 1.226953983306885 1.604683518409729 5.150329113006592 1.251103639602661 10.16790199279785 Z"/><path class="d" d="M 1.204622745513916 10.11785888671875 C 1.583026170730591 5.096827030181885 5.803903579711914 1.176954030990601 10.85462760925293 1.176954030990601 C 15.9056568145752 1.176954030990601 20.12678527832031 5.096080780029297 20.50565338134766 10.11665916442871 L 21.56714248657227 10.11569118499756 C 21.18593406677246 4.490824222564697 16.49275207519531 0.1000039801001549 10.83622741699219 0.1000039801001549 C 5.180319309234619 0.1000039801001549 0.4876531958580017 4.491331577301025 0.1064713150262833 10.11684226989746 L 1.204622745513916 10.11785888671875 M 1.297817230224609 10.21794414520264 L 1.296617269515991 10.21794414520264 L -2.749023451542598e-06 10.2167444229126 C 0.3321672379970551 4.487143993377686 5.092567443847656 3.979949724453036e-06 10.83622741699219 3.979949724453036e-06 C 16.58111763000488 3.979949724453036e-06 21.34145736694336 4.487224102020264 21.67361640930176 10.21559429168701 L 20.41247749328613 10.2167444229126 C 20.0827465057373 5.203244209289551 15.88499736785889 1.276953935623169 10.85462760925293 1.276953935623169 C 5.82539701461792 1.276953935623169 1.627577304840088 5.203783988952637 1.297887206077576 10.21676445007324 L 1.297817230224609 10.21794414520264 Z"/></g><g transform="translate(92.685 602.92)"><path class="b" d="M26.472,25.981H23.059a3.047,3.047,0,0,0-.851-5c-.04-.018.269.075-4.691-1.376,0-.546.006-1.019.013-1.434h3.019a2.026,2.026,0,0,0,1.58-3.287l-.8-1a.419.419,0,0,0-.654.523l.8,1a1.187,1.187,0,0,1-.926,1.926c-6.908,0-6.428.038-6.554-.088s-.089.106-.089-4.061c.63.323.837,1.7.838,2.4a.419.419,0,0,0,.419.419h3.691a.419.419,0,0,0,.329-.678l-2.015-2.566a.419.419,0,0,0-.659.517l.623.794a10.488,10.488,0,0,0-.237,1.1H15.563c-.11-1.426-.666-2.968-2.076-2.89-1.411-.078-1.966,1.461-2.076,2.89H10.078a10.489,10.489,0,0,0-.237-1.1l.623-.794a.419.419,0,1,0-.659-.517L7.79,15.328a.419.419,0,0,0,.329.678h3.691a.419.419,0,0,0,.419-.419c0-.7.209-2.078.838-2.4,0,4.161.037,3.933-.087,4.058s.382.09-6.557.09A1.187,1.187,0,0,1,5.5,15.409l3.4-4.248a4.983,4.983,0,0,1,2.913-.933c3.407,0,4.652-.214,6.252.911l.478.6a.419.419,0,0,0,.655-.523,4.961,4.961,0,0,0-.6-.722,5.843,5.843,0,0,0-3.162-1.1,4.8,4.8,0,0,0,.789-1.482,6.711,6.711,0,0,0,.572-2.7A2.974,2.974,0,0,0,15.35,2.7c0-.863.1-1.507-.546-2.151a1.866,1.866,0,0,0-3.181,1.319V2.7a2.974,2.974,0,0,0-1.444,2.517,6.683,6.683,0,0,0,.572,2.7A4.735,4.735,0,0,0,11.54,9.4a5.816,5.816,0,0,0-3.186,1.122c-.068.05.151-.211-3.51,4.367a2.025,2.025,0,0,0,1.58,3.288H9.442c.008.414.012.888.013,1.434C4.488,21.059,4.8,20.964,4.764,20.982a3.046,3.046,0,0,0-.849,5H.5a.419.419,0,0,0,0,.838H26.472a.419.419,0,0,0,0-.838ZM17.791,14.914l.2.254h-.248C17.758,15.081,17.774,15,17.791,14.914Zm-8.61,0c.017.083.033.167.048.254H8.981ZM12.46,1.864a1.028,1.028,0,0,1,1.751-.726c.352.353.3.715.3,1.179a3.6,3.6,0,0,0-2.052,0V1.864Zm-.736,1.8a2.617,2.617,0,0,1,4.056.728,3.017,3.017,0,0,0-2.453.613,1.917,1.917,0,0,1-2.311.221A2.081,2.081,0,0,1,11.725,3.665ZM11.1,6.172a2.67,2.67,0,0,0,2.686-.462,2.171,2.171,0,0,1,2.173-.4,7.262,7.262,0,0,1-.872,3.113,1.8,1.8,0,0,1-3.195,0A8.492,8.492,0,0,1,11.1,6.172Zm-.977,18.546c-.512.256-1.116.467-1.329,1.255H8.127V24.22ZM9.7,25.973c.147-.218.155-.186,1.808-1.012.009,0,.029-.016.043-.025.786-.524.9-.653,1.3-.653a.963.963,0,0,1,.915.66l.045.137a.419.419,0,0,0,.5.274l4.535-1.134v1.753H9.7ZM3.794,23.765A2.208,2.208,0,0,1,5.08,21.759l4.855-1.42h4.551a.419.419,0,0,0,0-.838H10.293c0-.5-.006-.94-.013-1.328h2.484a1.136,1.136,0,0,0,.722-.258,1.136,1.136,0,0,0,.722.258h2.484c-.01.575-.013,1.174-.013,1.749a.419.419,0,0,0,.072.233c.122.18-.189.045,5.142,1.6a2.208,2.208,0,0,1-.921,4.214H19.683V24.01l.4-.1a.419.419,0,0,0-.2-.813l-5.418,1.354a1.828,1.828,0,0,0-2.652-.7l-.574.382L7.087,23.1a.419.419,0,0,0-.2.813l.4.1v1.962H6a2.21,2.21,0,0,1-2.208-2.208Z" transform="translate(-0.081 0)"/><path class="b" d="M370.918,236.844a.419.419,0,0,0,.653-.525l-.066-.082a.419.419,0,0,0-.653.525Z" transform="translate(-351.35 -223.719)"/></g></g></svg>