<svg xmlns="http://www.w3.org/2000/svg" width="24.952" height="24.774" viewBox="0 0 24.952 24.774">
  <g id="Group_159526" data-name="Group 159526" transform="translate(-257.1 -917.399)">
    <path id="stay-home" d="M.153,8.63A.928.928,0,0,1,.419,7.346L11.367.156a.928.928,0,0,1,1.021,0l3.478,2.3V1.812a.928.928,0,0,1,.928-.928H20.5a.928.928,0,0,1,.928.928V6.118l1.9,1.224A.928.928,0,1,1,22.32,8.9l-.888-.574v2.438a.928.928,0,0,1-1.856,0V2.74H17.721V4.178a.928.928,0,0,1-1.439.774L11.875,2.042,1.438,8.9A.928.928,0,0,1,.153,8.63Zm23.6,7.609v6.587a.928.928,0,0,1-1.38.81l-2.943-1.645H12.181A10.135,10.135,0,0,1,5.019,19.1L.832,14.979a2.784,2.784,0,1,1,3.9-3.971l3.224,3.158a2.856,2.856,0,0,0,1.954.867h.362a2.8,2.8,0,0,1,2.7-2.134h3.647a7.009,7.009,0,0,1,4.334,1.029l2.368,1.532a.928.928,0,0,1,.424.779Zm-1.856.5-1.942-1.257a5.238,5.238,0,0,0-3.329-.733H12.978a.956.956,0,0,0-.93.957.938.938,0,0,0,.93.945H16.74a.928.928,0,1,1,0,1.856H12.978a2.788,2.788,0,0,1-2.527-1.624H9.913a4.719,4.719,0,0,1-3.254-1.4L3.435,12.332a.922.922,0,0,0-.651-.268H2.776a.921.921,0,0,0-.653.278.931.931,0,0,0,.011,1.314L6.32,17.775a8.291,8.291,0,0,0,5.861,2.361h7.488a.928.928,0,0,1,.453.118l1.774.991v-4.5ZM11.18,6.729a.464.464,0,0,0-.464-.464H9.788a.464.464,0,0,0-.464.464v.928a.464.464,0,0,0,.464.464h.928a.464.464,0,0,0,.464-.464Zm3.2,0a.464.464,0,0,0-.464-.464h-.928a.464.464,0,0,0-.464.464v.928a.464.464,0,0,0,.464.464h.928a.464.464,0,0,0,.464-.464Zm-.464,2.783h-.928a.464.464,0,0,0-.464.464V10.9a.464.464,0,0,0,.464.464h.928a.464.464,0,0,0,.464-.464V9.977A.464.464,0,0,0,13.917,9.513Zm-3.2,0H9.788a.464.464,0,0,0-.464.464V10.9a.464.464,0,0,0,.464.464h.928a.464.464,0,0,0,.464-.464V9.977A.464.464,0,0,0,10.716,9.513Z" transform="translate(257.799 917.919)" fill="#2f61f5" stroke="#fff" stroke-width="1"/>
    <path id="Icon_awesome-heart" data-name="Icon awesome-heart" d="M6.809,2.7a2.014,2.014,0,0,0-2.749.2l-.29.3-.29-.3A2.014,2.014,0,0,0,.731,2.7,2.115,2.115,0,0,0,.586,5.761L3.436,8.7a.462.462,0,0,0,.667,0l2.85-2.943A2.114,2.114,0,0,0,6.809,2.7Z" transform="translate(265.904 921.94)" fill="#f5532f" stroke="#fff" stroke-width="1"/>
  </g>
</svg>
