<svg xmlns="http://www.w3.org/2000/svg" width="25.999" height="30" viewBox="0 0 25.999 30"><defs><style>.a{fill:#2f61f5;}.b{fill:#f5532f;}</style></defs><path class="a" d="M0,9V22.5A2.5,2.5,0,0,0,2.5,25h5a.508.508,0,0,1,.4.2l3.946,5.26a1.5,1.5,0,0,0,2.324-.02L18.1,25.2a.509.509,0,0,1,.4-.2h5A2.5,2.5,0,0,0,26,22.5V9a2.5,2.5,0,0,0-2.5-2.5H20.224A7.5,7.5,0,0,0,5.77,6.5H2.5A2.5,2.5,0,0,0,0,9ZM12.685,2.007A6.5,6.5,0,0,1,19.5,8.5a6.425,6.425,0,0,1-2.059,4.738,6.35,6.35,0,0,0-1.94,4.646V18.5h-5v-.531a6.54,6.54,0,0,0-1.968-4.757,6.494,6.494,0,0,1,4.154-11.2ZM14.5,22h-3a1,1,0,0,1-1-1V19.5h5V21A1,1,0,0,1,14.5,22ZM1,9A1.5,1.5,0,0,1,2.5,7.5H5.573c-.014.1-.033.207-.043.313a7.464,7.464,0,0,0,2.313,6.125A5.537,5.537,0,0,1,9.5,17.968V21A2,2,0,0,0,11,22.928V23.5a.5.5,0,1,0,1,0V23h2v.5a.5.5,0,0,0,1,0v-.571A2,2,0,0,0,16.5,21V17.884a5.344,5.344,0,0,1,1.623-3.916A7.414,7.414,0,0,0,20.5,8.5a7.611,7.611,0,0,0-.073-1H23.5A1.5,1.5,0,0,1,25,9V22.5A1.5,1.5,0,0,1,23.5,24h-5a1.514,1.514,0,0,0-1.2.6l-3.914,5.22a.535.535,0,0,1-.756.02L8.7,24.6A1.513,1.513,0,0,0,7.5,24h-5A1.5,1.5,0,0,1,1,22.5Z" transform="translate(0 -0.999)"/><path class="a" d="M23.5,29a.5.5,0,0,0-.5.5V31a.5.5,0,1,0,1,0V29.5A.5.5,0,0,0,23.5,29Z" transform="translate(-11.5 -15)"/><path class="a" d="M23,24a.5.5,0,1,0,1,0v-.5a.5.5,0,0,0-1,0Z" transform="translate(-11.5 -12)"/><path class="a" d="M27.5,31.5A.5.5,0,0,0,28,31V29.5a.5.5,0,1,0-1,0V31A.5.5,0,0,0,27.5,31.5Z" transform="translate(-13.5 -15)"/><path class="a" d="M27.5,24.5A.5.5,0,0,0,28,24v-.5a.5.5,0,0,0-1,0V24A.5.5,0,0,0,27.5,24.5Z" transform="translate(-13.5 -12)"/><path class="b" d="M7,5a.5.5,0,0,0,.312-.89l-2.5-2a.5.5,0,1,0-.625.781l2.5,2A.5.5,0,0,0,7,5Z" transform="translate(-2 -1.499)"/><path class="b" d="M41.812,4.89l2.5-2a.5.5,0,0,0-.625-.781l-2.5,2a.5.5,0,0,0,.625.781Z" transform="translate(-20.5 -1.499)"/><path class="b" d="M4.109,33.812a.5.5,0,0,0,.7.078l2.5-2a.5.5,0,1,0-.625-.781l-2.5,2a.5.5,0,0,0-.078.7Z" transform="translate(-2 -16)"/><path class="b" d="M43.687,33.89a.5.5,0,0,0,.625-.781l-2.5-2a.5.5,0,0,0-.625.781Z" transform="translate(-20.5 -16)"/><path class="a" d="M16.4,9.99a.488.488,0,0,0,.1.01.5.5,0,0,0,.49-.4,3.967,3.967,0,0,1,2.2-2.633.5.5,0,1,0-.381-.924,4.91,4.91,0,0,0-2.8,3.367A.5.5,0,0,0,16.4,9.99Z" transform="translate(-8 -3.499)"/><path class="b" d="M4.5,18H6a.5.5,0,0,0,0-1H4.5a.5.5,0,0,0,0,1Z" transform="translate(-2 -9)"/><path class="b" d="M43.5,18H45a.5.5,0,1,0,0-1H43.5a.5.5,0,0,0,0,1Z" transform="translate(-21.5 -9)"/></svg>