<svg xmlns="http://www.w3.org/2000/svg" width="32.194" height="30.65" viewBox="0 0 32.194 30.65"><defs><style>.a{fill:#2f61f5;}.b{fill:#f5532f;}</style></defs><path class="a" d="M32.155,28.683A3.756,3.756,0,0,0,28.974,25.5v-.975a4.736,4.736,0,0,0-4.561-4.883,4.754,4.754,0,0,0-4.561,4.737h.031l-.031.005V34.96a5.9,5.9,0,0,1-5.634,6.125A5.9,5.9,0,0,1,8.585,34.96v-.916c.778,0,1.61-.564,1.61-2.146V30.548a7.609,7.609,0,0,0,5.9-7.19V22.24H15.023L15,15.256a2.685,2.685,0,0,0-2.207-2.626,1.6,1.6,0,1,0-.036,1.094,1.61,1.61,0,0,1,1.169,1.536l.024,6.98H12.877v1.134a4.267,4.267,0,0,1-3.088,4,4.879,4.879,0,0,1-2.951,0,4.264,4.264,0,0,1-3.082-4V22.24H2.146V15.264a1.61,1.61,0,0,1,1.191-1.547,1.617,1.617,0,1,0-.033-1.09,2.683,2.683,0,0,0-2.231,2.637V22.24H0v1.116a7.609,7.609,0,0,0,5.9,7.192V31.9c0,1.582.832,2.146,1.61,2.146v.916a6.973,6.973,0,0,0,6.707,7.2,6.975,6.975,0,0,0,6.707-7.2V24.412a3.672,3.672,0,0,1,3.488-3.693,3.663,3.663,0,0,1,3.488,3.81V25.5a3.756,3.756,0,1,0,4.254,3.181ZM11.268,13.655a.537.537,0,1,1,.537-.537A.537.537,0,0,1,11.268,13.655ZM4.829,12.582a.537.537,0,1,1-.537.537A.537.537,0,0,1,4.829,12.582ZM1.073,23.356v-.043h1.61v.061A5.331,5.331,0,0,0,6.513,28.4a5.97,5.97,0,0,0,3.6,0,5.332,5.332,0,0,0,3.833-5.024v-.061h1.073v.043A6.577,6.577,0,0,1,9.551,29.6a7.654,7.654,0,0,1-2.264.111,7.007,7.007,0,0,1-.741-.112A6.575,6.575,0,0,1,1.073,23.356Zm6.439,9.615c-.483,0-.537-.751-.537-1.073V30.759c.043.005.087.008.13.012l.161.015c.254.023.51.038.768.038h.027c.258,0,.513-.016.765-.038l.166-.015c.042,0,.086-.006.129-.012V31.9c0,.322-.054,1.073-.537,1.073ZM28.437,31.9a2.683,2.683,0,1,1,2.683-2.683A2.683,2.683,0,0,1,28.437,31.9Z" transform="translate(0 -11.508)"/><g transform="translate(26.828 16.226)"><g transform="translate(0 0)"><path class="b" d="M401.61,251.515a1.61,1.61,0,1,0,1.61,1.61A1.61,1.61,0,0,0,401.61,251.515Zm0,2.146a.537.537,0,1,1,.536-.537A.537.537,0,0,1,401.61,253.661Z" transform="translate(-400 -251.515)"/></g></g></svg>