<svg xmlns="http://www.w3.org/2000/svg" width="144.836" height="173.89" viewBox="0 0 144.836 173.89"><defs><style>.a{fill:#ed9e8e;}.b,.c,.e{fill:#fff;}.c,.e{stroke:#fff;}.c{opacity:0.999;}.d{fill:#d07c85;}</style></defs><g transform="translate(-50.819 -29.17)"><g transform="translate(50.819 29.672)"><g transform="translate(0)"><path class="a" d="M519.371,211.119c18.166,7.317,31.421,25.542,32.783,45.079.412,5.9-.248,12.082-3.252,17.182s-8.718,8.878-14.613,8.338c-4.611-.423-8.589-3.276-12.312-6.028l-43.757-32.345c-3.825-2.827-7.72-5.726-10.445-9.624-2.243-3.208-4.675-9.22-2.609-13.081,1.766-3.3,7.424-5.832,10.628-7.432a54.814,54.814,0,0,1,27.743-5.623A50.9,50.9,0,0,1,519.371,211.119Z" transform="translate(-422.615 -197.632)"/><g transform="translate(0 4.222)"><path class="b" d="M308.864,329.861H307.24l-.04-5.015c-.737-14.867-7.175-21.079-10.949-23.458-4.55-2.869-5.736-3.125-9.259-3.887-.983-.213-2.206-.477-3.715-.846-.674-.165-1.351-.321-2.029-.478a40.785,40.785,0,0,1-8.535-2.649c-3.955-1.9-6.7-4.929-7.533-8.323-.864-3.522.6-7.17,1.9-10.388.188-.468.374-.931.551-1.388a3.784,3.784,0,0,0-.356-3.385,8.482,8.482,0,0,0-.6-.779,7.726,7.726,0,0,1-.918-1.263,4.413,4.413,0,0,1-.062-4.05,4.692,4.692,0,0,1,1.538-1.675A4,4,0,0,1,266.147,261c-.8-1.5-.673-3,.32-3.835,1.622-1.357,3-2.614,3.415-4.257a3.009,3.009,0,0,0,.009-1.583,17.942,17.942,0,0,1-4.527-3.892,6.9,6.9,0,0,1-1.239-6.465c.749-1.954,2.509-3.185,3.923-4.174,1.166-.815,2.374-1.585,3.543-2.33,3.258-2.076,6.335-4.036,8.653-6.947,1.838-2.309,2.841-5.089,3.9-8.033.431-1.194.876-2.429,1.38-3.62,2.513-5.938,6.557-11,10.468-15.889,4.387-5.488,12.611-10.662,15.027-12.117,12.393-7.464,22.448-7.71,33.377-7.273a62.853,62.853,0,0,1,34.054,11.322,55.5,55.5,0,0,1,3.871,86.534,120.077,120.077,0,0,0-13.063,13.012c-8.126,9.265-10.285,28.661-4.8,39.7h-1.784c-5.781-11.623-3.231-31.034,5.329-40.793a121.472,121.472,0,0,1,13.223-13.171,53.835,53.835,0,0,0-3.755-83.927,61.171,61.171,0,0,0-33.145-11.007c-12.917-.516-21.483.43-32.451,7.036-2.356,1.419-10.371,6.459-14.586,11.73-3.841,4.8-7.812,9.771-10.235,15.5-.486,1.149-.924,2.362-1.347,3.536a29.073,29.073,0,0,1-4.166,8.5c-2.491,3.129-5.831,5.257-9.061,7.315-1.154.735-2.348,1.5-3.484,2.29-1.508,1.055-2.8,2.039-3.322,3.4a5.311,5.311,0,0,0,1.015,4.868,17.291,17.291,0,0,0,4.381,3.682.833.833,0,0,1,.336.456,4.807,4.807,0,0,1,.084,2.746c-.583,2.3-2.535,3.932-3.961,5.125-.41.343-.245,1.16.082,1.774a2.407,2.407,0,0,0,1.827,1.232.833.833,0,0,1,.026,1.653,3.427,3.427,0,0,0-2.3,1.6,2.763,2.763,0,0,0,.038,2.5,6.387,6.387,0,0,0,.732.991,9.857,9.857,0,0,1,.722.937,5.476,5.476,0,0,1,.515,4.9c-.179.464-.368.934-.559,1.408-1.258,3.131-2.56,6.368-1.824,9.37.713,2.907,3.132,5.538,6.635,7.217a39.551,39.551,0,0,0,8.191,2.529c.684.158,1.368.316,2.049.483,1.487.363,2.648.615,3.671.836,3.636.787,5,1.081,9.8,4.107,4.36,2.749,7.585,7.127,9.584,13.011a43.938,43.938,0,0,1,2.141,11.8c0,.014,0,.027,0,.041Z" transform="translate(-263.773 -180.458)"/></g><g transform="translate(26.814 54.965)"><path class="b" d="M406.216,434.809a13.733,13.733,0,0,1-5.586-1.184,16.206,16.206,0,0,1-8.008-8.291.833.833,0,1,1,1.524-.671,14.525,14.525,0,0,0,7.161,7.441,12.09,12.09,0,0,0,9.617.084.833.833,0,0,1,.652,1.533A13.7,13.7,0,0,1,406.216,434.809Z" transform="translate(-392.552 -424.165)"/></g><path class="c" d="M466.986,239.7c-.838,8.155-2.976,16.366-7.666,23.089s-12.23,11.782-20.423,12.062c7.291,7.83,17.2,12.842,27.46,15.866s20.966,4.193,31.6,5.349c9.276,1.008,19.153,1.916,27.489-2.274,7.039-3.539,12-10.352,14.865-17.691s3.865-15.254,4.753-23.082c1.776-15.655,3.163-31.791-1.205-46.928a63.625,63.625,0,0,0-85.026-41.326c-3.914,1.586-13.638,5.5-14.767,10.2-.866,3.606,5.008,5.753,7.164,7.739,8.729,8.041,13.076,23.591,14.992,34.879A82.158,82.158,0,0,1,466.986,239.7Z" transform="translate(-402.434 -160.181)"/><g transform="translate(14.569 13.815)"><path class="d" d="M334.735,255.581l-.992-.314c.127-.4.26-.8.4-1.2l.984.338C334.99,254.795,334.86,255.19,334.735,255.581Zm.8-2.339-.976-.362c.144-.39.3-.786.452-1.178l.967.384C335.829,252.471,335.68,252.86,335.539,253.242Zm.913-2.3-.958-.407c.163-.383.333-.771.507-1.155l.948.429C336.779,250.186,336.612,250.568,336.452,250.943Zm1.021-2.254-.938-.451c.182-.379.371-.759.56-1.13l.928.473C337.836,247.944,337.651,248.317,337.473,248.689Zm1.123-2.2-.916-.494c.2-.367.4-.738.611-1.1l.9.515C338.992,245.761,338.79,246.125,338.6,246.485Zm1.224-2.15-.893-.536c.214-.357.436-.718.661-1.074l.88.556C340.248,243.63,340.03,243.984,339.82,244.334Zm1.321-2.093-.867-.576c.232-.349.471-.7.709-1.043l.854.6C341.6,241.555,341.368,241.9,341.141,242.242Zm1.415-2.03-.84-.615c.247-.337.5-.677.756-1.009l.826.633C343.048,239.548,342.8,239.881,342.556,240.212Zm1.506-1.964-.811-.652c.263-.328.533-.655.8-.974l.8.671C344.585,237.6,344.32,237.926,344.062,238.248Zm1.594-1.893-.781-.688c.276-.314.561-.629.845-.937l.765.706C346.206,235.738,345.927,236.047,345.656,236.355Zm1.678-1.819-.749-.723c.292-.3.59-.6.887-.9l.732.741C347.913,233.944,347.62,234.24,347.334,234.536Zm1.76-1.74-.715-.757c.3-.286.615-.574.928-.855l.7.773C349.7,232.234,349.391,232.516,349.094,232.8Zm1.838-1.656-.679-.79c.321-.276.646-.549.966-.811l.66.805C351.566,230.6,351.247,230.87,350.932,231.141Zm1.913-1.569-.641-.821c.333-.26.671-.518,1-.765l.621.836C353.5,229.064,353.172,229.317,352.845,229.572Zm1.984-1.477-.6-.85c.342-.242.691-.483,1.038-.717l.581.864C355.508,227.622,355.165,227.858,354.83,228.1Z" transform="translate(-333.743 -226.529)"/></g><g transform="translate(91.662 92.069)"><path class="d" d="M704.383,648.247c-.077-.418-.142-.843-.195-1.263l1.033-.13c.05.4.113.807.186,1.206Zm-.32-2.534c-.03-.42-.049-.849-.057-1.275l1.041-.019c.007.408.026.819.055,1.221Zm.992-2.517-1.041-.033c.013-.42.038-.848.072-1.272l1.038.084C705.091,642.381,705.068,642.792,705.055,643.2Zm.2-2.44-1.033-.133c.054-.417.117-.841.191-1.259l1.025.18C705.365,639.946,705.3,640.354,705.252,640.756Zm.42-2.415-1.017-.223c.091-.412.191-.828.3-1.235l1.006.265C705.857,637.541,705.76,637.943,705.672,638.341Zm.626-2.374-1-.306c.123-.4.257-.808.4-1.206l.983.344C706.546,635.185,706.417,635.578,706.3,635.967Zm.812-2.32-.969-.381c.152-.388.316-.782.486-1.172l.954.416C707.417,632.889,707.258,633.271,707.11,633.647Zm.985-2.255-.939-.451c.181-.377.372-.758.569-1.132l.922.483C708.456,630.656,708.27,631.026,708.095,631.392Zm1.143-2.182-.906-.513c.206-.364.422-.731.64-1.091l.89.541C709.648,628.5,709.438,628.856,709.237,629.21Zm1.281-2.108-.873-.567c.227-.35.463-.7.7-1.051l.858.59C710.971,626.414,710.74,626.759,710.518,627.1Zm1.4-2.035-.842-.612c.242-.333.5-.674.755-1.011l.827.633C712.4,624.407,712.156,624.74,711.918,625.066Zm1.5-1.965-.812-.651q.394-.492.8-.975l.8.669Q713.809,622.619,713.422,623.1Zm1.591-1.9-.784-.684q.414-.474.837-.941l.771.7Q715.42,620.737,715.013,621.2Zm1.664-1.839-.76-.712q.43-.459.867-.911l.749.724Q717.1,618.912,716.677,619.365Zm1.725-1.787-.739-.734q.442-.446.891-.885l.729.743Q718.839,617.137,718.4,617.578Zm1.773-1.743-.721-.751.219-.21q.344-.329.689-.654l.714.758q-.343.323-.683.649Zm1.811-1.709-.708-.763q.459-.426.921-.849l.7.767Q722.442,613.7,721.985,614.127Zm1.838-1.685-.7-.771q.463-.421.928-.839l.7.773Zm1.853-1.672-.7-.774.93-.835.7.775Zm1.859-1.67-.7-.774.926-.836.7.772Zm1.854-1.68-.7-.768q.461-.42.918-.843l.707.765Q729.851,607,729.389,607.419Zm1.839-1.7-.712-.759q.454-.426.9-.855l.719.753Q731.685,605.289,731.228,605.718Zm1.814-1.733-.727-.745q.445-.434.885-.873l.736.736Q733.491,603.546,733.041,603.984Z" transform="translate(-704.006 -602.366)"/></g><g transform="translate(20.826 123.596)"><path class="d" d="M381.967,773.727q-.146-.6-.3-1.208l1.009-.255q.153.608.3,1.219Zm-.611-2.408c-.114-.422-.224-.812-.336-1.19l1-.3c.115.386.227.783.343,1.214Zm-.7-2.367c-.132-.4-.268-.79-.406-1.161l.976-.362c.142.383.283.786.419,1.2Zm-.858-2.3c-.16-.379-.33-.754-.5-1.114l.937-.453c.182.376.358.767.526,1.163Zm-1.065-2.2c-.2-.36-.41-.711-.623-1.045l.876-.562c.225.351.446.722.657,1.1Zm-1.313-2.042c-.244-.327-.5-.644-.758-.941l.784-.685c.277.318.55.655.809,1Zm-1.588-1.815c-.284-.275-.587-.545-.9-.8l.66-.805c.335.275.66.563.965.858Zm-1.865-1.531c-.322-.226-.665-.448-1.018-.661l.538-.891c.373.225.735.46,1.077.7Zm-2.079-1.259c-.35-.183-.719-.366-1.1-.541l.438-.945c.394.182.779.372,1.144.564Zm-2.222-1.033c-.363-.15-.749-.3-1.147-.449l.364-.975c.409.153.806.309,1.18.463Zm-2.31-.866q-.586-.2-1.176-.391l.319-.991q.6.193,1.2.4Zm-2.362-.763q-.6-.184-1.192-.363l.3-1q.6.181,1.2.365Z" transform="translate(-363.797 -753.786)"/></g><g transform="translate(46.817 14.636)"><path class="e" d="M564.7,271.7a10.754,10.754,0,0,0-2.544-2.478,9.17,9.17,0,0,0,2.862-8.423,10.462,10.462,0,0,0-5.424-7.211,11.86,11.86,0,0,0-7.586-1.073,9.929,9.929,0,0,0,1.1-6.849,12.542,12.542,0,0,0-4.1-6.887,19.184,19.184,0,0,0-15.874-4.035,12.6,12.6,0,0,0-7.329,4.694,6.072,6.072,0,0,0-1.193-.219,6.849,6.849,0,0,0-1.552-4.433,10.792,10.792,0,0,0-4.075-3.016,13.72,13.72,0,0,0-7.909-1.125,10.583,10.583,0,0,0-6.812,4.156,8.761,8.761,0,0,0-1.328,7.459,9.429,9.429,0,0,0-7.827-.776,9.183,9.183,0,0,0-5.738,6.125,8.852,8.852,0,0,0,1.938,8.152,8.029,8.029,0,0,0,.637.615A8.963,8.963,0,0,0,494.6,271.8c.1.037.212.072.321.1a5.361,5.361,0,0,0,4.571-.478,7.93,7.93,0,0,0,1.623,6.855,9.3,9.3,0,0,0,4.5,2.912,10.15,10.15,0,0,0,2.489.418,8.584,8.584,0,0,0,4.8-1.123,6.608,6.608,0,0,0,1.956-1.8,9.921,9.921,0,0,0,1.914,5.813,8.79,8.79,0,0,0,4.48,3.142,7.953,7.953,0,0,0,2.246.333.407.407,0,0,0,.128.173,18.909,18.909,0,0,1,7.325,12.622l.025.209a4.782,4.782,0,0,0,.678,2.286,2.631,2.631,0,0,0,1.394.972,2.834,2.834,0,0,0,1.856-.073,4.428,4.428,0,0,0,2.127-2.146c.139-.254.269-.513.4-.773a10.533,10.533,0,0,1,.788-1.393,10.317,10.317,0,0,0,4.069,2.256c.136.041.269.078.4.112a9.98,9.98,0,0,0,5.337.04,8.031,8.031,0,0,0,5.522-9.664.419.419,0,0,0-.041-.085c.114-.026.227-.055.34-.09a5.425,5.425,0,0,0,3.67-4.463c.011-.09.018-.18.026-.269a.417.417,0,0,0,.125.063.425.425,0,0,0,.062.014,7.147,7.147,0,0,0,4.884-1.191,9.237,9.237,0,0,0,3.192-3.851A11.1,11.1,0,0,0,564.7,271.7Zm-28.02,29.173c-.125.25-.249.5-.383.744a3.654,3.654,0,0,1-1.705,1.773,1.969,1.969,0,0,1-2.263-.611,4.036,4.036,0,0,1-.529-1.9l-.026-.213a19.78,19.78,0,0,0-7.13-12.775,7.563,7.563,0,0,0,4.574-2.524,7.2,7.2,0,0,0,.417,2.563,8.765,8.765,0,0,0,5.611,5.185c.236.071.473.127.71.175,0,.013-.013.023-.016.037a6.861,6.861,0,0,0,1.585,5.8c.033.039.067.075.1.113A10.458,10.458,0,0,0,536.684,300.877Zm28.359-18.5a8.4,8.4,0,0,1-2.9,3.507,6.3,6.3,0,0,1-4.305,1.059.412.412,0,0,0-.29.071,6.243,6.243,0,0,0-2.183-4.44c-.007-.006-.015-.007-.021-.012a5.463,5.463,0,0,0,1.192-4.879.417.417,0,0,0-.805.213,4.451,4.451,0,0,1-6.9,4.754.416.416,0,1,0-.485.677,5.028,5.028,0,0,0,1.491.727,5.449,5.449,0,0,0,4.587-.669c.116-.08.228-.166.336-.255a.408.408,0,0,0,.06.077,5.394,5.394,0,0,1,1.861,4.647,4.641,4.641,0,0,1-3.09,3.775,4.049,4.049,0,0,1-4.479-1.556.417.417,0,0,0-.7.453,4.684,4.684,0,0,0,2.6,1.888,5.039,5.039,0,0,0,1.717.206.406.406,0,0,0,0,.183,7.2,7.2,0,0,1-4.949,8.661,9.151,9.151,0,0,1-4.889-.047,9.25,9.25,0,0,1-4.73-2.82,6.108,6.108,0,0,1-1.409-5.087.389.389,0,0,0,0-.1,6.313,6.313,0,0,0,3.219-.494,4.922,4.922,0,0,0,2.815-5.519.416.416,0,1,0-.8.228,4.065,4.065,0,0,1-2.36,4.534,6.36,6.36,0,0,1-5.557-.421,7.734,7.734,0,0,1-3.652-4.085,6.144,6.144,0,0,1,.514-5.31.416.416,0,1,0-.7-.451,6.174,6.174,0,0,0-.633,1.309.4.4,0,0,0-.039.057,6.656,6.656,0,0,1-5.749,3.888A7.723,7.723,0,0,1,517.44,284a9.438,9.438,0,0,1-1.618-7.081.406.406,0,0,0-.034-.227c.016-.065.038-.129.051-.194a.416.416,0,1,0-.816-.166,5.412,5.412,0,0,1-2.55,3.441,7.757,7.757,0,0,1-4.333,1.005,8.812,8.812,0,0,1-6.385-3.029,7.045,7.045,0,0,1-1.38-6.412,6.1,6.1,0,0,0,1.238.529l.023.007a8.459,8.459,0,0,0,4.641-.082.417.417,0,0,0-.223-.8,7.629,7.629,0,0,1-4.182.086,4.742,4.742,0,0,1-3.042-2.553,3.417,3.417,0,0,1,.622-3.682.417.417,0,1,0-.581-.6,4.219,4.219,0,0,0-.808,4.606,4.99,4.99,0,0,0,1.211,1.684,4.468,4.468,0,0,1-4.4.48,8.134,8.134,0,0,1-2.26-14.109,8.54,8.54,0,0,0,2.483,1.21,8.223,8.223,0,0,0,4.191.158.416.416,0,0,0-.187-.812,7.588,7.588,0,0,1-7.176-2.265,8,8,0,0,1-1.749-7.369,8.338,8.338,0,0,1,5.213-5.559,8.567,8.567,0,0,1,7.635,1.032.417.417,0,0,0,.58-.1,2.446,2.446,0,0,1,.245-.823,7.868,7.868,0,0,1,1.1-7.091,9.742,9.742,0,0,1,6.276-3.818,12.878,12.878,0,0,1,7.423,1.063,9.976,9.976,0,0,1,3.767,2.776,6.008,6.008,0,0,1,1.372,3.9,5.775,5.775,0,0,0-1.423.259,5.989,5.989,0,0,0-3.868,3.913.416.416,0,0,0,.277.52h0a.416.416,0,0,0,.518-.278,5.078,5.078,0,0,1,9.928,1.775.416.416,0,1,0,.831.049,5.99,5.99,0,0,0-2.272-5.012,5.776,5.776,0,0,0-1.154-.694,11.811,11.811,0,0,1,6.7-4.184,18.357,18.357,0,0,1,15.134,3.848,11.709,11.709,0,0,1,3.833,6.422,8.943,8.943,0,0,1-1.458,6.964c-.085.024-.169.046-.253.072a6.641,6.641,0,0,0-7.536-1.066.416.416,0,1,0,.389.737,5.664,5.664,0,0,1,7.681,7.6.416.416,0,0,0,.18.561.388.388,0,0,0,.071.029.417.417,0,0,0,.49-.209,6.66,6.66,0,0,0-.637-6.929.4.4,0,0,0,.095-.063,11.115,11.115,0,0,1,7.9.807,9.613,9.613,0,0,1,4.989,6.62,8.317,8.317,0,0,1-2.651,7.7.411.411,0,0,0-.094.12,11.049,11.049,0,0,0-6.914-1.485.416.416,0,1,0,.1.827,10.108,10.108,0,0,1,10.4,14.264Z" transform="translate(-488.626 -230.472)"/><path class="e" d="M608.314,329.738a4.828,4.828,0,0,1-.667,4.98.416.416,0,1,0,.638.536,5.516,5.516,0,1,0-9.2-5.917.417.417,0,0,0,.753.357,4.683,4.683,0,0,1,8.48.043Z" transform="translate(-576.051 -306.258)"/><path class="e" d="M735.447,412.274a.416.416,0,0,0-.143.821,6.785,6.785,0,0,1,5.119,4.289,6.323,6.323,0,0,1-1.437,6.457,5.988,5.988,0,0,1-6.423,1.282.416.416,0,1,0-.326.767,6.076,6.076,0,0,0,.636.229,6.878,6.878,0,0,0,6.7-1.688,7.172,7.172,0,0,0,1.634-7.322A7.539,7.539,0,0,0,735.447,412.274Z" transform="translate(-681.314 -374.415)"/><g transform="translate(24.154 29.015)"><path class="e" d="M694.368,385.964a.417.417,0,0,0-.565-.166,5.832,5.832,0,0,1-7.424-8.663,6.412,6.412,0,0,0,2.493,1.423,6.124,6.124,0,0,0,1.5.254c1.8.076,3.992-.9,4.5-2.848a.416.416,0,1,0-.806-.211c-.4,1.53-2.186,2.289-3.662,2.226a5.425,5.425,0,0,1-4.751-7.575.417.417,0,0,0-.765-.33,6.341,6.341,0,0,0,.443,5.81,6.031,6.031,0,0,0,.467.635,6.826,6.826,0,0,0-1.432,4.625l.144,1a6.789,6.789,0,0,0,3.7,4.582,6.4,6.4,0,0,0,.846.32,6.806,6.806,0,0,0,5.142-.516A.417.417,0,0,0,694.368,385.964Z" transform="translate(-667.755 -369.824)"/><path class="e" d="M612.758,407.517a.414.414,0,0,0-.525-.479,5.556,5.556,0,0,1-6.125-2,2.653,2.653,0,0,1-.62-1.934.417.417,0,0,0-.82-.146,3.447,3.447,0,0,0,.77,2.576,6.351,6.351,0,0,0,.63.728,6.386,6.386,0,0,0,6.409,1.573.416.416,0,0,0,.281-.318Z" transform="translate(-604.63 -395.787)"/></g><path class="e" d="M681.3,328.958a.416.416,0,0,0,.587.052,5.893,5.893,0,0,1,8.974,7.306.417.417,0,0,0,.17.564.431.431,0,0,0,.078.032.417.417,0,0,0,.486-.2,6.726,6.726,0,0,0-10.243-8.339A.416.416,0,0,0,681.3,328.958Z" transform="translate(-641.109 -306.788)"/></g><path class="b" d="M842.212,938.077h-5.782v-5.782h-1.059v5.782h-5.783v1.059h5.783v5.782h1.059v-5.782h5.782Z" transform="translate(-711.778 -771.53)"/></g></g></g></svg>