<svg xmlns="http://www.w3.org/2000/svg" width="222.778" height="191.558" viewBox="0 0 222.778 191.558"><defs><style>.a{opacity:0.96;}.b{fill:#fff;}.c,.h{fill:#f8c83d;}.c,.d{opacity:0.5;}.e{fill:#555;}.f{fill:#ffaa91;}.g{fill:#d68c7b;}.i,.j{fill:#2f61f5;stroke:#000;}.j{opacity:0.2;}.k,.l,.m,.o{stroke:#351003;}.k,.l,.m,.n,.o,.p{stroke-miterlimit:10;}.k{stroke-width:13.516px;}.l{stroke-width:3.862px;}.m{stroke-width:1.931px;}.n,.o,.p{fill:none;}.n{stroke:#000c00;stroke-width:0.673px;}.o{stroke-width:2.018px;}.p{stroke:#c98473;stroke-width:1.009px;}</style></defs><g transform="translate(138.426)"><g class="a" transform="translate(0)"><path d="M0,0H43.857V32.088H0Z"/><path class="b" d="M0,0H36.077V23.837H0Z" transform="translate(3.89 4.126)"/><rect class="c" width="27.591" height="16.361" transform="translate(8.133 7.241)"/></g><g transform="translate(24.92 45.479)"><rect class="d" width="27.659" height="27.189"/><rect class="b" width="21.067" height="20.197" transform="translate(3.296 3.496)"/><rect class="c" width="13.877" height="13.863" transform="translate(6.891 6.487)"/></g><g transform="translate(56.693 13.706)"><rect class="e" width="27.659" height="27.189"/><rect class="b" width="21.067" height="20.197" transform="translate(3.296 3.496)"/><rect class="c" width="13.877" height="13.863" transform="translate(6.891 6.487)"/></g></g><g transform="translate(0 171.796)"><g transform="translate(0 0)"><rect class="b" width="222.778" height="1.307" transform="translate(0 18.455)"/></g><ellipse class="b" cx="99.056" cy="4.222" rx="99.056" ry="4.222" transform="translate(17.904 8.029)"/></g><g transform="translate(25.236 82.842)"><g transform="translate(54.401 0)"><g transform="translate(38.085 80.792)"><path class="f" d="M551.426,433.855c-1.175-2.545-3.623-1.084-8.652-1.922s-4.328-3.889-7.96-5.007a3.07,3.07,0,0,0-4.191,2.515s-14.12-2.72-27.809-6.073-17.042,5.029-25.423-3.352c-1.279-1.279-2.636-2.577-4.017-3.859-2.106,1.907-4.3,3.722-6.426,5.508a49.658,49.658,0,0,1-7.311,5.534,12.717,12.717,0,0,1-1.357.608,90.643,90.643,0,0,0,21.067,8.971s30.3-.691,48.332.143c17.293.8,27.379.566,27.1-.831S552.167,435.459,551.426,433.855Z" transform="translate(-458.28 -416.156)"/><path class="g" d="M480.146,422.309a17.487,17.487,0,0,1-2.755-2.294c-1.279-1.279-2.636-2.577-4.017-3.859-2.106,1.907-4.3,3.722-6.426,5.508a49.658,49.658,0,0,1-7.311,5.534,12.717,12.717,0,0,1-1.357.608,91.225,91.225,0,0,0,14.461,6.823A28.276,28.276,0,0,0,480.146,422.309Z" transform="translate(-458.28 -416.156)"/></g><path class="h" d="M418.214,314.459c2.147-1.825,4.619-4.182,5.832-6.758.209-.445.393-.9.555-1.352-.111-.107-.223-.216-.337-.33-8.381-8.381-20.6-17.327-20.6-17.327,1.955-2.515,1.955-11.455-6.985-17.042s-8.381-20.395-8.381-20.395c7.543-6.7,16.484-15.086,14.528-24.026s-16.483-4.47-16.483-4.47-19.556,6.146-17.042,18.16c0,0-3.6,8.952-2.514,18.439,1.118,9.778,3.911,22.071,8.661,28.5,6.576,8.9,18.142,22.181,36.179,30.592A24.231,24.231,0,0,0,418.214,314.459Z" transform="translate(-366.586 -221.641)"/><path class="h" d="M419.562,376.271c-1.068-.808-1.7-1.269-1.7-1.269.809-1.041,1.281-3.184.925-5.733-9.146,2.745-18.53,4.69-27.921,6.52a111.26,111.26,0,0,0,7.613,8.965C399.664,384.6,413.86,387.295,419.562,376.271Z" transform="translate(-380.783 -307.952)"/><path class="h" d="M398.7,322.217c-5.093-3.183-7.1-9.357-7.889-14.082-4.666-.035-12.553.3-16.913,7.612-.8,1.335-2.49,1.7-3.864,2.218,1.487,7.768,3.926,15.712,7.434,20.456l.089.119c9.649-1.881,19.317-3.839,28.718-6.665A16.568,16.568,0,0,0,398.7,322.217Z" transform="translate(-368.6 -272.209)"/></g><g transform="translate(0 33.392)"><path class="f" d="M316.011,318c-7.264-4.283-51.312-16.762-56.062-15.925s-8.1,5.308-6.985,12.851,5.51,38.2-.915,45.184-15.832,7.078-16.39,8.94c-.858,2.86,9.871.559,18.811.745,8.661.181,7.171-.931,7.45-7.077s10.88-29.632,5.292-43.88c0,0,35.2,28.4,50.1,21.14C332.587,330.665,319.736,319.862,316.011,318Z" transform="translate(-235.611 -302.035)"/><path class="g" d="M366.566,320.958c-5.179-3.054-29.057-10.274-44.058-13.863a50.8,50.8,0,0,1,.225,12.7,40.383,40.383,0,0,1-.652,5.288c9.856,7.255,34.084,23.556,45.788,17.85C383.142,333.624,370.29,322.821,366.566,320.958Z" transform="translate(-286.165 -304.993)"/><g transform="translate(37.376 2.218)"><path class="h" d="M372.346,320.936c-5.037-2.971-30.558-9.882-45.6-13.561a43.035,43.035,0,0,1,.319,11.955A44.064,44.064,0,0,1,325.6,326.9c10.331,7.515,36.482,23.8,47.867,18.253C388.736,335.836,376.071,322.8,372.346,320.936Z" transform="translate(-325.597 -307.375)"/></g></g></g><g transform="translate(79.206 5.951)"><path class="g" d="M437.13,52.188l.751-4.339-.009-.008c.56-1.675,2.815-8.584,1.893-8.623-1.049-.045-3.625,7.123-3.625,7.123l-.533-.088q-.205-.1-.4-.185c.2-1.089,1.7-9.648.118-9.821-.566-.062-1.486,7.157-1.762,9.436a3.644,3.644,0,0,0-.517.016c-.585-2.032-2.561-8.63-3.527-8.571-1.141.07,1.906,9.038,1.906,9.038l-.621.536s-4.311-5.648-4.686-5.243,3.7,6.711,3.7,6.711-.1,1.63-.259,5.156-8.222,24.092-9.453,27.733-2.292,16.44-2.714,25.123c-.146,3.019-1.263,9.191-3.663,11.517a7.759,7.759,0,0,0-1.734,4.412c.839,10.449,13.914,7.668,17.211,1.163,3.034-5.985-3.052-28.556.249-38.086s5.9-28.163,5.9-28.163l3.6-3.415,3.9-2.558C441.561,49.032,437.13,52.188,437.13,52.188Z" transform="translate(-392.686 -36.246)"/><g transform="translate(0 76.738)"><path class="i" d="M365.507,252.185a15.7,15.7,0,0,0,2.925,1.236,42.067,42.067,0,0,0,12.56,2.147,60.719,60.719,0,0,0,8.541-.03,32.783,32.783,0,0,1-.245-4.575c7.543-6.705,14.866-15.167,12.91-24.107s-15.406-4.979-15.406-4.979-21.214,6.652-18.7,18.665A44.464,44.464,0,0,0,365.507,252.185Z" transform="translate(-365.507 -221.001)"/><path class="j" d="M402.2,227.323c-.847-3.87-4.049-5.226-7.408-5.521-1.614,8.911-4.76,18.925-13.773,22.775a31.213,31.213,0,0,1-14.482,2.49c-.063-.005-.125-.014-.188-.019a44.286,44.286,0,0,0-.84,5.605,15.7,15.7,0,0,0,2.925,1.236,42.067,42.067,0,0,0,12.56,2.147,60.715,60.715,0,0,0,8.541-.03,32.784,32.784,0,0,1-.245-4.576C396.831,244.725,404.154,236.263,402.2,227.323Z" transform="translate(-365.507 -221.469)"/></g></g><g transform="translate(93.156 47.305)"><g transform="translate(0 0)"><g transform="translate(0 2.306)"><path class="f" d="M420.875,142.085c-6.553-1.93-10.7,2.125-13.126,4.6s-6.977,2.28-6.977,2.28l1.535,2.966L401,153.179l.236,1.256c-4.7,5.443-.85,6.938,3.929,9.633,5.219,2.943,1.408,14.932,1.408,14.932l11.677-2.148a8.735,8.735,0,0,1,2-6.438c.669-1.7,2.354-3.881,5.776-6.639C438.116,154.033,427.428,144.016,420.875,142.085Z" transform="translate(-399.097 -141.581)"/><path class="g" d="M427.018,202.218c-.234-3.991.388-13.034.2-17.029-2.551.9-5.914,3.6-8.084,5.258-1.334,1.021-4.933-.539-6.2-1.02,6.514,5.651.509,15.372.509,15.372Z" transform="translate(-407.187 -167.076)"/></g><g transform="translate(14.2)"><g transform="translate(13.224 23.538)"><g transform="translate(0 2.971)"><path class="k" d="M471.642,200.944c7.451-1.32,4.2,9.809,2.936,12.623-2.515,5.424-1.171,9.784,5.74,10.284" transform="translate(-468.934 -200.427)"/><path class="l" d="M474.542,200.118c7.221-2.139,5.469,9.269,4.589,12.2-1.776,5.663.137,9.841,7.063,9.569" transform="translate(-470.629 -199.853)"/><path class="m" d="M477.652,200.827c5.928-1.9,4.564,8.422,3.86,11.073-1.423,5.117.179,8.91,5.878,8.7" transform="translate(-472.448 -200.287)"/><path class="l" d="M468.463,200.053c7.572.465,1.324,10.465-.681,12.89-3.943,4.656-3.86,9.186,2.682,11.286" transform="translate(-465.122 -199.97)"/></g><path d="M467.341,196.6c-.68-.795-.349-2.195.741-3.127s2.524-1.043,3.2-.248.348,2.195-.741,3.127S468.021,197.4,467.341,196.6Z" transform="translate(-466.212 -192.699)"/></g><path d="M439.408,154.758s-1.228-.679-.319-2.9c0,0-9.605-6.114-4.1-14.615,0,0,3.171-2.255,9.32-.617s10.879,8.092,9.987,13.541c-2.694,16.467-11.1,10.214-13.746,16.447,0,0-3.14-3.02-1.68-9.427" transform="translate(-433.285 -136.028)"/><path d="M459.342,150.624a16.133,16.133,0,0,1-2.037,5.95,18.224,18.224,0,0,1-8.668,6.965q-1.08.465-2.173.9l-.285,1.279c-1.46,6.408,1.68,9.427,1.68,9.427,2.646-6.233,11.052.02,13.746-16.447A11.092,11.092,0,0,0,459.342,150.624Z" transform="translate(-440.597 -144.561)"/></g></g><g transform="translate(1.675 7.705)"><g transform="translate(0 1.982)"><path class="g" d="M403.657,169.506s2.276,1.334,2.747,2.276l-2.511-1.021A3.124,3.124,0,0,1,403.657,169.506Z" transform="translate(-403.43 -165.287)"/><path class="g" d="M403.129,159.349l1.247,3.277,1.02-.235Z" transform="translate(-403.129 -159.349)"/></g><g transform="translate(7.482)"><path class="n" d="M421.356,161.61c-.839,2.012.94,3.149,2.634,1.853" transform="translate(-421.142 -158.689)"/><path class="o" d="M423.7,154.578s4,0,4.317,3.767" transform="translate(-422.64 -154.578)"/></g></g></g><g transform="translate(97.089 4.753)"><path class="f" d="M442.32,50l1.257-4.408-.009-.009c.765-1.672,3.862-8.573,2.912-8.715-1.081-.162-4.539,6.971-4.539,6.971l-.541-.15c-.135-.086-.267-.164-.4-.236.325-1.105,2.828-9.8,1.209-10.152-.58-.127-2.33,7.243-2.867,9.572a3.833,3.833,0,0,0-.537-.04c-.381-2.168-1.7-9.216-2.7-9.262-1.189-.054.973,9.566.973,9.566l-.7.486s-3.837-6.323-4.269-5.945,3.09,7.355,3.09,7.355-.279,1.676-.838,5.308-11.175,24.026-12.851,27.658-4.19,16.763-5.588,25.7c-.486,3.109-2.324,9.373-5.066,11.515a8.072,8.072,0,0,0-2.282,4.374c-.287,10.908,13.553,9.475,17.685,3.108,3.8-5.859,0-29.894,4.47-39.392s9.219-28.5,9.219-28.5l4.1-3.136,4.323-2.216C447.255,47.23,442.32,50,442.32,50Z" transform="translate(-408.566 -33.304)"/><path class="p" d="M422.715,154.524s-3.794,20.055-4.732,27.49c-.566,4.494-2.028,8.788-4.281,9.239" transform="translate(-411.569 -104.175)"/></g></svg>