<svg xmlns="http://www.w3.org/2000/svg" xmlns:xlink="http://www.w3.org/1999/xlink" width="170.321" height="155.532" viewBox="0 0 170.321 155.532"><defs><style>.a,.b,.c,.n{fill:#fff;}.b{opacity:0.9;}.c{opacity:0.8;}.d{fill:#f8e6f0;opacity:0.7;}.e,.i,.k,.m,.o,.q{fill:none;}.e{stroke:#f8e6f0;}.e,.i,.k,.m,.q,.r{stroke-linecap:round;stroke-linejoin:round;}.f{fill:#9d583b;}.g{fill:#d4957a;}.h{fill:#e3aa8c;}.i,.k,.m,.q,.r{stroke:#000;}.i{stroke-width:1.138px;}.j{clip-path:url(#a);}.k{stroke-width:1.873px;}.l{clip-path:url(#b);}.m{stroke-width:1.532px;}.n,.o{stroke:#fff;}.n,.o,.t{stroke-miterlimit:10;}.n{stroke-width:1.765px;}.o{stroke-width:1.41px;}.p,.r{fill:#f8c83d;}.q,.r{stroke-width:1.084px;}.s,.t{fill:#2f61f5;}.u{fill:#f4532f;}.v{fill:#edbbde;}.w,.x{stroke:none;}.x{fill:#2f61f5;}</style><clipPath id="a"><path class="a" d="M345.411,141.693s.285-1.645,3.063-.953c2.494.621,2.576,1.929,2.576,1.929a2.96,2.96,0,0,1-3.483,1.733C344.789,144,345.411,141.693,345.411,141.693Z" transform="translate(-345.352 -140.57)"/></clipPath><clipPath id="b"><path class="a" d="M325.041,138.438s.272-1.6-1.7-1.734a1.974,1.974,0,0,0-2.18,1.069,2.287,2.287,0,0,0,1.772,2.369C324.826,140.542,325.041,138.438,325.041,138.438Z" transform="translate(-321.163 -136.695)"/></clipPath></defs><g transform="translate(2.598 0)"><g transform="translate(11.429 59.5)"><path class="b" d="M200.956,269.666A72.434,72.434,0,1,0,59.766,292.505H197.277A72.354,72.354,0,0,0,200.956,269.666Z" transform="translate(-56.088 -197.232)"/></g><path class="c" d="M31.715,0A31.715,31.715,0,1,1,0,31.715,31.715,31.715,0,0,1,31.715,0Z" transform="translate(8.654)"/><path class="c" d="M21.48,0A21.48,21.48,0,1,1,0,21.48,21.48,21.48,0,0,1,21.48,0Z" transform="translate(113.84 53.327) rotate(-80.613)"/><circle class="d" cx="4.976" cy="4.976" r="4.976" transform="translate(153.648 68.716) rotate(-45)"/><ellipse class="d" cx="3.21" cy="3.21" rx="3.21" ry="3.21" transform="translate(0 99.774)"/></g><g transform="translate(0 12.531)"><g transform="translate(81.771 113.653)"><path d="M247.017,374.323l-10.99,29.348h23.325l4.417-12.752,2.3.373.7,12.378,22.373-.039-1.064-23.512Z" transform="translate(-236.027 -374.323)"/><line class="e" x1="8.789" y1="1.588" transform="translate(21.028 15.341)"/></g><g transform="translate(109.734 7.5)"><path class="f" d="M345.513,113.418c-1.123,7.037-10.792,11.555-15.8,10.543-6.985-1.411-11.831-7.738-10.708-14.775a12.9,12.9,0,0,1,14.776-10.708C340.815,99.6,346.79,105.416,345.513,113.418Z" transform="translate(-315.968 -94.932)"/><g transform="translate(0 18.354)"><path class="g" d="M319.236,143.6a3.89,3.89,0,0,1-4.858,2.924c-2.268-.46-3.622-3.164-3.162-5.432s2.478-2.892,4.746-2.432A4.19,4.19,0,0,1,319.236,143.6Z" transform="translate(-311.127 -138.522)"/></g><path class="h" d="M340.759,166.3l-1.443,17.227-10.685-.553,2.843-15.07Z" transform="translate(-322.114 -137.605)"/><path d="M331.714,182.111s6.536-.463,11.335-7.5l-10.076.826Z" transform="translate(-324.048 -142.822)"/><path class="h" d="M328.313,102.232s-9.128-1.156-10.349,10.883-.324,15.435,4.05,18.706c3.931,2.94,9.744,1.808,13.672-2.766a18.3,18.3,0,0,0,3.491-6.947l1.208-3S346.6,104.208,328.313,102.232Z" transform="translate(-315.105 -97.372)"/><path d="M337.9,99.771s-23.413,3.425-25.167-4.314,10.622-7.9,14.5-2.507C327.233,92.951,335.6,94.634,337.9,99.771Z" transform="translate(-312.031 -89.231)"/><path d="M373.166,114.042a7,7,0,0,0-.776,8.807l-1.875,6.431,1.4.866,3.133-3.655,1.274-7.981Z" transform="translate(-348.402 -104.803)"/><path d="M345.893,94.03s8.089-3.217,14.875,2.195c5.339,4.259-2.561,9.6-2.561,9.6l-1.3-5.154-6.983-3.144Z" transform="translate(-332.948 -91.647)"/><path d="M378.07,112s6.212-.136,6.047,6.082-9.7,13.8-9.7,13.8Z" transform="translate(-350.851 -103.523)"/><g transform="translate(21.226 22.224)"><path class="h" d="M368.138,153.487c.134,2.31,1.079,3.333,4.11,3.207,2.312-.1,4.034-2.619,3.9-4.929s-1.878-3.13-4.317-2.766A4.636,4.636,0,0,0,368.138,153.487Z" transform="translate(-368.132 -148.916)"/><path class="i" d="M377.734,156.419s-2.038-.809-3.258,2.076" transform="translate(-372.114 -153.56)"/></g><g transform="translate(0.145 12.029)"><g transform="translate(2.588)"><path class="i" d="M331.253,146.927l-1.834,2.976,1.4,1.1" transform="translate(-325.341 -137.474)"/><g transform="translate(10.01 7.034)"><g transform="translate(0 0.052)"><path class="a" d="M345.411,141.693s.285-1.645,3.063-.953c2.494.621,2.576,1.929,2.576,1.929a2.96,2.96,0,0,1-3.483,1.733C344.789,144,345.411,141.693,345.411,141.693Z" transform="translate(-345.352 -140.57)"/><g class="j"><path d="M350.627,141.984a1.81,1.81,0,1,1-1.392-2.419A1.983,1.983,0,0,1,350.627,141.984Z" transform="translate(-346.439 -139.925)"/></g></g><path class="k" d="M345.591,141.021a4.2,4.2,0,0,1,2.8-.557,3.267,3.267,0,0,1,2.809,2.117" transform="translate(-345.502 -140.429)"/></g><g transform="translate(1.004 5.482)"><g transform="translate(0 0.162)"><path class="a" d="M325.041,138.438s.272-1.6-1.7-1.734a1.974,1.974,0,0,0-2.18,1.069,2.287,2.287,0,0,0,1.772,2.369C324.826,140.542,325.041,138.438,325.041,138.438Z" transform="translate(-321.163 -136.695)"/><g class="l"><path d="M322.716,137.367c-.2,1.137.225,2.158.938,2.28s1.45-.7,1.645-1.836-.225-2.157-.938-2.28S322.911,136.231,322.716,137.367Z" transform="translate(-322.108 -135.957)"/></g></g><path class="m" d="M325.186,137.617a2.6,2.6,0,0,0-1.637-1.295,2.289,2.289,0,0,0-2.381,1.178" transform="translate(-321.166 -136.261)"/></g><path d="M351.119,125.766a8.7,8.7,0,0,1,2.853,1.241c.879.688.665,1.615-.231,1.906a8.215,8.215,0,0,1-3.051-.162c-3.118-.7-3.5-1.791-3.295-2.526C347.683,125.192,349.848,125.413,351.119,125.766Z" transform="translate(-336.596 -124.007)"/><path d="M321.828,121.545a6.25,6.25,0,0,0-2.519.387c-.89.4-1.08,1.3-.542,1.8a4.261,4.261,0,0,0,2.26.651c2.606-.029,3.19-.72,3.316-1.444C324.52,121.921,322.876,121.556,321.828,121.545Z" transform="translate(-318.467 -121.537)"/></g><g transform="translate(2.049 11.445)"><path class="a" d="M317.02,153.75l5.008-1.475,10.526,3.955s1.087,1.718.222,6.634c0,0-4.988,3.8-9.76,1.237A10.928,10.928,0,0,1,317.02,153.75Z" transform="translate(-317.02 -152.275)"/><path class="n" d="M356.923,172.9a14.838,14.838,0,0,0,5.157-4.932" transform="translate(-342.065 -162.125)"/><path class="n" d="M353.743,160.118s2.469-5.267,6.9-5.906" transform="translate(-340.069 -153.491)"/></g><g transform="translate(0 2.535)"><circle class="o" cx="4.629" cy="4.629" r="4.629" transform="translate(10.366 11.242) rotate(-89.551)"/><path class="o" d="M319.539,133.672c-.487,2.51-2.655,4.22-4.843,3.82s-3.568-2.759-3.082-5.268,2.655-4.22,4.844-3.819S320.026,131.163,319.539,133.672Z" transform="translate(-311.517 -128.346)"/><path class="o" d="M333.062,142.418a2.525,2.525,0,0,1,2.461.464" transform="translate(-325.04 -137.092)"/><line class="o" x2="2.906" y2="0.564" transform="translate(19.601 7.39)"/></g></g></g><g transform="translate(65.652 52.428)"><path class="p" d="M291.9,209.892l-5.327.825c-7.728,3.226-13.421,6.588-14.374,13.329l-6.656,47.071,41.056,5.8.239-28.909,4.708-24.726c.665-3.5-5.622-9.262-8.749-10.961l-3.078-1.43Z" transform="translate(-238.432 -209.892)"/><g transform="translate(0 0.825)"><path class="p" d="M233.055,217.173s-7.8,1.305-11.663,3.883-28.656,19.026-28.656,19.026l4.922,15.9,23.808-12.73Z" transform="translate(-192.736 -215.287)"/><g transform="translate(17.097)"><path class="p" d="M269.695,212.109l-10.11,2.438a4.75,4.75,0,0,0-3.645,3.536l-17.287,65.359,9.153.6s8.875-21.461,10.71-38.15C261.455,219.173,269.695,212.109,269.695,212.109Z" transform="translate(-238.653 -212.109)"/><line class="q" y1="11.221" x2="3.214" transform="translate(11.633 16.741)"/><path class="p" d="M300.22,212.109l-3.281.687s-4.232,1.247-8.822,8.717l2.726,1.287-3.555,2.159.044,30.825s1.641-7.431,3.27-18.775C293.206,218.871,300.22,212.109,300.22,212.109Z" transform="translate(-269.178 -212.109)"/></g></g><g transform="translate(51.774 2.427)"><path class="p" d="M344.582,216.41s-11.144,11.984-12.328,36.623,5.7,38.632,5.7,38.632l22.3,2.707s-7.333-21.246-7.89-30.778c4.188-26.12,4.286-26.312,6.968-34.522.947-2.9.191-4.993-5.705-7.964Z" transform="translate(-331.993 -216.41)"/><path class="p" d="M344.373,216.41l2.555,1.309-1.237,9.731-4.936.583,3.451,5.832-12.233,28.618S329.268,234.052,344.373,216.41Z" transform="translate(-331.784 -216.41)"/><g transform="translate(7.572 5.16)"><g transform="translate(6.479)"><path class="p" d="M383.7,234.706a144.573,144.573,0,0,1,15.884,22.823c1.727,3.492.553,8.493-2.7,10.642h0c-3.807,2.518-9.655,1.823-11.794-2.209l-13.833-18.9c-2.161-4.075-2.894-14.1,1.265-16.094h0C376.534,229.047,380.794,231.341,383.7,234.706Z" transform="translate(-369.52 -230.269)"/><line class="q" x1="5.631" y1="7.645" transform="translate(3.153 19.176)"/></g><g transform="translate(0 26.561)"><g transform="translate(0 26.498)"><path class="p" d="M365.141,380.372l2.976-3.9-5.693-3.708-2.38,3.415-3.19-.831,5.639,9.824Z" transform="translate(-355.091 -372.765)"/><line class="q" x1="7.401" y1="12.408"/></g><g transform="translate(4.059)"><path class="p" d="M395.048,310.663,374.123,336.55l-11.1-8.941,17.92-26.007Z" transform="translate(-363.021 -301.602)"/><path class="r" d="M371.989,336.493l-8.968,13.016,2.316,1.865" transform="translate(-363.021 -323.501)"/><line class="q" y1="4.172" x2="3.217" transform="translate(14.674 0.54)"/></g></g></g></g><g transform="translate(44.327 0)"><path class="p" d="M339.316,210.889l-10.024,3.852-.661-4.4,2.866-.444,7.819,1Z" transform="translate(-322.358 -209.893)"/><g transform="translate(0 0.444)"><g transform="translate(1.405)"><path class="p" d="M330.406,216.421l2.448,5.875,11.6-7.81-4.028-1.917Z" transform="translate(-324.876 -212.016)"/><path class="p" d="M321.085,215.489l-5.53,2.887,2.1-6.863,2.765-.428Z" transform="translate(-315.555 -211.085)"/></g><g transform="translate(0 4.405)"><path class="p" d="M323.621,222.915l-4.025,2.1,1.435,3.151,4.326-1.086Z" transform="translate(-316.687 -222.915)"/><path class="p" d="M318.042,232.828s-7.068,21.336,7.874,43.443l-2.363,7.9-7.2-2.979s-10.265-24.973-.017-48.48Z" transform="translate(-311.782 -229.067)"/></g></g></g></g><g transform="translate(36.752 21.528)"><path d="M186.408,146.4c-10.963-3.577-17.118-13.1-19.219-16.938a1.53,1.53,0,0,0-1.04-.766v0l-5.409-1.644-2.248,3.224-.161,2.233a34.5,34.5,0,0,1-17.144,1.567,2.54,2.54,0,0,0-2.753,1.52c-16.34,39.208-5.716,58.829,1.73,66.865l-.193,2.628,5.478,1.665a3.689,3.689,0,0,0,1.586.161c30.051-3.694,39.314-47.236,41.111-57.679A2.534,2.534,0,0,0,186.408,146.4Z" transform="translate(-124.355 -126.994)"/><path class="s" d="M152.478,127.706c2.1,3.838,8.256,13.361,19.219,16.938a2.534,2.534,0,0,1,1.737,2.834c-1.8,10.442-11.059,53.984-41.111,57.678a3.87,3.87,0,0,1-2.732-.741c-5.59-4.047-25.809-22.729-5.867-70.578a2.539,2.539,0,0,1,2.753-1.52c4.254.683,14.726,1.463,23.717-5.108A1.555,1.555,0,0,1,152.478,127.706Z" transform="translate(-115.121 -126.906)"/><g class="t" transform="translate(-115.121 -126.906)"><path class="w" d="M 132.196533203125 200.1595153808594 C 129.7793731689453 198.3304901123047 124.5812911987305 193.4901580810547 121.8536758422852 184.1568298339844 C 120.2006759643555 178.5005798339844 119.707893371582 172.0407867431641 120.3889770507812 164.9568481445312 C 121.1884689331055 156.6414794921875 123.6137237548828 147.4058837890625 127.6024627685547 137.47998046875 C 128.8671722412109 137.6182861328125 130.4105072021484 137.7274017333984 132.1318359375 137.7274017333984 C 135.5602569580078 137.7274169921875 138.8914184570312 137.3050079345703 142.0327911376953 136.4719543457031 C 144.8685302734375 135.7199554443359 147.5403137207031 134.6344146728516 150.0128173828125 133.2321014404297 C 151.3093872070312 135.1973266601562 153.0158843994141 137.4584350585938 155.1772766113281 139.7123260498047 C 159.0582122802734 143.7593383789062 163.4201354980469 146.7586669921875 168.1686553955078 148.6492919921875 C 167.0260009765625 154.5854339599609 164.3403625488281 165.9528503417969 159.0255279541016 176.6324615478516 C 155.7491760253906 183.2159118652344 151.9682922363281 188.525634765625 147.7878723144531 192.4140930175781 C 145.4666137695312 194.5732574462891 142.9891052246094 196.3175354003906 140.4241943359375 197.5984802246094 C 137.8296203613281 198.8942260742188 135.06396484375 199.7548675537109 132.196533203125 200.1595153808594 Z"/><path class="x" d="M 148.4468536376953 139.5234527587891 C 143.4633636474609 141.6141204833984 137.9441986083984 142.6972351074219 132.1318511962891 142.6972351074219 C 131.7179107666016 142.6972351074219 131.3131256103516 142.6916809082031 130.91845703125 142.6813812255859 C 118.7234191894531 175.5224456787109 128.6377410888672 190.0272979736328 133.6098022460938 194.8295135498047 C 151.4437561035156 190.4203796386719 159.6217193603516 163.7156219482422 162.4704284667969 151.47314453125 C 156.2778472900391 148.1728820800781 151.6587219238281 143.5847930908203 148.4468536376953 139.5234527587891 M 151.1201324462891 126.9055786132812 C 151.6637573242188 126.9055786132812 152.1947174072266 127.1876220703125 152.4782104492188 127.7059173583984 C 154.5786437988281 131.543701171875 160.7342834472656 141.0665283203125 171.6973571777344 144.6437072753906 C 172.9007873535156 145.0365142822266 173.6492004394531 146.2294464111328 173.4343109130859 147.4772644042969 C 171.6381378173828 157.9193115234375 162.375244140625 201.4609832763672 132.3237762451172 205.1554107666016 C 132.1782073974609 205.1733551025391 132.0325317382812 205.18212890625 131.8875274658203 205.18212890625 C 131.0663909912109 205.18212890625 130.2642974853516 204.9011535644531 129.5914916992188 204.4141235351562 C 124.0009918212891 200.3670501708984 103.7829284667969 181.6851959228516 123.7240295410156 133.8362731933594 C 124.1222686767578 132.8801422119141 125.057373046875 132.2836456298828 126.0678253173828 132.2836151123047 C 126.2033081054688 132.2836151123047 126.3400573730469 132.2943267822266 126.4771423339844 132.3163452148438 C 127.8217468261719 132.5321044921875 129.7877655029297 132.7576141357422 132.1318511962891 132.7576141357422 C 137.2033843994141 132.7576141357422 144.0449523925781 131.7021179199219 150.1942138671875 127.2088012695312 C 150.4751129150391 127.0035552978516 150.7998657226562 126.9055786132812 151.1201324462891 126.9055786132812 Z"/></g><g transform="translate(12.135 22.065)"><g transform="translate(2.28 0.564)"><path class="a" d="M174.127,217.209l-4.721-1.168a1.624,1.624,0,0,1-1.186-1.967l6.29-25.161a1.624,1.624,0,0,1,1.967-1.186L181.2,188.9a1.624,1.624,0,0,1,1.186,1.967l-6.29,25.161A1.625,1.625,0,0,1,174.127,217.209Z" transform="translate(-162.833 -187.679)"/><path class="a" d="M179.955,214.322l-1.521,6.148a1.624,1.624,0,0,1-1.966,1.186l-21.4-5.34a1.624,1.624,0,0,1-1.186-1.966L155.4,208.2a1.624,1.624,0,0,1,1.967-1.186l21.4,5.339A1.624,1.624,0,0,1,179.955,214.322Z" transform="translate(-153.833 -199.786)"/></g><path class="a" d="M168.006,215.694l-4.721-1.168a1.624,1.624,0,0,1-1.186-1.967l6.291-25.161a1.624,1.624,0,0,1,1.966-1.186l4.721,1.168a1.624,1.624,0,0,1,1.186,1.966l-6.29,25.161A1.624,1.624,0,0,1,168.006,215.694Z" transform="translate(-156.711 -186.164)"/><path class="a" d="M173.833,212.807l-1.521,6.148a1.624,1.624,0,0,1-1.966,1.186l-21.4-5.34a1.624,1.624,0,0,1-1.186-1.966l1.521-6.148a1.624,1.624,0,0,1,1.967-1.186l21.4,5.339A1.624,1.624,0,0,1,173.833,212.807Z" transform="translate(-147.711 -198.271)"/></g></g><g transform="translate(28.23)"><g transform="translate(34.856 12.659)"><path class="u" d="M186.529,111.762l5.188-2-.437-1.227-5.434.962Z" transform="translate(-185.845 -106.507)"/><path class="u" d="M201.4,107.027a1.982,1.982,0,1,1,2.263-1.654A1.982,1.982,0,0,1,201.4,107.027Z" transform="translate(-194.555 -103.086)"/></g><g transform="translate(32.431 29.3)"><path class="u" d="M180.671,147.779l4.336,3.48-.789,1.037-4.886-2.566Z" transform="translate(-179.332 -147.779)"/><path class="u" d="M193.767,156.126a1.982,1.982,0,1,0,1.654,2.263A1.983,1.983,0,0,0,193.767,156.126Z" transform="translate(-186.957 -153.003)"/></g><g transform="translate(0 25.364)"><path class="u" d="M106.176,137.207l-5.188,2,.437,1.227,5.434-.962Z" transform="translate(-97.729 -137.207)"/><path class="u" d="M94.521,140.7a1.982,1.982,0,1,1-2.263,1.654A1.982,1.982,0,0,1,94.521,140.7Z" transform="translate(-92.234 -139.383)"/></g><g transform="translate(3.069 6.914)"><path class="u" d="M112.365,99.016l-4.336-3.48.789-1.037,4.886,2.566Z" transform="translate(-105.216 -91.952)"/><path class="u" d="M102.153,91.6a1.982,1.982,0,1,0-1.654-2.263A1.982,1.982,0,0,0,102.153,91.6Z" transform="translate(-100.475 -87.658)"/></g><g transform="translate(24.863 34.606)"><path class="u" d="M159.007,162.713l2,5.188,1.227-.437-.962-5.435Z" transform="translate(-159.007 -162.029)"/><path class="u" d="M162.5,177.584a1.982,1.982,0,1,1,1.654,2.263A1.982,1.982,0,0,1,162.5,177.584Z" transform="translate(-161.184 -170.739)"/></g><g transform="translate(7.855 32.351)"><path class="u" d="M124.687,157.311l-3.48,4.336-1.037-.789,2.566-4.886Z" transform="translate(-117.623 -155.972)"/><path class="u" d="M117.27,170.407a1.982,1.982,0,1,0-2.263,1.654A1.983,1.983,0,0,0,117.27,170.407Z" transform="translate(-113.329 -163.597)"/></g><g transform="translate(30.296 2.63)"><path class="u" d="M173.6,88.043l3.48-4.336,1.037.789-2.566,4.886Z" transform="translate(-173.599 -80.894)"/><path class="u" d="M181.947,77.831a1.982,1.982,0,1,0,2.263-1.654A1.982,1.982,0,0,0,181.947,77.831Z" transform="translate(-178.824 -76.153)"/></g><g transform="translate(15.937)"><path class="u" d="M143.712,83.032l-2-5.188-1.227.437.962,5.434Z" transform="translate(-138.457 -74.584)"/><path class="u" d="M138.977,71.376a1.982,1.982,0,1,1-1.654-2.263A1.982,1.982,0,0,1,138.977,71.376Z" transform="translate(-135.036 -69.089)"/></g><ellipse class="u" cx="15.131" cy="15.131" rx="15.131" ry="15.131" transform="translate(7.858 6.589)"/><g transform="translate(12.807 12.656)"><path class="v" d="M127.139,112.613a2.574,2.574,0,1,0,1.244-2.914A2.275,2.275,0,0,0,127.139,112.613Z" transform="translate(-126.827 -106.993)"/><path class="v" d="M177.247,131.245a1.589,1.589,0,1,0-.269-1.937A1.4,1.4,0,0,0,177.247,131.245Z" transform="translate(-158.071 -119.001)"/><path class="v" d="M157.68,121.138a2.607,2.607,0,1,0,.947-3.066A2.3,2.3,0,0,0,157.68,121.138Z" transform="translate(-145.938 -112.144)"/><path class="v" d="M145.144,149.876a1.589,1.589,0,1,0,1.662-1.031A1.4,1.4,0,0,0,145.144,149.876Z" transform="translate(-138.247 -131.796)"/><path class="v" d="M129.016,135.472a1.589,1.589,0,1,0-1.924-.354A1.4,1.4,0,0,0,129.016,135.472Z" transform="translate(-126.63 -121.806)"/><path class="v" d="M165.6,105.922a1.589,1.589,0,1,0-1.923-.354A1.4,1.4,0,0,0,165.6,105.922Z" transform="translate(-149.592 -103.259)"/><path class="v" d="M145.368,103.774c-.077.479.394.952,1.051,1.058a1.082,1.082,0,0,0,1.33-.675c.077-.479-.394-.952-1.051-1.058A1.083,1.083,0,0,0,145.368,103.774Z" transform="translate(-138.386 -103.078)"/><path class="v" d="M158.868,140.6a1.56,1.56,0,0,0,2.034.7c.918-.282,1.5-1.053,1.29-1.721a1.561,1.561,0,0,0-2.034-.7C159.241,139.164,158.663,139.934,158.868,140.6Z" transform="translate(-146.838 -125.485)"/><path class="v" d="M143.192,130.466c-.077.479.394.952,1.051,1.058a1.082,1.082,0,0,0,1.33-.675c.077-.479-.394-.952-1.051-1.058A1.081,1.081,0,0,0,143.192,130.466Z" transform="translate(-137.02 -119.831)"/></g></g><g transform="translate(20.338 77.339)"><g transform="translate(24.003 4.212)"><path class="u" d="M136.812,297.961l2.718-3.291-.755-.656L135.5,296.7Z" transform="translate(-135.502 -291.815)"/><path class="u" d="M145.294,291.055a1.522,1.522,0,1,1,.891-1.959A1.521,1.521,0,0,1,145.294,291.055Z" transform="translate(-140.357 -288.108)"/></g><g transform="translate(28.255 18.573)"><path class="u" d="M147.085,326.86l4.211.694-.138.991-4.235.123Z" transform="translate(-146.923 -326.791)"/><path class="u" d="M158.679,326.773a1.521,1.521,0,1,0,1.959.891A1.521,1.521,0,0,0,158.679,326.773Z" transform="translate(-153.682 -326.676)"/></g><g transform="translate(5.382 25.544)"><path class="u" d="M93.3,345.4l-2.718,3.291.755.656,3.273-2.69Z" transform="translate(-88.689 -345.399)"/><path class="u" d="M86.48,353.829a1.522,1.522,0,1,1-.891,1.959A1.521,1.521,0,0,1,86.48,353.829Z" transform="translate(-85.492 -350.629)"/></g><g transform="translate(0 14.286)"><path class="u" d="M82.45,320.106l-4.211-.695.138-.991,4.235-.123Z" transform="translate(-75.558 -317.131)"/><path class="u" d="M73.095,318.111a1.522,1.522,0,1,0-1.959-.891A1.521,1.521,0,0,0,73.095,318.111Z" transform="translate(-71.039 -315.164)"/></g><g transform="translate(24.715 24.692)"><path class="u" d="M137.414,344.421l3.291,2.717.656-.755-2.69-3.273Z" transform="translate(-137.414 -343.111)"/><path class="u" d="M145.843,352.9a1.522,1.522,0,1,1,1.959.891A1.521,1.521,0,0,1,145.843,352.9Z" transform="translate(-142.644 -347.966)"/></g><g transform="translate(14.484 28.516)"><path class="u" d="M114.881,353.54l-.695,4.211-.991-.138-.123-4.235Z" transform="translate(-111.906 -353.379)"/><path class="u" d="M112.886,365.135a1.522,1.522,0,1,0-.891,1.959A1.522,1.522,0,0,0,112.886,365.135Z" transform="translate(-109.939 -360.137)"/></g><g transform="translate(18.673)"><path class="u" d="M121.373,288.205l.695-4.211.991.138.123,4.235Z" transform="translate(-121.304 -281.314)"/><circle class="u" cx="1.522" cy="1.522" r="1.522"/></g><g transform="translate(6.004 4.815)"><path class="u" d="M97.018,297.538l-3.291-2.718-.656.755,2.69,3.273Z" transform="translate(-90.872 -292.924)"/><path class="u" d="M90.111,290.715a1.521,1.521,0,1,1-1.959-.891A1.521,1.521,0,0,1,90.111,290.715Z" transform="translate(-87.165 -289.727)"/></g><ellipse class="u" cx="11.615" cy="11.615" rx="11.615" ry="11.615" transform="translate(4.702 8.489) rotate(-11.187)"/><g transform="translate(9.835 9.814)"><path class="v" d="M98.069,322.14a1.976,1.976,0,1,0-.265-2.418A1.747,1.747,0,0,0,98.069,322.14Z" transform="translate(-97.453 -312.91)"/><path class="v" d="M138.164,316.772a1.219,1.219,0,1,0-.909-1.194A1.078,1.078,0,0,0,138.164,316.772Z" transform="translate(-122.435 -310.215)"/><path class="v" d="M121.771,316.346a2,2,0,1,0-.521-2.407A1.769,1.769,0,0,0,121.771,316.346Z" transform="translate(-112.238 -309.163)"/><path class="v" d="M123.439,341.245a1.219,1.219,0,1,0,.723-1.316A1.078,1.078,0,0,0,123.439,341.245Z" transform="translate(-113.726 -326.16)"/><path class="v" d="M107.132,338.037a1.22,1.22,0,1,0-1.42.488A1.079,1.079,0,0,0,107.132,338.037Z" transform="translate(-102.099 -324.206)"/><path class="v" d="M120.476,304.494a1.219,1.219,0,1,0-1.42.487A1.078,1.078,0,0,0,120.476,304.494Z" transform="translate(-110.474 -303.152)"/><path class="v" d="M106.059,310.614a.83.83,0,0,0,1.1.312c.48-.177.764-.6.635-.952a.831.831,0,0,0-1.1-.312C106.214,309.839,105.93,310.265,106.059,310.614Z" transform="translate(-102.835 -307.19)"/><path class="v" d="M129.362,329.536a1.4,1.4,0,1,0,.215-1.637A1.2,1.2,0,0,0,129.362,329.536Z" transform="translate(-117.331 -318.366)"/><path class="v" d="M114.655,329.288a.831.831,0,0,0,1.1.312c.48-.177.764-.6.635-.952a.831.831,0,0,0-1.1-.312C114.81,328.513,114.526,328.939,114.655,329.288Z" transform="translate(-108.23 -318.91)"/></g></g><g transform="translate(0 47.265)"><g transform="translate(14.672 1.375)"><path class="a" d="M56.9,207.132l1.228-2.625-.608-.3-1.695,2.324Z" transform="translate(-55.822 -202.534)"/><path class="a" d="M60.91,201.6a1.033,1.033,0,1,1,.253-1.439A1.033,1.033,0,0,1,60.91,201.6Z" transform="translate(-57.995 -199.719)"/></g><g transform="translate(19.194 9.901)"><path class="a" d="M67.967,224.839l2.886-.259.078.675-2.763.8Z" transform="translate(-67.967 -223.85)"/><path class="a" d="M75.776,222.8a1.033,1.033,0,1,0,1.439.253A1.034,1.034,0,0,0,75.776,222.8Z" transform="translate(-72.592 -222.618)"/></g><g transform="translate(5.977 18.558)"><path class="a" d="M36.524,245.865,35.3,248.49l.608.3,1.695-2.324Z" transform="translate(-34.244 -245.865)"/><path class="a" d="M32.909,252.853a1.033,1.033,0,1,1-.253,1.439A1.033,1.033,0,0,1,32.909,252.853Z" transform="translate(-32.469 -250.133)"/></g><g transform="translate(0 12.424)"><path class="a" d="M24.339,230.608l-2.886.259-.078-.675,2.763-.8Z" transform="translate(-19.529 -229.391)"/><path class="a" d="M18.044,231.646a1.033,1.033,0,1,0-1.439-.253A1.033,1.033,0,0,0,18.044,231.646Z" transform="translate(-16.418 -229.627)"/></g><g transform="translate(18.011 15.284)"><path class="a" d="M64.788,238.148l2.625,1.228.3-.608-2.324-1.695Z" transform="translate(-64.788 -237.074)"/><path class="a" d="M71.776,242.162a1.033,1.033,0,1,1,1.439.253A1.034,1.034,0,0,1,71.776,242.162Z" transform="translate(-69.057 -239.246)"/></g><g transform="translate(12.48 19.349)"><path class="a" d="M51.15,247.991l.259,2.886-.675.078-.8-2.763Z" transform="translate(-49.933 -247.991)"/><path class="a" d="M52.188,255.8a1.033,1.033,0,1,0-.253,1.439A1.033,1.033,0,0,0,52.188,255.8Z" transform="translate(-50.169 -252.616)"/></g><g transform="translate(9.849)"><path class="a" d="M45.09,203.948l-.259-2.886.675-.078.8,2.763Z" transform="translate(-44.1 -199.138)"/><path class="a" d="M43.055,197.652a1.033,1.033,0,1,0,.253-1.439A1.033,1.033,0,0,0,43.055,197.652Z" transform="translate(-42.868 -196.026)"/></g><g transform="translate(2.338 5.317)"><path class="a" d="M30.112,214.362l-2.625-1.227-.3.608,2.324,1.695Z" transform="translate(-25.513 -212.081)"/><path class="a" d="M24.577,210.747a1.033,1.033,0,1,1-1.439-.253A1.033,1.033,0,0,1,24.577,210.747Z" transform="translate(-22.698 -210.307)"/></g><circle class="a" cx="7.886" cy="7.886" r="7.886" transform="matrix(0.321, -0.947, 0.947, 0.321, 2.404, 16.872)"/><g transform="translate(6.793 6.734)"><path class="v" d="M35.322,229.929a1.341,1.341,0,0,0,.772-2.486,1.341,1.341,0,0,0-.772,2.486Z" transform="translate(-34.662 -222.456)"/><path class="v" d="M60.5,219.912a.828.828,0,1,0-.8-.631A.732.732,0,0,0,60.5,219.912Z" transform="translate(-50.356 -216.764)"/><path class="v" d="M49.919,222.115a1.358,1.358,0,1,0-.751-1.494A1.2,1.2,0,0,0,49.919,222.115Z" transform="translate(-43.746 -217.503)"/><path class="v" d="M54.984,238.362a.828.828,0,1,0,.252-.988A.732.732,0,0,0,54.984,238.362Z" transform="translate(-47.35 -228.586)"/><path class="v" d="M43.628,239.122a.828.828,0,1,0-.851.562A.732.732,0,0,0,43.628,239.122Z" transform="translate(-39.283 -229.375)"/><path class="v" d="M46.7,214.8a.828.828,0,1,0-.851.562A.732.732,0,0,0,46.7,214.8Z" transform="translate(-41.213 -214.112)"/><path class="v" d="M38.284,221.263a.66.66,0,1,0,.255-.734A.564.564,0,0,0,38.284,221.263Z" transform="translate(-36.896 -218.05)"/><path class="v" d="M56.99,229.623a.952.952,0,1,0-.137-1.113A.813.813,0,0,0,56.99,229.623Z" transform="translate(-48.497 -222.813)"/><path class="v" d="M47.106,232.079a.66.66,0,1,0,.256-.734A.564.564,0,0,0,47.106,232.079Z" transform="translate(-42.434 -224.838)"/></g></g></g></svg>