<svg xmlns="http://www.w3.org/2000/svg" xmlns:xlink="http://www.w3.org/1999/xlink" width="141.982" height="141.561" viewBox="0 0 141.982 141.561"><defs><style>.a{fill:none;}.ac,.b,.f{fill:#fff;}.b{opacity:0.81;}.c,.d{fill:url(#a);}.d,.f{opacity:0.5;}.e{fill:#2f61f5;}.g{fill:url(#e);}.h{fill:#f8c83d;}.i{fill:#f7a16e;}.j{fill:#f0f0f0;}.k{fill:url(#f);}.l{fill:url(#g);}.m{fill:url(#h);}.n{fill:url(#i);}.o{fill:url(#j);}.p{fill:url(#k);}.q{fill:url(#l);}.r{fill:url(#m);}.s{fill:url(#n);}.t{fill:url(#o);}.u{fill:url(#p);}.v{fill:url(#q);}.w{fill:url(#r);}.x{fill:url(#s);}.y{fill:url(#t);}.z{fill:url(#u);}.aa{fill:url(#v);}.ab{fill:url(#w);}.ac{opacity:0.6;}.ad{fill:url(#x);}.ae{clip-path:url(#y);}.af{fill:url(#z);}.ag{fill:url(#aa);}.ah{fill:url(#ab);}.ai{fill:url(#ac);}.aj{fill:url(#ad);}.ak{fill:url(#ae);}.al{fill:url(#af);}.am{fill:url(#ag);}.an{fill:url(#ah);}.ao{fill:url(#ai);}.ap{fill:url(#aj);}.aq{fill:url(#ak);}.ar{fill:url(#al);}.as{fill:url(#am);}.at{fill:url(#an);}.au{fill:url(#ao);}.av{fill:url(#ap);}.aw{fill:url(#aq);}.ax{fill:url(#ar);}.ay{fill:url(#as);}.az{fill:url(#at);}.ba{fill:url(#au);}.bb{fill:url(#av);}.bc{fill:url(#aw);}.bd{fill:url(#ax);}.be{fill:url(#ay);}.bf{fill:url(#az);}.bg{fill:url(#ba);}.bh{fill:url(#bb);}.bi{fill:url(#bc);}.bj{fill:url(#bd);}.bk{fill:url(#be);}.bl{fill:url(#bf);}.bm{fill:url(#bg);}.bn{fill:url(#bh);}.bo{fill:url(#bi);}.bp{fill:url(#bj);}.bq{fill:url(#bk);}.br{fill:url(#bl);}.bs{fill:url(#bm);}.bt{fill:url(#bn);}.bu{fill:url(#bo);}.bv{fill:url(#bp);}.bw{fill:url(#bq);}.bx{fill:url(#br);}.by{fill:url(#bs);}.bz{fill:url(#bt);}.ca{fill:url(#bu);}.cb{fill:url(#bv);}.cc{fill:url(#bw);}.cd{fill:url(#bx);}.ce{fill:url(#by);}.cf{fill:url(#bz);}.cg{fill:url(#ca);}.ch{fill:url(#cb);}.ci{fill:url(#cc);}.cj{fill:url(#cd);}.ck{fill:url(#ce);}.cl{fill:url(#cf);}.cm{fill:url(#cg);}.cn{fill:url(#ch);}.co{fill:url(#ci);}.cp{fill:url(#cj);}.cq{fill:url(#ck);}.cr{fill:url(#cl);}.cs{fill:url(#cm);}.ct{fill:url(#fb);}</style><linearGradient id="a" x1="0.5" x2="0.5" y2="1" gradientUnits="objectBoundingBox"><stop offset="0" stop-color="#2f61f5"/><stop offset="1" stop-color="#18317b"/></linearGradient><linearGradient id="e" x1="-3.816" y1="0.305" x2="-2.877" y2="0.305" gradientUnits="objectBoundingBox"><stop offset="0" stop-color="#53d8ff"/><stop offset="1" stop-color="#3840f7"/></linearGradient><linearGradient id="f" x1="4.585" y1="-16.568" x2="-0.727" y2="5.343" gradientUnits="objectBoundingBox"><stop offset="0" stop-color="#f9b776"/><stop offset="1" stop-color="#f47960"/></linearGradient><linearGradient id="g" x1="5.815" y1="-10.396" x2="-0.768" y2="2.743" xlink:href="#f"/><linearGradient id="h" x1="2.717" y1="-4.669" x2="0.081" y2="1.547" xlink:href="#f"/><linearGradient id="i" x1="1.221" y1="0.001" x2="-0.25" y2="1.308" xlink:href="#f"/><linearGradient id="j" x1="-3.665" y1="-14.784" x2="2.227" y2="6.515" xlink:href="#f"/><linearGradient id="k" x1="-5.161" y1="-9.495" x2="2.438" y2="3.525" xlink:href="#f"/><linearGradient id="l" x1="-1.87" y1="-4.198" x2="1.18" y2="1.931" xlink:href="#f"/><linearGradient id="m" x1="-0.219" y1="0.076" x2="1.566" y2="1.349" xlink:href="#f"/><linearGradient id="n" x1="0.45" y1="1.124" x2="0.692" y2="-0.238" xlink:href="#f"/><linearGradient id="o" x1="0.39" y1="1.097" x2="0.61" y2="-0.26" xlink:href="#f"/><linearGradient id="p" x1="-0.028" y1="2.368" x2="1.253" y2="-2.398" xlink:href="#f"/><linearGradient id="q" x1="-0.064" y1="3.006" x2="1.079" y2="-2.345" xlink:href="#f"/><linearGradient id="r" y1="0.5" x2="1" y2="0.5" gradientUnits="objectBoundingBox"><stop offset="0" stop-color="#cb236d"/><stop offset="1" stop-color="#4c246d"/></linearGradient><linearGradient id="s" x1="-11.163" y1="0.5" x2="-10.163" y2="0.5" xlink:href="#r"/><linearGradient id="t" x1="0.491" y1="1.211" x2="0.527" y2="-0.318" xlink:href="#r"/><linearGradient id="u" x1="-12.699" y1="1.211" x2="-12.664" y2="-0.318" xlink:href="#r"/><linearGradient id="v" x1="0.402" y1="-1.419" x2="0.512" y2="0.694" gradientUnits="objectBoundingBox"><stop offset="0" stop-color="#fdf53f"/><stop offset="1" stop-color="#d93c65"/></linearGradient><linearGradient id="w" x1="-0.428" y1="-1.696" x2="1.752" y2="3.646" gradientUnits="objectBoundingBox"><stop offset="0" stop-color="#2b3582"/><stop offset="1" stop-color="#150e42"/></linearGradient><linearGradient id="x" x1="-0.11" y1="-1.683" x2="1.354" y2="3.427" xlink:href="#w"/><clipPath id="y"><path class="a" d="M1779.44,489.394a6.914,6.914,0,0,1-4.264-1.48,4.1,4.1,0,0,1-1.777-2.959c0-1.95,2.71-3.535,6.041-3.535s6.041,1.586,6.041,3.535a4.1,4.1,0,0,1-1.777,2.959A6.914,6.914,0,0,1,1779.44,489.394Zm0-7.8c-3.236,0-5.87,1.508-5.87,3.363,0,1.921,2.709,4.267,5.87,4.267s5.87-2.346,5.87-4.267C1785.31,483.1,1782.677,481.592,1779.44,481.592Z" transform="translate(-1773.399 -481.419)"/></clipPath><linearGradient id="z" x1="-543.339" y1="-42.882" x2="-540.637" y2="-42.882" xlink:href="#f"/><linearGradient id="aa" x1="-170.842" y1="-39.873" x2="-165.895" y2="-36.954" gradientUnits="objectBoundingBox"><stop offset="0" stop-color="#f9b776"/><stop offset="0.518" stop-color="#f6976b"/><stop offset="1" stop-color="#f47960"/></linearGradient><linearGradient id="ab" x1="-150.182" y1="-43.961" x2="-140.826" y2="-37.211" xlink:href="#f"/><linearGradient id="ac" x1="-166.093" y1="-93.405" x2="-160.265" y2="-86.026" xlink:href="#w"/><linearGradient id="ad" x1="-720.972" y1="-40.739" x2="-718.27" y2="-40.739" xlink:href="#f"/><linearGradient id="ae" x1="-205.707" y1="-46.735" x2="-197.993" y2="-41.688" xlink:href="#r"/><linearGradient id="af" x1="-1058.802" y1="133.202" x2="-1058.222" y2="130.06" xlink:href="#f"/><linearGradient id="ag" x1="-326.101" y1="-74.127" x2="-321.476" y2="-69.282" xlink:href="#w"/><linearGradient id="ah" x1="-703.722" y1="-30.738" x2="-700.066" y2="-37.701" xlink:href="#f"/><linearGradient id="ai" x1="-622.72" y1="87.967" x2="-614.41" y2="95.372" xlink:href="#w"/><linearGradient id="aj" x1="-2440.542" y1="-109.512" x2="-2427.863" y2="-134.21" xlink:href="#f"/><linearGradient id="ak" x1="-543.339" y1="-45.712" x2="-540.637" y2="-45.712" xlink:href="#f"/><linearGradient id="al" x1="-170.842" y1="-42.662" x2="-165.895" y2="-39.743" xlink:href="#aa"/><linearGradient id="am" x1="-150.182" y1="-46.978" x2="-140.826" y2="-40.227" xlink:href="#f"/><linearGradient id="an" x1="-166.093" y1="-99.755" x2="-160.265" y2="-92.376" xlink:href="#w"/><linearGradient id="ao" x1="-720.972" y1="-43.573" x2="-718.27" y2="-43.573" xlink:href="#f"/><linearGradient id="ap" x1="-205.707" y1="-49.908" x2="-197.993" y2="-44.86" xlink:href="#r"/><linearGradient id="aq" x1="-1058.802" y1="122.907" x2="-1058.222" y2="119.765" xlink:href="#f"/><linearGradient id="ar" x1="-326.101" y1="-78.939" x2="-321.476" y2="-74.094" xlink:href="#w"/><linearGradient id="as" x1="-703.722" y1="-41.227" x2="-700.066" y2="-48.19" xlink:href="#f"/><linearGradient id="at" x1="-622.72" y1="80.612" x2="-614.41" y2="88.017" xlink:href="#w"/><linearGradient id="au" x1="-2440.542" y1="-146.719" x2="-2427.863" y2="-171.417" xlink:href="#f"/><linearGradient id="av" x1="-536.373" y1="-42.882" x2="-533.671" y2="-42.882" xlink:href="#f"/><linearGradient id="aw" x1="-168.667" y1="-39.873" x2="-163.72" y2="-36.954" xlink:href="#aa"/><linearGradient id="ax" x1="-148.258" y1="-43.961" x2="-138.902" y2="-37.211" xlink:href="#f"/><linearGradient id="ay" x1="-163.976" y1="-93.405" x2="-158.147" y2="-86.026" xlink:href="#w"/><linearGradient id="az" x1="-711.665" y1="-40.739" x2="-708.963" y2="-40.739" xlink:href="#f"/><linearGradient id="ba" x1="-203.064" y1="-46.735" x2="-195.35" y2="-41.688" xlink:href="#r"/><linearGradient id="bb" x1="-1050.101" y1="133.202" x2="-1049.521" y2="130.06" xlink:href="#f"/><linearGradient id="bc" x1="-321.907" y1="-74.127" x2="-317.282" y2="-69.282" xlink:href="#w"/><linearGradient id="bd" x1="-697.585" y1="-30.738" x2="-693.93" y2="-37.701" xlink:href="#f"/><linearGradient id="be" x1="-615.182" y1="87.967" x2="-606.873" y2="95.372" xlink:href="#w"/><linearGradient id="bf" x1="-2419.315" y1="-109.512" x2="-2406.637" y2="-134.21" xlink:href="#f"/><linearGradient id="bg" x1="-536.373" y1="-45.712" x2="-533.671" y2="-45.712" xlink:href="#f"/><linearGradient id="bh" x1="-168.667" y1="-42.662" x2="-163.72" y2="-39.743" xlink:href="#aa"/><linearGradient id="bi" x1="-148.258" y1="-46.978" x2="-138.902" y2="-40.227" xlink:href="#f"/><linearGradient id="bj" x1="-163.976" y1="-99.755" x2="-158.147" y2="-92.376" xlink:href="#w"/><linearGradient id="bk" x1="-711.665" y1="-43.573" x2="-708.963" y2="-43.573" xlink:href="#f"/><linearGradient id="bl" x1="-203.064" y1="-49.908" x2="-195.35" y2="-44.86" xlink:href="#r"/><linearGradient id="bm" x1="-1050.101" y1="122.907" x2="-1049.521" y2="119.765" xlink:href="#f"/><linearGradient id="bn" x1="-321.907" y1="-78.939" x2="-317.282" y2="-74.094" xlink:href="#w"/><linearGradient id="bo" x1="-697.585" y1="-41.227" x2="-693.93" y2="-48.19" xlink:href="#f"/><linearGradient id="bp" x1="-615.182" y1="80.612" x2="-606.873" y2="88.017" xlink:href="#w"/><linearGradient id="bq" x1="-2419.315" y1="-146.719" x2="-2406.637" y2="-171.417" xlink:href="#f"/><linearGradient id="br" x1="-529.403" y1="-42.882" x2="-526.701" y2="-42.882" xlink:href="#f"/><linearGradient id="bs" x1="-166.492" y1="-39.873" x2="-161.546" y2="-36.954" xlink:href="#aa"/><linearGradient id="bt" x1="-146.334" y1="-43.961" x2="-136.978" y2="-37.211" xlink:href="#f"/><linearGradient id="bu" x1="-161.855" y1="-93.405" x2="-156.026" y2="-86.026" xlink:href="#w"/><linearGradient id="bv" x1="-702.324" y1="-40.739" x2="-699.622" y2="-40.739" xlink:href="#f"/><linearGradient id="bw" x1="-200.417" y1="-46.735" x2="-192.704" y2="-41.688" xlink:href="#r"/><linearGradient id="bx" x1="-1041.415" y1="133.202" x2="-1040.835" y2="130.06" xlink:href="#f"/><linearGradient id="by" x1="-317.714" y1="-74.127" x2="-313.089" y2="-69.282" xlink:href="#w"/><linearGradient id="bz" x1="-691.445" y1="-30.738" x2="-687.79" y2="-37.701" xlink:href="#f"/><linearGradient id="ca" x1="-607.621" y1="87.967" x2="-599.312" y2="95.372" xlink:href="#w"/><linearGradient id="cb" x1="-2398.044" y1="-109.512" x2="-2385.366" y2="-134.21" xlink:href="#f"/><linearGradient id="cc" x1="-529.403" y1="-45.712" x2="-526.701" y2="-45.712" xlink:href="#f"/><linearGradient id="cd" x1="-166.492" y1="-42.662" x2="-161.546" y2="-39.743" xlink:href="#aa"/><linearGradient id="ce" x1="-146.334" y1="-46.978" x2="-136.978" y2="-40.227" xlink:href="#f"/><linearGradient id="cf" x1="-161.855" y1="-99.755" x2="-156.026" y2="-92.376" xlink:href="#w"/><linearGradient id="cg" x1="-702.324" y1="-43.573" x2="-699.622" y2="-43.573" xlink:href="#f"/><linearGradient id="ch" x1="-200.417" y1="-49.908" x2="-192.704" y2="-44.86" xlink:href="#r"/><linearGradient id="ci" x1="-1041.415" y1="122.907" x2="-1040.835" y2="119.765" xlink:href="#f"/><linearGradient id="cj" x1="-317.714" y1="-78.939" x2="-313.089" y2="-74.094" xlink:href="#w"/><linearGradient id="ck" x1="-691.445" y1="-41.227" x2="-687.79" y2="-48.19" xlink:href="#f"/><linearGradient id="cl" x1="-607.621" y1="80.612" x2="-599.312" y2="88.017" xlink:href="#w"/><linearGradient id="cm" x1="-2398.044" y1="-146.719" x2="-2385.366" y2="-171.417" xlink:href="#f"/><linearGradient id="fb" x1="0.065" y1="-5.373" x2="1.106" y2="8.284" xlink:href="#r"/></defs><g transform="translate(0 0)"><path class="b" d="M587.322,570.692a54.226,54.226,0,0,1-9.515,7.766C553.164,595,524.995,590.233,516.285,588.6c-14.051-2.63-25.913-4.484-36.1-13.742-23.157-21.035-22.031-64.916-4.336-92.1,2.1-3.223,19.766-29.555,48-33.265.691-.091,1.206-.142,1.657-.19,4.367-.465,31.43-2.919,53.5,15.669a66.068,66.068,0,0,1,12.956,14.78C609.188,506.521,609.242,547.974,587.322,570.692Z" transform="translate(-462.388 -448.945)"/><g transform="translate(0 47.105)"><g transform="translate(0 0)"><path class="c" d="M522.942,1432.922s-7.751-15.852-17.1-16.282-24.344,4.1-36.516-18.115c-7.126-13.006-10.435-18.591-11.954-20.987a1.675,1.675,0,0,1,.918-2.5c7.461-2.275,32.277-8.55,44.758,4.169C517.848,1394.286,522.942,1432.922,522.942,1432.922Z" transform="translate(-457.112 -1371.473)"/><path class="d" d="M644.943,1514.746a75.129,75.129,0,0,1,8.951,3.04l1.1.446,1.086.47,1.086.471c.362.157.718.328,1.077.492l1.073.5.536.251.53.264,2.12,1.057c1.394.744,2.8,1.473,4.156,2.28l1.027.593.513.3.5.311,2.017,1.25.5.315.492.331.985.662.985.661.492.33.482.347c1.278.936,2.581,1.827,3.816,2.837.317.242.615.5.92.76s.61.511.909.773l.884.8.442.4.429.414.858.828.833.854.416.427c.137.144.268.293.4.44l.8.882a66.134,66.134,0,0,1,5.777,7.571,72.711,72.711,0,0,1,4.694,8.273c.687,1.428,1.337,2.874,1.928,4.345s1.138,2.957,1.59,4.48a.1.1,0,0,1-.2.066v0c-.262-.739-.557-1.472-.861-2.2s-.616-1.449-.945-2.164c-.656-1.43-1.345-2.845-2.083-4.234a80.72,80.72,0,0,0-4.866-8.058,71.2,71.2,0,0,0-5.808-7.373,59.377,59.377,0,0,0-6.8-6.424c-1.212-.976-2.5-1.879-3.757-2.81l-.475-.346-.486-.331-.971-.661-.971-.661-.486-.33-.5-.315c-2.62-1.72-5.325-3.3-8.065-4.828l-2.077-1.1-.52-.275-.526-.262-1.052-.526c-.351-.175-.7-.357-1.052-.526l-1.063-.5-1.063-.505-1.074-.48c-2.86-1.289-5.77-2.481-8.747-3.483h0a.06.06,0,0,1-.037-.076A.059.059,0,0,1,644.943,1514.746Z" transform="translate(-635.334 -1507.429)"/></g><g transform="translate(17.866 29.169)"><path class="c" d="M854.194,1982.032c.65.262-4.167-6.379-5.125-12.574s-3.456-16.677-9.456-22.477-11.909-5.767-18.681.785c-5.643,5.46-9.223,8.292-11.423,8.979a.86.86,0,0,0-.441,1.3c1.717,2.518,6.426,8.22,13.223,7.073,8.669-1.464,18.654-8.274,22.37-3.853s3.578,7.126,3.91,9.37S849.895,1980.3,854.194,1982.032Z" transform="translate(-808.918 -1942.737)"/><path class="d" d="M1111.144,2078.282a18.519,18.519,0,0,1,2.839-2.813,16.721,16.721,0,0,1,1.636-1.174,13.935,13.935,0,0,1,1.785-.968,11.458,11.458,0,0,1,1.94-.672,8.481,8.481,0,0,1,2.072-.23c.176.008.352.007.527.028s.354.035.523.065l1,.2.985.273.964.349a11.473,11.473,0,0,1,3.453,2.194,14.349,14.349,0,0,1,2.543,3.164l.263.431c.089.143.158.3.238.445.152.3.313.594.457.9l.409.917c.143.3.245.622.367.932a31.762,31.762,0,0,1,1.164,3.815.058.058,0,0,1-.111.035v0l-.352-.927c-.12-.307-.223-.621-.357-.923l-.379-.912c-.059-.154-.126-.3-.2-.453l-.207-.447c-.264-.6-.578-1.176-.876-1.757-.157-.287-.331-.563-.494-.843s-.345-.551-.526-.819a14.658,14.658,0,0,0-2.514-2.9,11.284,11.284,0,0,0-3.233-1.966l-.9-.316-.921-.246-.939-.182c-.155-.028-.3-.041-.457-.062s-.306-.019-.458-.03a7.655,7.655,0,0,0-1.846.183,10.748,10.748,0,0,0-1.81.555,16.549,16.549,0,0,0-1.738.823q-.847.468-1.661,1.011a29.4,29.4,0,0,0-3.1,2.406l0,0a.06.06,0,0,1-.086-.006A.061.061,0,0,1,1111.144,2078.282Z" transform="translate(-1095.783 -2065.803)"/></g></g><g transform="translate(76.094 47.105)"><g transform="translate(0 0)"><path class="e" d="M1955.471,1432.922s7.751-15.852,17.1-16.282,24.344,4.1,36.517-18.115c7.126-13.006,10.435-18.591,11.954-20.987a1.674,1.674,0,0,0-.918-2.5c-7.461-2.275-32.276-8.55-44.758,4.169C1960.565,1394.286,1955.471,1432.922,1955.471,1432.922Z" transform="translate(-1955.471 -1371.473)"/><path class="f" d="M2045.417,1514.864c-2.966,1.033-5.869,2.241-8.719,3.547l-1.072.486-1.059.51-1.06.509c-.353.17-.7.355-1.048.531l-1.05.529-.525.264-.518.277-2.072,1.109c-2.732,1.533-5.432,3.118-8.046,4.842l-.495.315-.485.331-.969.661-.97.661-.485.33-.474.346c-1.256.93-2.541,1.835-3.75,2.807a59.755,59.755,0,0,0-6.792,6.4l-.777.875-.388.438-.377.448-.752.9-.73.917c-.246.3-.482.614-.717.927s-.479.618-.709.934c-.462.631-.925,1.262-1.366,1.909a82.13,82.13,0,0,0-4.895,8.03c-.746,1.382-1.441,2.793-2.107,4.219-.334.712-.652,1.433-.961,2.156s-.611,1.453-.88,2.191v0a.1.1,0,0,1-.2-.065c.439-1.527.972-3.02,1.557-4.495s1.224-2.926,1.9-4.36a71.783,71.783,0,0,1,4.665-8.3,65.483,65.483,0,0,1,5.768-7.6l.8-.885c.134-.147.266-.3.4-.441l.416-.429.834-.856.859-.831.429-.416.443-.4.886-.8c.3-.263.608-.517.911-.775s.6-.52.922-.762c1.238-1.014,2.543-1.9,3.823-2.841l.483-.346.494-.331.986-.662.987-.661.494-.331.5-.316,2.021-1.247.506-.31.515-.3,1.03-.591c1.363-.805,2.769-1.532,4.166-2.271l2.126-1.051.532-.262.537-.249,1.076-.5c.361-.162.717-.332,1.081-.488l1.089-.465,1.089-.465,1.1-.441a72.788,72.788,0,0,1,8.978-2.977.06.06,0,0,1,.034.115Z" transform="translate(-1989.166 -1507.431)"/></g><g transform="translate(2.627 29.169)"><path class="g" d="M2007.266,1982.032c-.65.262,4.167-6.379,5.125-12.574s3.456-16.677,9.456-22.477,11.909-5.767,18.681.785c5.643,5.46,9.223,8.292,11.422,8.979a.859.859,0,0,1,.441,1.3c-1.717,2.518-6.426,8.22-13.223,7.073-8.669-1.464-18.655-8.274-22.37-3.853s-3.578,7.126-3.91,9.37S2011.565,1980.3,2007.266,1982.032Z" transform="translate(-2007.206 -1942.737)"/><path class="f" d="M2164.315,2081.547c-.474-.455-.97-.887-1.477-1.3s-1.035-.805-1.569-1.181a18.03,18.03,0,0,0-3.4-1.9,10.84,10.84,0,0,0-1.832-.577,7.757,7.757,0,0,0-1.886-.193c-.157.011-.315.01-.471.03s-.311.035-.468.063l-.95.185-.933.252-.908.322a11.327,11.327,0,0,0-3.27,2.008,14.611,14.611,0,0,0-2.516,2.953l-.271.408c-.092.134-.166.281-.251.421-.161.284-.332.564-.485.853-.292.588-.6,1.168-.856,1.774-.552,1.2-.981,2.445-1.422,3.691v0a.057.057,0,0,1-.074.036.06.06,0,0,1-.037-.072,35.209,35.209,0,0,1,1.233-3.785c.125-.309.233-.625.378-.925l.418-.909c.147-.3.311-.59.465-.886.081-.146.152-.3.242-.44l.265-.426a14.492,14.492,0,0,1,2.542-3.116,11.469,11.469,0,0,1,3.415-2.153l.953-.343.974-.267.988-.2c.167-.029.341-.043.511-.065s.343-.018.514-.028a8.37,8.37,0,0,1,2.032.222,11.316,11.316,0,0,1,1.918.65,16.344,16.344,0,0,1,3.421,2.081c.528.406,1.03.843,1.515,1.3a17.585,17.585,0,0,1,1.382,1.435.061.061,0,0,1-.087.084Z" transform="translate(-2134.428 -2068.985)"/></g></g><g transform="translate(16.912 1.658)"><g transform="translate(4.07 92.163)"><path class="h" d="M1776.369,2331.168a54.477,54.477,0,0,0,5.879.851c5.389.46,12.9,1.655,17.724-1.425,3.451-2.2,3.424-5.349,2.093-8.693a25.751,25.751,0,0,0-1.868-4.451q-1.459-2.307-3.1-4.489a95.021,95.021,0,0,0-6.905-7.811c-4.374-4.645-13.556-8-18.991-10.668-4.306-2.111-18.979-8.167-19.338-7.381-1.027,2.245-.22,4.32-.67,6.749l-2.949,15.926c-.828,4.474-1.419,8.808-.386,13.3.854,3.715,5.9,2.614,8.856,3.025a46.75,46.75,0,0,1,6.594,1.635C1767.527,2328.969,1771.916,2330.292,1776.369,2331.168Z" transform="translate(-1702.764 -2287)"/><path class="h" d="M908.47,2289.877c-9.4,5.348-24.673,13.285-32.564,20.6-3.059,2.838-6.1,5.214-5.58,9.9a10.214,10.214,0,0,0,5.965,8.015,22.921,22.921,0,0,0,8.936,1.493,74.271,74.271,0,0,0,19.332-2.551c1.6-.41,18.023-2.884,17.969-2.021.827-13.016-.743-25.924-.461-38.915A26.974,26.974,0,0,0,908.47,2289.877Z" transform="translate(-870.266 -2286.395)"/><path class="h" d="M1847.4,2696.472a5.305,5.305,0,0,0,2.027-.906c.744-.578,1.252-1.419,2-2,2.772-2.152,5.008.61,7.1,2.167,2.008,1.494,4.407,2.4,6.372,3.952s3.494,4.126,2.731,6.519c-.682,2.138-4.027-.371-4.96-1.019a12.4,12.4,0,0,0-7.6-2.452,30.764,30.764,0,0,0-3.1.451c-2.982.469-7.093.958-9.914-.292-2.011-.892-8.365-4.23-2.843-5.094l6.652-1.04C1846.372,2696.681,1846.892,2696.6,1847.4,2696.472Z" transform="translate(-1787.91 -2672.03)"/><path class="i" d="M1379,2718.814a15.074,15.074,0,0,0,5.989,1.543c.191,1.075-1.519,2.268-2.1,3.181a5.522,5.522,0,0,0-.866,4.454c-5.777-1.06-10.649-5.087-16.6-5.949a29.3,29.3,0,0,0-8.043-.058c-2.063.273-5.255,1.917-7.18.591a2.193,2.193,0,0,1-.765-2.787,2.547,2.547,0,0,1,1.648-1.059,45.973,45.973,0,0,0,16.289-7.1c1.488-1.039,4.451-1.123,5.718.406.741.894.917,2.13,1.628,3.095a12.868,12.868,0,0,0,4.277,3.68Z" transform="translate(-1324.882 -2689.195)"/></g><path class="j" d="M1494.394,1378.218c2.165,25.224,11.932,37.31,6.509,45.687,10.029,5.108,23.471,1.289,23.471,1.289-2.4-.8,7.075-26.758,7.844-46.124C1519.285,1371.806,1507.6,1372.634,1494.394,1378.218Z" transform="translate(-1458.627 -1328.259)"/><g transform="translate(0 49.959)"><g transform="translate(0 57.872)"><path class="k" d="M891.156,2597.434l4.6-3.933c-1.279-.9-6.267.667-8.242,1.638a.315.315,0,0,0,.126.6C889.555,2595.84,891.147,2595.7,891.156,2597.434Z" transform="translate(-882.404 -2593.231)"/><path class="l" d="M859.655,2646.594l-.747,1.082-2.292,3.386c-2.025-1.075-3.54-3.994-2.267-5.812a.349.349,0,0,1,.633.188C855.071,2648.09,856.526,2649.882,859.655,2646.594Z" transform="translate(-850.643 -2642.453)"/><path class="m" d="M805.065,2600.865s-4.041,5.569-8.008,8.287c-4.76,3.261-7.628.844-6.8-.2s4.473-1.678,6.588-4.61S804.3,2593.328,805.065,2600.865Z" transform="translate(-790.117 -2597.509)"/></g><path class="n" d="M1030.575,1519.335c4.277-7.274,11.559-17.136,15-19.928,1.841-22.7,3.46-34.917,8.55-39.57,3.13,6.682,2.672,9.1,3.108,16.15.269,7.344-2.166,19.254-5.466,27.779-6.068,7.581-12.548,13.92-19.5,17.917Z" transform="translate(-1018.364 -1459.837)"/></g><g transform="translate(70.234 50.811)"><g transform="translate(23.546 57.982)"><path class="o" d="M2668.135,2616.023l-4.255-3.641c1.278-.9,5.922.375,7.9,1.345a.316.316,0,0,1-.126.6C2669.735,2614.429,2668.143,2614.295,2668.135,2616.023Z" transform="translate(-2662.502 -2612.075)"/><path class="p" d="M2739.037,2660.452l.746,1.083,2.292,3.385c2.024-1.074,3.541-3.994,2.266-5.81a.348.348,0,0,0-.633.186C2743.621,2661.949,2742.166,2663.741,2739.037,2660.452Z" transform="translate(-2733.842 -2656.566)"/><path class="q" d="M2636.741,2622.585s3.48,5.058,7.446,7.776c4.76,3.262,7.628.844,6.8-.2s-4.472-1.679-6.587-4.61S2637.5,2615.048,2636.741,2622.585Z" transform="translate(-2636.741 -2618.973)"/></g><path class="r" d="M2198.245,1535.186c-4.278-7.274-11.083-15.4-14.528-18.195-1.842-22.705-2.17-35.813-7.26-40.466-3.13,6.682-3.523,9.827-3.305,16.745a75.689,75.689,0,0,0,4.473,27.041c6.069,7.581,12.843,14.586,19.8,18.583Z" transform="translate(-2173.102 -1476.525)"/></g><g transform="translate(44.129 30.529)"><path class="s" d="M1679.51,1095.779l-1.951-.713a5.229,5.229,0,0,1-4.49-4.734l-.388-11.01h-7.1l-.388,11.01a4.973,4.973,0,0,1-3.937,4.974l-2.188.529c1.569,1.277,4.695,3.012,10.4,3.012C1674.721,1098.847,1677.847,1097.145,1679.51,1095.779Z" transform="translate(-1659.066 -1079.323)"/></g><path class="t" d="M1672.2,740.291s-.536,12.95,1.074,15.109,3.757,7.015,7.513,7.554,8.4-7.369,8.889-9.2c.4-1.5.234-16.156.234-16.156S1678.644,728.42,1672.2,740.291Z" transform="translate(-1627.325 -721.304)"/><path class="u" d="M1637.685,957.018s-1.074-3.238-2.683-2.159,2.416,7.967,2.416,7.967Z" transform="translate(-1591.734 -930.476)"/><path class="v" d="M2011.978,945.945s0-4.856,2.683-2.159-2.683,6.475-2.683,6.475Z" transform="translate(-1949.926 -919.404)"/><path class="w" d="M1887.725,1004.915c-.423.229-.718.7-1.157.93a2.339,2.339,0,0,1-1.645.188c-.961-.226-2-.9-2.966-.334-.034.02-.019.093.02.087,1.288-.172,2.343.853,3.606.835a2.909,2.909,0,0,0,1.46-.307c.374-.231,1.195-.931,1.195-.931S1887.818,1004.865,1887.725,1004.915Z" transform="translate(-1826.491 -978.182)"/><path class="x" d="M1692.891,1004.915c.423.229.718.7,1.156.93a2.339,2.339,0,0,0,1.644.188c.962-.226,2-.9,2.967-.334.034.02.019.093-.02.087-1.288-.172-2.343.853-3.606.835a2.909,2.909,0,0,1-1.459-.307c-.374-.231-1.2-.931-1.2-.931S1692.8,1004.865,1692.891,1004.915Z" transform="translate(-1646.556 -978.182)"/><path class="y" d="M1894.36,928.852h0a.282.282,0,0,0,.37.27c.885-.3,3.177-.893,4.909.136,0,0-.968-2.238-5.1-.671A.282.282,0,0,0,1894.36,928.852Z" transform="translate(-1838.282 -905.226)"/><path class="z" d="M1707.417,928.852h0a.283.283,0,0,1-.37.27c-.885-.3-3.177-.893-4.909.136,0,0,.968-2.238,5.1-.671A.283.283,0,0,1,1707.417,928.852Z" transform="translate(-1655.82 -905.226)"/><path class="aa" d="M1810.093,1166.884c-.217-.2-1.281-1.136-1.75-.987a.654.654,0,0,1-1.266,0c-.468-.149-1.533.79-1.75.987l-.039.036a3.018,3.018,0,0,0,4.843,0Z" transform="translate(-1753.733 -1130.931)"/><path class="ab" d="M1648.024,634.034s.159-5.99,3.731-6.306c2.858-.252,7.64-1.515,9.871-3.3a1.491,1.491,0,0,1,2.282.5c1,1.827,1.461,6.665,1.6,9.114,0,0,4.39-10.3,1.288-15.877S1640.475,608.849,1648.024,634.034Z" transform="translate(-1603.031 -607.311)"/><path class="ac" d="M1687.168,671.3a3.8,3.8,0,0,1,.194,1.451,4.8,4.8,0,0,1-.315,1.436,5.8,5.8,0,0,1-1.763,2.322,9.574,9.574,0,0,1-1.195.834c-.205.13-.422.238-.634.355s-.434.216-.656.309a21.383,21.383,0,0,1-2.718.953,33.576,33.576,0,0,0-5.366,1.76,13.55,13.55,0,0,0-1.227.671,9.833,9.833,0,0,0-1.125.825,7.978,7.978,0,0,0-1.788,2.146l-.153-.078a7.119,7.119,0,0,1,.732-1.253c.134-.2.3-.381.451-.573.168-.174.328-.36.511-.52a10.038,10.038,0,0,1,2.392-1.644,16.445,16.445,0,0,1,2.689-1.051c.917-.277,1.839-.508,2.749-.765a22.4,22.4,0,0,0,2.669-.9,10.823,10.823,0,0,0,2.421-1.38,5.665,5.665,0,0,0,1.726-2.13,4.094,4.094,0,0,0,.242-2.715Z" transform="translate(-1625.718 -661.609)"/><path class="ac" d="M1679.413,661.215a3.105,3.105,0,0,1-.1,1.434,3.83,3.83,0,0,1-.673,1.282,6.515,6.515,0,0,1-2.294,1.7A27.831,27.831,0,0,1,1671,667.3a20.729,20.729,0,0,0-2.612.833,9.87,9.87,0,0,0-2.356,1.322,7.775,7.775,0,0,0-.992.917,7.1,7.1,0,0,0-.819,1.08,6.592,6.592,0,0,0-.949,2.544l-.171-.017a6.45,6.45,0,0,1,.8-2.719,7.66,7.66,0,0,1,1.827-2.192,9.85,9.85,0,0,1,2.453-1.451,19.3,19.3,0,0,1,2.682-.868,32.338,32.338,0,0,0,5.287-1.553,6.445,6.445,0,0,0,2.22-1.5,3.324,3.324,0,0,0,.874-2.461Z" transform="translate(-1618.768 -652.035)"/><g transform="translate(49.936)"><path class="ad" d="M1787,486.557c0,1.9-2.666,4.353-5.955,4.353s-5.955-2.448-5.955-4.353,2.666-3.449,5.955-3.449S1787,484.652,1787,486.557Z" transform="translate(-1775.003 -483.022)"/><g class="ae"><g transform="translate(11.137 -5.092)"><rect class="a" width="7.093" height="11.396"/><path class="af" d="M2039.351,382.553a1.159,1.159,0,0,1,.035-.21.551.551,0,0,0,.038-.234.269.269,0,0,0-.112-.2c-.01.063-.02.126-.03.189a.137.137,0,0,1-.023.065.047.047,0,0,1-.062.013.069.069,0,0,1-.018-.028c-.046-.107-.092-.215-.139-.322-.024-.057-.055-.121-.115-.138a2.826,2.826,0,0,0,0,.443.98.98,0,0,0,.1.282,1.48,1.48,0,0,1,.137.645c.016.241.034.483.053.724.036.449.078.9.128,1.344q.034.294.073.588l.514-.131A23.392,23.392,0,0,1,2039.351,382.553Z" transform="translate(-2036.57 -381.685)"/><g transform="translate(0 2.422)"><g transform="translate(0 4.603)"><path class="ag" d="M1993.759,526.776c-.029-.086-.117-.316-.172-.295a21.839,21.839,0,0,0,2.37-.924l-.772-.711a17.7,17.7,0,0,0-1.689.8c-.169.091-.55.205-.584.421-.028.176.09.355.132.52.064.251.13.5.194.752.02.075.283,1.028.191,1.046a1.226,1.226,0,0,0-.667.368c-.164.182.006.2.173.162a1.68,1.68,0,0,0,.491-.194,1.372,1.372,0,0,0,.237-.159c.118-.1.04-.415.053-.555a3.556,3.556,0,0,0,.05-1.207A.184.184,0,0,0,1993.759,526.776Z" transform="translate(-1992.696 -524.562)"/><path class="ah" d="M2063.45,532.452c-.1-.361-.42-.513-.688-.723-.058-.046-.1-.163-.159-.227l-.2-.239-.248-.29-.53-.456a5.273,5.273,0,0,0-1.242-1.783l-.612.481a4.019,4.019,0,0,0,1.566,1.545c.117.2.216.424.344.607a1.2,1.2,0,0,0,.476.377c.181.084.4.113.531.28.046.058.076.127.118.186a.733.733,0,0,0,.222.182.745.745,0,0,0,.389.12.051.051,0,0,0,.031-.008C2063.458,532.492,2063.455,532.47,2063.45,532.452Z" transform="translate(-2056.361 -528.25)"/><path class="ai" d="M2023.018,519.266l1.175.081.237.539a3.175,3.175,0,0,1,.671.818.818.818,0,0,1-.848.35l-.857-.7-.911.389a1.082,1.082,0,0,1-.73-.735A6.1,6.1,0,0,1,2023.018,519.266Z" transform="translate(-2020.28 -519.266)"/></g><g transform="translate(2.432)"><path class="aj" d="M2079.009,485.625a2.947,2.947,0,0,0,.158.923c.057.164.21.41.174.587a.581.581,0,0,1-.035.1.546.546,0,0,0-.047.233.272.272,0,0,0,.106.206l.036-.188a.134.134,0,0,1,.025-.065.046.046,0,0,1,.062-.011.076.076,0,0,1,.017.029q.063.163.127.327c.022.058.052.122.111.141a1.041,1.041,0,0,0-.1-.762,1.719,1.719,0,0,1-.181-.561,3.716,3.716,0,0,1-.079-.724,1.742,1.742,0,0,1-.013-.337,1.612,1.612,0,0,1,.118-.444,3.7,3.7,0,0,0,.188-.7c.032-.159.072-.352-.111-.468-.2-.127-.316.207-.355.342A4.682,4.682,0,0,0,2079.009,485.625Z" transform="translate(-2077.056 -481.092)"/><path class="ak" d="M2042.163,456.437c-.191-.137-.585-.2-.63-.486a1.515,1.515,0,0,1-.6.03,1.675,1.675,0,0,1-.073.781c-.065.18-.239.314-.272.507a1.007,1.007,0,0,0,.015.278c.038.365.024.759.033,1.13.006.24-.031.315-.025.555-.077.284,1.48.424,1.54.2a2.311,2.311,0,0,0,.037-.484c.025-.248-.022-.743.19-.913.088-.07.161-.137.243-.217a.16.16,0,0,1,.1-.056,2.949,2.949,0,0,0,.546-.08,1.786,1.786,0,0,0-.121-.5,1.575,1.575,0,0,0-.258-.21c-.084-.075-.173-.142-.264-.209Z" transform="translate(-2040.581 -454.581)"/><g transform="translate(1.311)"><path class="al" d="M2067.766,450.474c-.046.125-.092.25-.137.375l-.114.312c-.026.07-.034.125-.1.164a.322.322,0,0,1-.213.041.315.315,0,0,1-.211-.142.183.183,0,0,1,0-.2s.316-.685.316-.685a.134.134,0,0,1,.142-.076l.214.034A.135.135,0,0,1,2067.766,450.474Z" transform="translate(-2066.93 -449.182)"/><path class="am" d="M2084.153,446.8a.27.27,0,0,1,0,.115.6.6,0,0,1-.19.33c-.082.071-.185.116-.264.192a.249.249,0,0,0-.07.294c.038.059.114.1.123.166a.216.216,0,0,1-.031.113.5.5,0,0,0-.047.29.285.285,0,0,0,.173.224c.1.037.248.007.307.1a.664.664,0,0,1,.04.114.313.313,0,0,0,.306.153.833.833,0,0,0,.768-1.068.6.6,0,0,0-.08-.184,2.855,2.855,0,0,0-.22-.23c-.177-.207-.246-.477-.419-.678a.627.627,0,0,0-.353-.206c-.048-.01-.088.045-.086.094A.8.8,0,0,0,2084.153,446.8Z" transform="translate(-2082.732 -445.634)"/><path class="an" d="M2067.234,435.884a1.06,1.06,0,0,0-.618.355c-.311.33-.232.555-.069.637a.84.84,0,0,0,.774,0C2067.675,436.714,2067.627,435.865,2067.234,435.884Z" transform="translate(-2066.404 -435.538)"/><path class="ao" d="M2077.274,430.19s.391-.5-.111-.678l-.146.044s-.081-.378.272-.429a.578.578,0,0,1,.661.646c-.005.454-.073.736-.353.862s-.295-.127-.295-.127.177-.145.162-.259-.164-.032-.164-.032Z" transform="translate(-2076.47 -429.121)"/><path class="ap" d="M2082.622,448.865s.2-.26.3-.1-.2.235-.314.253Z" transform="translate(-2081.782 -447.714)"/></g></g></g></g><g transform="translate(11.137 6.304)"><rect class="a" width="7.093" height="11.396" transform="translate(0 0)"/><path class="aq" d="M2039.351,605.74a1.159,1.159,0,0,1,.035-.21.552.552,0,0,0,.038-.234.269.269,0,0,0-.112-.2c-.01.063-.02.126-.03.189a.135.135,0,0,1-.023.065.047.047,0,0,1-.062.013.069.069,0,0,1-.018-.028c-.046-.107-.092-.215-.139-.322-.024-.057-.055-.121-.115-.138a2.828,2.828,0,0,0,0,.444.98.98,0,0,0,.1.282,1.48,1.48,0,0,1,.137.646c.016.241.034.483.053.724.036.449.078.9.128,1.344q.034.294.073.588l.514-.131A23.385,23.385,0,0,1,2039.351,605.74Z" transform="translate(-2036.57 -604.872)"/><g transform="translate(0 2.422)"><g transform="translate(0 4.603)"><path class="ar" d="M1993.759,749.964c-.029-.086-.117-.316-.172-.294a21.839,21.839,0,0,0,2.37-.924l-.772-.711a17.614,17.614,0,0,0-1.689.8c-.169.091-.55.206-.584.42-.028.176.09.355.132.52.064.251.13.5.194.752.02.075.283,1.028.191,1.046a1.228,1.228,0,0,0-.667.368c-.164.181.006.195.173.162a1.681,1.681,0,0,0,.491-.194,1.383,1.383,0,0,0,.237-.16c.118-.1.04-.416.053-.556a3.554,3.554,0,0,0,.05-1.206A.178.178,0,0,0,1993.759,749.964Z" transform="translate(-1992.696 -747.75)"/><path class="as" d="M2063.45,755.64c-.1-.361-.42-.513-.688-.723-.058-.046-.1-.163-.159-.227l-.2-.239-.248-.29-.53-.456a5.271,5.271,0,0,0-1.242-1.783l-.612.481a4.021,4.021,0,0,0,1.566,1.545c.117.2.216.424.344.607a1.2,1.2,0,0,0,.476.377c.181.084.4.113.531.28.046.058.076.127.118.186a.733.733,0,0,0,.222.182.745.745,0,0,0,.389.12.05.05,0,0,0,.031-.008C2063.458,755.68,2063.455,755.658,2063.45,755.64Z" transform="translate(-2056.361 -751.438)"/><path class="at" d="M2023.018,742.454l1.175.081.237.539a3.177,3.177,0,0,1,.671.818.817.817,0,0,1-.848.35l-.857-.7-.911.389a1.081,1.081,0,0,1-.73-.735A6.1,6.1,0,0,1,2023.018,742.454Z" transform="translate(-2020.28 -742.454)"/></g><g transform="translate(2.432)"><path class="au" d="M2079.009,708.812a2.949,2.949,0,0,0,.158.924c.057.164.21.409.174.587a.6.6,0,0,1-.035.1.545.545,0,0,0-.047.233.271.271,0,0,0,.106.205l.036-.188a.133.133,0,0,1,.025-.065.046.046,0,0,1,.062-.011.076.076,0,0,1,.017.028l.127.327c.022.058.052.122.111.142a1.041,1.041,0,0,0-.1-.762,1.717,1.717,0,0,1-.181-.561,3.719,3.719,0,0,1-.079-.724,1.742,1.742,0,0,1-.013-.337,1.608,1.608,0,0,1,.118-.443,3.707,3.707,0,0,0,.188-.7c.032-.159.072-.352-.111-.468-.2-.127-.316.207-.355.341A4.684,4.684,0,0,0,2079.009,708.812Z" transform="translate(-2077.056 -704.279)"/><path class="av" d="M2042.163,679.625c-.191-.137-.585-.2-.63-.486a1.514,1.514,0,0,1-.6.03,1.675,1.675,0,0,1-.073.781c-.065.18-.239.314-.272.507a1,1,0,0,0,.015.278c.038.366.024.759.033,1.13.006.24-.031.315-.025.555-.077.285,1.48.424,1.54.2a2.312,2.312,0,0,0,.037-.484c.025-.248-.022-.743.19-.913.088-.07.161-.137.243-.217a.161.161,0,0,1,.1-.056,2.959,2.959,0,0,0,.546-.08,1.784,1.784,0,0,0-.121-.5,1.573,1.573,0,0,0-.258-.211c-.084-.075-.173-.142-.264-.209Z" transform="translate(-2040.581 -677.769)"/><g transform="translate(1.311)"><path class="aw" d="M2067.766,673.662c-.046.125-.092.25-.137.375l-.114.312c-.026.07-.034.125-.1.164a.324.324,0,0,1-.213.041.317.317,0,0,1-.211-.142.183.183,0,0,1,0-.2c0-.005.316-.685.316-.685a.134.134,0,0,1,.142-.076l.214.033A.135.135,0,0,1,2067.766,673.662Z" transform="translate(-2066.93 -672.37)"/><path class="ax" d="M2084.153,669.988a.269.269,0,0,1,0,.115.6.6,0,0,1-.19.329c-.082.071-.185.116-.264.192a.249.249,0,0,0-.07.294c.038.059.114.1.123.166a.217.217,0,0,1-.031.113.506.506,0,0,0-.047.29.286.286,0,0,0,.173.224c.1.037.248.007.307.1a.669.669,0,0,1,.04.114.314.314,0,0,0,.306.153.832.832,0,0,0,.768-1.068.6.6,0,0,0-.08-.184,2.9,2.9,0,0,0-.22-.23c-.177-.207-.246-.476-.419-.678a.626.626,0,0,0-.353-.206c-.048-.01-.088.045-.086.094A.8.8,0,0,0,2084.153,669.988Z" transform="translate(-2082.732 -668.822)"/><path class="ay" d="M2067.234,659.072a1.062,1.062,0,0,0-.618.355c-.311.33-.232.556-.069.637a.84.84,0,0,0,.774,0C2067.675,659.9,2067.627,659.053,2067.234,659.072Z" transform="translate(-2066.404 -658.726)"/><path class="az" d="M2077.274,653.378s.391-.5-.111-.678l-.146.044s-.081-.378.272-.428a.578.578,0,0,1,.661.646c-.005.454-.073.736-.353.862s-.295-.127-.295-.127.177-.145.162-.259-.164-.032-.164-.032Z" transform="translate(-2076.47 -652.309)"/><path class="ba" d="M2082.622,672.054s.2-.26.3-.1-.2.235-.314.253Z" transform="translate(-2081.782 -670.902)"/></g></g></g></g><g transform="translate(4.044 -5.092)"><rect class="a" width="7.093" height="11.396"/><path class="bb" d="M1899.684,382.553a1.1,1.1,0,0,1,.035-.21.544.544,0,0,0,.039-.234.269.269,0,0,0-.112-.2c-.01.063-.02.126-.03.189a.133.133,0,0,1-.022.065.046.046,0,0,1-.062.013.072.072,0,0,1-.018-.028l-.138-.322c-.024-.057-.056-.121-.116-.138a2.916,2.916,0,0,0,0,.443.975.975,0,0,0,.105.282,1.487,1.487,0,0,1,.137.645q.024.362.053.724c.036.449.078.9.129,1.344q.034.294.073.588l.513-.131A23.378,23.378,0,0,1,1899.684,382.553Z" transform="translate(-1896.902 -381.685)"/><g transform="translate(0 2.422)"><g transform="translate(0 4.603)"><path class="bc" d="M1854.091,526.776c-.029-.086-.117-.316-.172-.295a21.819,21.819,0,0,0,2.37-.924l-.771-.711a17.656,17.656,0,0,0-1.689.8c-.169.091-.55.205-.585.421-.028.176.09.355.132.52.064.251.13.5.194.752.019.075.283,1.028.191,1.046a1.225,1.225,0,0,0-.667.368c-.164.182.006.2.172.162a1.686,1.686,0,0,0,.492-.194,1.4,1.4,0,0,0,.237-.159c.117-.1.04-.415.053-.555a3.566,3.566,0,0,0,.051-1.207Z" transform="translate(-1853.028 -524.562)"/><path class="bd" d="M1923.782,532.452c-.1-.361-.42-.513-.688-.723-.059-.046-.1-.163-.159-.227l-.2-.239-.249-.29-.53-.456a5.285,5.285,0,0,0-1.241-1.783l-.612.481a4.02,4.02,0,0,0,1.566,1.545c.117.2.216.424.345.607a1.2,1.2,0,0,0,.475.377c.182.084.4.113.531.28.045.058.075.127.118.186a.727.727,0,0,0,.222.182.742.742,0,0,0,.389.12.05.05,0,0,0,.031-.008C1923.789,532.492,1923.787,532.47,1923.782,532.452Z" transform="translate(-1916.693 -528.25)"/><path class="be" d="M1883.351,519.266l1.174.081.237.539a3.168,3.168,0,0,1,.671.818.817.817,0,0,1-.847.35l-.857-.7-.911.389a1.082,1.082,0,0,1-.73-.735A6.071,6.071,0,0,1,1883.351,519.266Z" transform="translate(-1880.612 -519.266)"/></g><g transform="translate(2.432)"><path class="bf" d="M1939.34,485.625a2.923,2.923,0,0,0,.158.923c.057.164.211.41.174.587a.651.651,0,0,1-.036.1.544.544,0,0,0-.046.233.271.271,0,0,0,.105.206c.012-.063.024-.125.036-.188a.137.137,0,0,1,.025-.065.046.046,0,0,1,.062-.011.07.07,0,0,1,.017.029c.042.109.085.218.127.327.023.058.052.122.111.141a1.043,1.043,0,0,0-.1-.762,1.726,1.726,0,0,1-.182-.561,3.793,3.793,0,0,1-.079-.724,1.833,1.833,0,0,1-.012-.337,1.63,1.63,0,0,1,.118-.444,3.766,3.766,0,0,0,.188-.7c.032-.159.072-.352-.111-.468-.2-.127-.316.207-.354.342A4.707,4.707,0,0,0,1939.34,485.625Z" transform="translate(-1937.388 -481.092)"/><path class="bg" d="M1902.5,456.437c-.191-.137-.585-.2-.63-.486a1.514,1.514,0,0,1-.6.03,1.674,1.674,0,0,1-.074.781c-.066.18-.238.314-.272.507a1.031,1.031,0,0,0,.015.278c.038.365.024.759.034,1.13.006.24-.032.315-.026.555-.076.284,1.481.424,1.54.2a2.255,2.255,0,0,0,.037-.484c.025-.248-.023-.743.19-.913.087-.07.161-.137.243-.217a.16.16,0,0,1,.1-.056,2.958,2.958,0,0,0,.547-.08,1.8,1.8,0,0,0-.121-.5,1.614,1.614,0,0,0-.258-.21c-.084-.075-.172-.142-.264-.209Z" transform="translate(-1900.912 -454.581)"/><g transform="translate(1.311)"><path class="bh" d="M1928.1,450.474l-.137.375-.114.312c-.026.07-.035.125-.1.164a.324.324,0,0,1-.213.041.315.315,0,0,1-.211-.142.183.183,0,0,1,0-.2l.316-.685a.134.134,0,0,1,.142-.076l.214.034A.135.135,0,0,1,1928.1,450.474Z" transform="translate(-1927.262 -449.182)"/><path class="bi" d="M1944.485,446.8a.262.262,0,0,1,0,.115.6.6,0,0,1-.19.33c-.083.071-.185.116-.264.192a.247.247,0,0,0-.069.294c.037.059.113.1.122.166a.22.22,0,0,1-.031.113.507.507,0,0,0-.048.29.287.287,0,0,0,.174.224c.1.037.247.007.307.1a.664.664,0,0,1,.04.114.314.314,0,0,0,.307.153.832.832,0,0,0,.767-1.068.578.578,0,0,0-.08-.184,2.888,2.888,0,0,0-.22-.23c-.177-.207-.247-.477-.419-.678a.63.63,0,0,0-.353-.206c-.048-.01-.088.045-.086.094A.847.847,0,0,0,1944.485,446.8Z" transform="translate(-1943.065 -445.634)"/><path class="bj" d="M1927.565,435.884a1.057,1.057,0,0,0-.617.355c-.311.33-.234.555-.07.637a.841.841,0,0,0,.775,0C1928.006,436.714,1927.959,435.865,1927.565,435.884Z" transform="translate(-1926.735 -435.538)"/><path class="bk" d="M1937.606,430.19s.391-.5-.111-.678l-.147.044s-.081-.378.272-.429a.579.579,0,0,1,.661.646c-.006.454-.074.736-.353.862s-.295-.127-.295-.127.178-.145.162-.259-.164-.032-.164-.032Z" transform="translate(-1936.802 -429.121)"/><path class="bl" d="M1942.954,448.865s.2-.26.3-.1-.2.235-.314.253Z" transform="translate(-1942.115 -447.714)"/></g></g></g></g><g transform="translate(4.044 6.304)"><rect class="a" width="7.093" height="11.396" transform="translate(0 0)"/><path class="bm" d="M1899.684,605.74a1.1,1.1,0,0,1,.035-.21.545.545,0,0,0,.039-.234.269.269,0,0,0-.112-.2c-.01.063-.02.126-.03.189a.132.132,0,0,1-.022.065.046.046,0,0,1-.062.013.073.073,0,0,1-.018-.028l-.138-.322c-.024-.057-.056-.121-.116-.138a2.919,2.919,0,0,0,0,.444.975.975,0,0,0,.105.282,1.487,1.487,0,0,1,.137.646q.024.362.053.724c.036.449.078.9.129,1.344q.034.294.073.588l.513-.131A23.371,23.371,0,0,1,1899.684,605.74Z" transform="translate(-1896.902 -604.872)"/><g transform="translate(0 2.422)"><g transform="translate(0 4.603)"><path class="bn" d="M1854.091,749.964c-.029-.086-.117-.316-.172-.294a21.819,21.819,0,0,0,2.37-.924l-.771-.711a17.568,17.568,0,0,0-1.689.8c-.169.091-.55.206-.585.42-.028.176.09.355.132.52.064.251.13.5.194.752.019.075.283,1.028.191,1.046a1.227,1.227,0,0,0-.667.368c-.164.181.006.195.172.162a1.687,1.687,0,0,0,.492-.194,1.414,1.414,0,0,0,.237-.16c.117-.1.04-.416.053-.556a3.563,3.563,0,0,0,.051-1.206Z" transform="translate(-1853.028 -747.75)"/><path class="bo" d="M1923.782,755.64c-.1-.361-.42-.513-.688-.723-.059-.046-.1-.163-.159-.227l-.2-.239-.249-.29-.53-.456a5.283,5.283,0,0,0-1.241-1.783l-.612.481a4.021,4.021,0,0,0,1.566,1.545c.117.2.216.424.345.607a1.192,1.192,0,0,0,.475.377c.182.084.4.113.531.28.045.058.075.127.118.186a.728.728,0,0,0,.222.182.743.743,0,0,0,.389.12.049.049,0,0,0,.031-.008C1923.789,755.68,1923.787,755.658,1923.782,755.64Z" transform="translate(-1916.693 -751.438)"/><path class="bp" d="M1883.351,742.454l1.174.081.237.539a3.17,3.17,0,0,1,.671.818.817.817,0,0,1-.847.35l-.857-.7-.911.389a1.082,1.082,0,0,1-.73-.735A6.066,6.066,0,0,1,1883.351,742.454Z" transform="translate(-1880.612 -742.454)"/></g><g transform="translate(2.432)"><path class="bq" d="M1939.34,708.812a2.924,2.924,0,0,0,.158.924c.057.164.211.409.174.587a.673.673,0,0,1-.036.1.542.542,0,0,0-.046.233.271.271,0,0,0,.105.205c.012-.062.024-.125.036-.188a.136.136,0,0,1,.025-.065.046.046,0,0,1,.062-.011.07.07,0,0,1,.017.028l.127.327c.023.058.052.122.111.142a1.043,1.043,0,0,0-.1-.762,1.724,1.724,0,0,1-.182-.561,3.8,3.8,0,0,1-.079-.724,1.833,1.833,0,0,1-.012-.337,1.626,1.626,0,0,1,.118-.443,3.773,3.773,0,0,0,.188-.7c.032-.159.072-.352-.111-.468-.2-.127-.316.207-.354.341A4.709,4.709,0,0,0,1939.34,708.812Z" transform="translate(-1937.388 -704.279)"/><path class="br" d="M1902.5,679.625c-.191-.137-.585-.2-.63-.486a1.513,1.513,0,0,1-.6.03,1.674,1.674,0,0,1-.074.781c-.066.18-.238.314-.272.507a1.029,1.029,0,0,0,.015.278c.038.366.024.759.034,1.13.006.24-.032.315-.026.555-.076.285,1.481.424,1.54.2a2.256,2.256,0,0,0,.037-.484c.025-.248-.023-.743.19-.913.087-.07.161-.137.243-.217a.161.161,0,0,1,.1-.056,2.969,2.969,0,0,0,.547-.08,1.8,1.8,0,0,0-.121-.5,1.612,1.612,0,0,0-.258-.211c-.084-.075-.172-.142-.264-.209Z" transform="translate(-1900.912 -677.769)"/><g transform="translate(1.311)"><path class="bs" d="M1928.1,673.662l-.137.375-.114.312c-.026.07-.035.125-.1.164a.325.325,0,0,1-.213.041.318.318,0,0,1-.211-.142.183.183,0,0,1,0-.2l.316-.685a.133.133,0,0,1,.142-.076l.214.033A.135.135,0,0,1,1928.1,673.662Z" transform="translate(-1927.262 -672.37)"/><path class="bt" d="M1944.485,669.988a.261.261,0,0,1,0,.115.6.6,0,0,1-.19.329c-.083.071-.185.116-.264.192a.247.247,0,0,0-.069.294c.037.059.113.1.122.166a.22.22,0,0,1-.031.113.507.507,0,0,0-.048.29.287.287,0,0,0,.174.224c.1.037.247.007.307.1a.668.668,0,0,1,.04.114.314.314,0,0,0,.307.153.832.832,0,0,0,.767-1.068.576.576,0,0,0-.08-.184,2.933,2.933,0,0,0-.22-.23c-.177-.207-.247-.476-.419-.678a.63.63,0,0,0-.353-.206c-.048-.01-.088.045-.086.094A.85.85,0,0,0,1944.485,669.988Z" transform="translate(-1943.065 -668.822)"/><path class="bu" d="M1927.565,659.072a1.059,1.059,0,0,0-.617.355c-.311.33-.234.556-.07.637a.841.841,0,0,0,.775,0C1928.006,659.9,1927.959,659.053,1927.565,659.072Z" transform="translate(-1926.735 -658.726)"/><path class="bv" d="M1937.606,653.378s.391-.5-.111-.678l-.147.044s-.081-.378.272-.428a.579.579,0,0,1,.661.646c-.006.454-.074.736-.353.862s-.295-.127-.295-.127.178-.145.162-.259-.164-.032-.164-.032Z" transform="translate(-1936.802 -652.309)"/><path class="bw" d="M1942.954,672.054s.2-.26.3-.1-.2.235-.314.253Z" transform="translate(-1942.115 -670.902)"/></g></g></g></g><g transform="translate(-3.049 -5.092)"><rect class="a" width="7.093" height="11.396"/><path class="bx" d="M1760.016,382.553a1.127,1.127,0,0,1,.035-.21.55.55,0,0,0,.039-.234.272.272,0,0,0-.112-.2c-.011.063-.02.126-.031.189a.139.139,0,0,1-.022.065.047.047,0,0,1-.062.013.072.072,0,0,1-.018-.028l-.139-.322c-.024-.057-.056-.121-.115-.138a2.9,2.9,0,0,0,0,.443.978.978,0,0,0,.1.282,1.491,1.491,0,0,1,.137.645q.024.362.053.724c.036.449.078.9.129,1.344q.033.294.073.588l.513-.131A23.438,23.438,0,0,1,1760.016,382.553Z" transform="translate(-1757.234 -381.685)"/><g transform="translate(0 2.422)"><g transform="translate(0 4.603)"><path class="by" d="M1714.423,526.776c-.029-.086-.117-.316-.172-.295a21.839,21.839,0,0,0,2.37-.924l-.771-.711a17.618,17.618,0,0,0-1.689.8c-.169.091-.55.205-.585.421-.028.176.09.355.132.52.064.251.131.5.194.752.019.075.283,1.028.191,1.046a1.225,1.225,0,0,0-.667.368c-.164.182.006.2.173.162a1.693,1.693,0,0,0,.491-.194,1.4,1.4,0,0,0,.237-.159c.117-.1.04-.415.053-.555a3.557,3.557,0,0,0,.051-1.207S1714.428,526.789,1714.423,526.776Z" transform="translate(-1713.36 -524.562)"/><path class="bz" d="M1784.114,532.452c-.1-.361-.42-.513-.689-.723a1.94,1.94,0,0,1-.159-.227l-.2-.239-.248-.29-.53-.456a5.276,5.276,0,0,0-1.242-1.783l-.612.481a4.022,4.022,0,0,0,1.566,1.545c.118.2.216.424.344.607a1.2,1.2,0,0,0,.476.377c.182.084.4.113.53.28.046.058.076.127.119.186a.725.725,0,0,0,.222.182.743.743,0,0,0,.389.12.049.049,0,0,0,.031-.008C1784.122,532.492,1784.119,532.47,1784.114,532.452Z" transform="translate(-1777.025 -528.25)"/><path class="ca" d="M1743.683,519.266l1.174.081.237.539a3.185,3.185,0,0,1,.671.818.818.818,0,0,1-.848.35l-.857-.7-.911.389a1.081,1.081,0,0,1-.73-.735A6.089,6.089,0,0,1,1743.683,519.266Z" transform="translate(-1740.944 -519.266)"/></g><g transform="translate(2.432)"><path class="cb" d="M1799.672,485.625a2.954,2.954,0,0,0,.158.923c.058.164.211.41.175.587a.639.639,0,0,1-.036.1.549.549,0,0,0-.046.233.269.269,0,0,0,.106.206l.036-.188a.135.135,0,0,1,.025-.065.046.046,0,0,1,.062-.011.071.071,0,0,1,.017.029l.128.327c.022.058.052.122.111.141a1.041,1.041,0,0,0-.1-.762,1.726,1.726,0,0,1-.182-.561,3.773,3.773,0,0,1-.079-.724,1.812,1.812,0,0,1-.012-.337,1.617,1.617,0,0,1,.118-.444,3.794,3.794,0,0,0,.188-.7c.031-.159.072-.352-.111-.468-.2-.127-.316.207-.354.342A4.711,4.711,0,0,0,1799.672,485.625Z" transform="translate(-1797.72 -481.092)"/><path class="cc" d="M1762.827,456.437c-.191-.137-.585-.2-.63-.486a1.515,1.515,0,0,1-.6.03,1.671,1.671,0,0,1-.074.781c-.066.18-.239.314-.272.507a1.041,1.041,0,0,0,.016.278c.038.365.024.759.034,1.13.006.24-.031.315-.025.555-.076.284,1.481.424,1.54.2a2.239,2.239,0,0,0,.037-.484c.025-.248-.022-.743.19-.913.087-.07.161-.137.243-.217a.16.16,0,0,1,.1-.056,2.966,2.966,0,0,0,.547-.08,1.817,1.817,0,0,0-.121-.5,1.6,1.6,0,0,0-.259-.21c-.084-.075-.172-.142-.264-.209Z" transform="translate(-1761.244 -454.581)"/><g transform="translate(1.311)"><path class="cd" d="M1788.43,450.474c-.046.125-.092.25-.137.375l-.114.312c-.026.07-.035.125-.1.164a.324.324,0,0,1-.213.041.314.314,0,0,1-.211-.142.181.181,0,0,1,0-.2l.316-.685a.134.134,0,0,1,.142-.076l.214.034A.135.135,0,0,1,1788.43,450.474Z" transform="translate(-1787.593 -449.182)"/><path class="ce" d="M1804.817,446.8a.271.271,0,0,1,0,.115.6.6,0,0,1-.19.33c-.083.071-.185.116-.264.192a.248.248,0,0,0-.069.294c.037.059.114.1.122.166a.22.22,0,0,1-.031.113.505.505,0,0,0-.048.29.287.287,0,0,0,.173.224c.1.037.247.007.307.1a.7.7,0,0,1,.041.114.312.312,0,0,0,.306.153.832.832,0,0,0,.767-1.068.6.6,0,0,0-.079-.184,3,3,0,0,0-.22-.23c-.177-.207-.247-.477-.419-.678a.63.63,0,0,0-.353-.206c-.048-.01-.088.045-.086.094A.819.819,0,0,0,1804.817,446.8Z" transform="translate(-1803.397 -445.634)"/><path class="cf" d="M1787.9,435.884a1.058,1.058,0,0,0-.617.355c-.311.33-.234.555-.071.637a.842.842,0,0,0,.775,0C1788.339,436.714,1788.291,435.865,1787.9,435.884Z" transform="translate(-1787.067 -435.538)"/><path class="cg" d="M1797.937,430.19s.391-.5-.111-.678l-.146.044s-.081-.378.272-.429a.579.579,0,0,1,.661.646c-.006.454-.074.736-.353.862s-.295-.127-.295-.127.177-.145.162-.259-.164-.032-.164-.032Z" transform="translate(-1797.133 -429.121)"/><path class="ch" d="M1803.286,448.865s.2-.26.3-.1-.2.235-.314.253Z" transform="translate(-1802.447 -447.714)"/></g></g></g></g><g transform="translate(-3.049 6.304)"><rect class="a" width="7.093" height="11.396" transform="translate(0 0)"/><path class="ci" d="M1760.016,605.74a1.127,1.127,0,0,1,.035-.21.55.55,0,0,0,.039-.234.272.272,0,0,0-.112-.2c-.011.063-.02.126-.031.189a.137.137,0,0,1-.022.065.047.047,0,0,1-.062.013.072.072,0,0,1-.018-.028c-.046-.107-.092-.215-.139-.322-.024-.057-.056-.121-.115-.138a2.907,2.907,0,0,0,0,.444.977.977,0,0,0,.1.282,1.49,1.49,0,0,1,.137.646q.024.362.053.724c.036.449.078.9.129,1.344q.033.294.073.588l.513-.131A23.431,23.431,0,0,1,1760.016,605.74Z" transform="translate(-1757.234 -604.872)"/><g transform="translate(0 2.422)"><g transform="translate(0 4.603)"><path class="cj" d="M1714.423,749.964c-.029-.086-.117-.316-.172-.294a21.839,21.839,0,0,0,2.37-.924l-.771-.711a17.531,17.531,0,0,0-1.689.8c-.169.091-.55.206-.585.42-.028.176.09.355.132.52.064.251.131.5.194.752.019.075.283,1.028.191,1.046a1.227,1.227,0,0,0-.667.368c-.164.181.006.195.173.162a1.7,1.7,0,0,0,.491-.194,1.41,1.41,0,0,0,.237-.16c.117-.1.04-.416.053-.556a3.554,3.554,0,0,0,.051-1.206A.282.282,0,0,0,1714.423,749.964Z" transform="translate(-1713.36 -747.75)"/><path class="ck" d="M1784.114,755.64c-.1-.361-.42-.513-.689-.723a1.959,1.959,0,0,1-.159-.227l-.2-.239-.248-.29-.53-.456a5.274,5.274,0,0,0-1.242-1.783l-.612.481a4.024,4.024,0,0,0,1.566,1.545c.118.2.216.424.344.607a1.192,1.192,0,0,0,.476.377c.182.084.4.113.53.28.046.058.076.127.119.186a.726.726,0,0,0,.222.182.743.743,0,0,0,.389.12.048.048,0,0,0,.031-.008C1784.122,755.68,1784.119,755.658,1784.114,755.64Z" transform="translate(-1777.025 -751.438)"/><path class="cl" d="M1743.683,742.454l1.174.081.237.539a3.186,3.186,0,0,1,.671.818.818.818,0,0,1-.848.35l-.857-.7-.911.389a1.081,1.081,0,0,1-.73-.735A6.084,6.084,0,0,1,1743.683,742.454Z" transform="translate(-1740.944 -742.454)"/></g><g transform="translate(2.432)"><path class="cm" d="M1799.672,708.812a2.955,2.955,0,0,0,.158.924c.058.164.211.409.175.587a.661.661,0,0,1-.036.1.548.548,0,0,0-.046.233.269.269,0,0,0,.106.205l.036-.188a.134.134,0,0,1,.025-.065.046.046,0,0,1,.062-.011.071.071,0,0,1,.017.028l.128.327c.022.058.052.122.111.142a1.041,1.041,0,0,0-.1-.762,1.724,1.724,0,0,1-.182-.561,3.777,3.777,0,0,1-.079-.724,1.811,1.811,0,0,1-.012-.337,1.613,1.613,0,0,1,.118-.443,3.8,3.8,0,0,0,.188-.7c.031-.159.072-.352-.111-.468-.2-.127-.316.207-.354.341A4.713,4.713,0,0,0,1799.672,708.812Z" transform="translate(-1797.72 -704.279)"/><path class="cn" d="M1762.827,679.625c-.191-.137-.585-.2-.63-.486a1.513,1.513,0,0,1-.6.03,1.671,1.671,0,0,1-.074.781c-.066.18-.239.314-.272.507a1.039,1.039,0,0,0,.016.278c.038.366.024.759.034,1.13.006.24-.031.315-.025.555-.076.285,1.481.424,1.54.2a2.24,2.24,0,0,0,.037-.484c.025-.248-.022-.743.19-.913.087-.07.161-.137.243-.217a.16.16,0,0,1,.1-.056,2.976,2.976,0,0,0,.547-.08,1.814,1.814,0,0,0-.121-.5,1.6,1.6,0,0,0-.259-.211c-.084-.075-.172-.142-.264-.209Z" transform="translate(-1761.244 -677.769)"/><g transform="translate(1.311)"><path class="co" d="M1788.43,673.662c-.046.125-.092.25-.137.375l-.114.312c-.026.07-.035.125-.1.164a.326.326,0,0,1-.213.041.316.316,0,0,1-.211-.142.18.18,0,0,1,0-.2l.316-.685a.133.133,0,0,1,.142-.076l.214.033A.135.135,0,0,1,1788.43,673.662Z" transform="translate(-1787.593 -672.37)"/><path class="cp" d="M1804.817,669.988a.27.27,0,0,1,0,.115.6.6,0,0,1-.19.329c-.083.071-.185.116-.264.192a.249.249,0,0,0-.069.294c.037.059.114.1.122.166a.22.22,0,0,1-.031.113.506.506,0,0,0-.048.29.288.288,0,0,0,.173.224c.1.037.247.007.307.1a.7.7,0,0,1,.041.114.313.313,0,0,0,.306.153.832.832,0,0,0,.767-1.068.592.592,0,0,0-.079-.184,3.051,3.051,0,0,0-.22-.23c-.177-.207-.247-.476-.419-.678a.629.629,0,0,0-.353-.206c-.048-.01-.088.045-.086.094A.821.821,0,0,0,1804.817,669.988Z" transform="translate(-1803.397 -668.822)"/><path class="cq" d="M1787.9,659.072a1.059,1.059,0,0,0-.617.355c-.311.33-.234.556-.071.637a.842.842,0,0,0,.775,0C1788.339,659.9,1788.291,659.053,1787.9,659.072Z" transform="translate(-1787.067 -658.726)"/><path class="cr" d="M1797.937,653.378s.391-.5-.111-.678l-.146.044s-.081-.378.272-.428a.579.579,0,0,1,.661.646c-.006.454-.074.736-.353.862s-.295-.127-.295-.127.177-.145.162-.259-.164-.032-.164-.032Z" transform="translate(-1797.133 -652.309)"/><path class="cs" d="M1803.286,672.054s.2-.26.3-.1-.2.235-.314.253Z" transform="translate(-1802.447 -670.902)"/></g></g></g></g><g transform="translate(11.137 -5.092)"><rect class="a" width="7.093" height="11.396"/><path class="af" d="M2039.351,382.553a1.159,1.159,0,0,1,.035-.21.551.551,0,0,0,.038-.234.269.269,0,0,0-.112-.2c-.01.063-.02.126-.03.189a.137.137,0,0,1-.023.065.047.047,0,0,1-.062.013.069.069,0,0,1-.018-.028c-.046-.107-.092-.215-.139-.322-.024-.057-.055-.121-.115-.138a2.826,2.826,0,0,0,0,.443.98.98,0,0,0,.1.282,1.48,1.48,0,0,1,.137.645c.016.241.034.483.053.724.036.449.078.9.128,1.344q.034.294.073.588l.514-.131A23.392,23.392,0,0,1,2039.351,382.553Z" transform="translate(-2036.57 -381.685)"/><g transform="translate(0 2.422)"><g transform="translate(0 4.603)"><path class="ag" d="M1993.759,526.776c-.029-.086-.117-.316-.172-.295a21.839,21.839,0,0,0,2.37-.924l-.772-.711a17.7,17.7,0,0,0-1.689.8c-.169.091-.55.205-.584.421-.028.176.09.355.132.52.064.251.13.5.194.752.02.075.283,1.028.191,1.046a1.226,1.226,0,0,0-.667.368c-.164.182.006.2.173.162a1.68,1.68,0,0,0,.491-.194,1.372,1.372,0,0,0,.237-.159c.118-.1.04-.415.053-.555a3.556,3.556,0,0,0,.05-1.207A.184.184,0,0,0,1993.759,526.776Z" transform="translate(-1992.696 -524.562)"/><path class="ah" d="M2063.45,532.452c-.1-.361-.42-.513-.688-.723-.058-.046-.1-.163-.159-.227l-.2-.239-.248-.29-.53-.456a5.273,5.273,0,0,0-1.242-1.783l-.612.481a4.019,4.019,0,0,0,1.566,1.545c.117.2.216.424.344.607a1.2,1.2,0,0,0,.476.377c.181.084.4.113.531.28.046.058.076.127.118.186a.733.733,0,0,0,.222.182.745.745,0,0,0,.389.12.051.051,0,0,0,.031-.008C2063.458,532.492,2063.455,532.47,2063.45,532.452Z" transform="translate(-2056.361 -528.25)"/><path class="ai" d="M2023.018,519.266l1.175.081.237.539a3.175,3.175,0,0,1,.671.818.818.818,0,0,1-.848.35l-.857-.7-.911.389a1.082,1.082,0,0,1-.73-.735A6.1,6.1,0,0,1,2023.018,519.266Z" transform="translate(-2020.28 -519.266)"/></g><g transform="translate(2.432)"><path class="aj" d="M2079.009,485.625a2.947,2.947,0,0,0,.158.923c.057.164.21.41.174.587a.581.581,0,0,1-.035.1.546.546,0,0,0-.047.233.272.272,0,0,0,.106.206l.036-.188a.134.134,0,0,1,.025-.065.046.046,0,0,1,.062-.011.076.076,0,0,1,.017.029q.063.163.127.327c.022.058.052.122.111.141a1.041,1.041,0,0,0-.1-.762,1.719,1.719,0,0,1-.181-.561,3.716,3.716,0,0,1-.079-.724,1.742,1.742,0,0,1-.013-.337,1.612,1.612,0,0,1,.118-.444,3.7,3.7,0,0,0,.188-.7c.032-.159.072-.352-.111-.468-.2-.127-.316.207-.355.342A4.682,4.682,0,0,0,2079.009,485.625Z" transform="translate(-2077.056 -481.092)"/><path class="ak" d="M2042.163,456.437c-.191-.137-.585-.2-.63-.486a1.515,1.515,0,0,1-.6.03,1.675,1.675,0,0,1-.073.781c-.065.18-.239.314-.272.507a1.007,1.007,0,0,0,.015.278c.038.365.024.759.033,1.13.006.24-.031.315-.025.555-.077.284,1.48.424,1.54.2a2.311,2.311,0,0,0,.037-.484c.025-.248-.022-.743.19-.913.088-.07.161-.137.243-.217a.16.16,0,0,1,.1-.056,2.949,2.949,0,0,0,.546-.08,1.786,1.786,0,0,0-.121-.5,1.575,1.575,0,0,0-.258-.21c-.084-.075-.173-.142-.264-.209Z" transform="translate(-2040.581 -454.581)"/><g transform="translate(1.311)"><path class="al" d="M2067.766,450.474c-.046.125-.092.25-.137.375l-.114.312c-.026.07-.034.125-.1.164a.322.322,0,0,1-.213.041.315.315,0,0,1-.211-.142.183.183,0,0,1,0-.2s.316-.685.316-.685a.134.134,0,0,1,.142-.076l.214.034A.135.135,0,0,1,2067.766,450.474Z" transform="translate(-2066.93 -449.182)"/><path class="am" d="M2084.153,446.8a.27.27,0,0,1,0,.115.6.6,0,0,1-.19.33c-.082.071-.185.116-.264.192a.249.249,0,0,0-.07.294c.038.059.114.1.123.166a.216.216,0,0,1-.031.113.5.5,0,0,0-.047.29.285.285,0,0,0,.173.224c.1.037.248.007.307.1a.664.664,0,0,1,.04.114.313.313,0,0,0,.306.153.833.833,0,0,0,.768-1.068.6.6,0,0,0-.08-.184,2.855,2.855,0,0,0-.22-.23c-.177-.207-.246-.477-.419-.678a.627.627,0,0,0-.353-.206c-.048-.01-.088.045-.086.094A.8.8,0,0,0,2084.153,446.8Z" transform="translate(-2082.732 -445.634)"/><path class="an" d="M2067.234,435.884a1.06,1.06,0,0,0-.618.355c-.311.33-.232.555-.069.637a.84.84,0,0,0,.774,0C2067.675,436.714,2067.627,435.865,2067.234,435.884Z" transform="translate(-2066.404 -435.538)"/><path class="ao" d="M2077.274,430.19s.391-.5-.111-.678l-.146.044s-.081-.378.272-.429a.578.578,0,0,1,.661.646c-.005.454-.073.736-.353.862s-.295-.127-.295-.127.177-.145.162-.259-.164-.032-.164-.032Z" transform="translate(-2076.47 -429.121)"/><path class="ap" d="M2082.622,448.865s.2-.26.3-.1-.2.235-.314.253Z" transform="translate(-2081.782 -447.714)"/></g></g></g></g><g transform="translate(11.137 6.304)"><rect class="a" width="7.093" height="11.396" transform="translate(0 0)"/><path class="aq" d="M2039.351,605.74a1.159,1.159,0,0,1,.035-.21.552.552,0,0,0,.038-.234.269.269,0,0,0-.112-.2c-.01.063-.02.126-.03.189a.135.135,0,0,1-.023.065.047.047,0,0,1-.062.013.069.069,0,0,1-.018-.028c-.046-.107-.092-.215-.139-.322-.024-.057-.055-.121-.115-.138a2.828,2.828,0,0,0,0,.444.98.98,0,0,0,.1.282,1.48,1.48,0,0,1,.137.646c.016.241.034.483.053.724.036.449.078.9.128,1.344q.034.294.073.588l.514-.131A23.385,23.385,0,0,1,2039.351,605.74Z" transform="translate(-2036.57 -604.872)"/><g transform="translate(0 2.422)"><g transform="translate(0 4.603)"><path class="ar" d="M1993.759,749.964c-.029-.086-.117-.316-.172-.294a21.839,21.839,0,0,0,2.37-.924l-.772-.711a17.614,17.614,0,0,0-1.689.8c-.169.091-.55.206-.584.42-.028.176.09.355.132.52.064.251.13.5.194.752.02.075.283,1.028.191,1.046a1.228,1.228,0,0,0-.667.368c-.164.181.006.195.173.162a1.681,1.681,0,0,0,.491-.194,1.383,1.383,0,0,0,.237-.16c.118-.1.04-.416.053-.556a3.554,3.554,0,0,0,.05-1.206A.178.178,0,0,0,1993.759,749.964Z" transform="translate(-1992.696 -747.75)"/><path class="as" d="M2063.45,755.64c-.1-.361-.42-.513-.688-.723-.058-.046-.1-.163-.159-.227l-.2-.239-.248-.29-.53-.456a5.271,5.271,0,0,0-1.242-1.783l-.612.481a4.021,4.021,0,0,0,1.566,1.545c.117.2.216.424.344.607a1.2,1.2,0,0,0,.476.377c.181.084.4.113.531.28.046.058.076.127.118.186a.733.733,0,0,0,.222.182.745.745,0,0,0,.389.12.05.05,0,0,0,.031-.008C2063.458,755.68,2063.455,755.658,2063.45,755.64Z" transform="translate(-2056.361 -751.438)"/><path class="at" d="M2023.018,742.454l1.175.081.237.539a3.177,3.177,0,0,1,.671.818.817.817,0,0,1-.848.35l-.857-.7-.911.389a1.081,1.081,0,0,1-.73-.735A6.1,6.1,0,0,1,2023.018,742.454Z" transform="translate(-2020.28 -742.454)"/></g><g transform="translate(2.432)"><path class="au" d="M2079.009,708.812a2.949,2.949,0,0,0,.158.924c.057.164.21.409.174.587a.6.6,0,0,1-.035.1.545.545,0,0,0-.047.233.271.271,0,0,0,.106.205l.036-.188a.133.133,0,0,1,.025-.065.046.046,0,0,1,.062-.011.076.076,0,0,1,.017.028l.127.327c.022.058.052.122.111.142a1.041,1.041,0,0,0-.1-.762,1.717,1.717,0,0,1-.181-.561,3.719,3.719,0,0,1-.079-.724,1.742,1.742,0,0,1-.013-.337,1.608,1.608,0,0,1,.118-.443,3.707,3.707,0,0,0,.188-.7c.032-.159.072-.352-.111-.468-.2-.127-.316.207-.355.341A4.684,4.684,0,0,0,2079.009,708.812Z" transform="translate(-2077.056 -704.279)"/><path class="av" d="M2042.163,679.625c-.191-.137-.585-.2-.63-.486a1.514,1.514,0,0,1-.6.03,1.675,1.675,0,0,1-.073.781c-.065.18-.239.314-.272.507a1,1,0,0,0,.015.278c.038.366.024.759.033,1.13.006.24-.031.315-.025.555-.077.285,1.48.424,1.54.2a2.312,2.312,0,0,0,.037-.484c.025-.248-.022-.743.19-.913.088-.07.161-.137.243-.217a.161.161,0,0,1,.1-.056,2.959,2.959,0,0,0,.546-.08,1.784,1.784,0,0,0-.121-.5,1.573,1.573,0,0,0-.258-.211c-.084-.075-.173-.142-.264-.209Z" transform="translate(-2040.581 -677.769)"/><g transform="translate(1.311)"><path class="aw" d="M2067.766,673.662c-.046.125-.092.25-.137.375l-.114.312c-.026.07-.034.125-.1.164a.324.324,0,0,1-.213.041.317.317,0,0,1-.211-.142.183.183,0,0,1,0-.2c0-.005.316-.685.316-.685a.134.134,0,0,1,.142-.076l.214.033A.135.135,0,0,1,2067.766,673.662Z" transform="translate(-2066.93 -672.37)"/><path class="ax" d="M2084.153,669.988a.269.269,0,0,1,0,.115.6.6,0,0,1-.19.329c-.082.071-.185.116-.264.192a.249.249,0,0,0-.07.294c.038.059.114.1.123.166a.217.217,0,0,1-.031.113.506.506,0,0,0-.047.29.286.286,0,0,0,.173.224c.1.037.248.007.307.1a.669.669,0,0,1,.04.114.314.314,0,0,0,.306.153.832.832,0,0,0,.768-1.068.6.6,0,0,0-.08-.184,2.9,2.9,0,0,0-.22-.23c-.177-.207-.246-.476-.419-.678a.626.626,0,0,0-.353-.206c-.048-.01-.088.045-.086.094A.8.8,0,0,0,2084.153,669.988Z" transform="translate(-2082.732 -668.822)"/><path class="ay" d="M2067.234,659.072a1.062,1.062,0,0,0-.618.355c-.311.33-.232.556-.069.637a.84.84,0,0,0,.774,0C2067.675,659.9,2067.627,659.053,2067.234,659.072Z" transform="translate(-2066.404 -658.726)"/><path class="az" d="M2077.274,653.378s.391-.5-.111-.678l-.146.044s-.081-.378.272-.428a.578.578,0,0,1,.661.646c-.005.454-.073.736-.353.862s-.295-.127-.295-.127.177-.145.162-.259-.164-.032-.164-.032Z" transform="translate(-2076.47 -652.309)"/><path class="ba" d="M2082.622,672.054s.2-.26.3-.1-.2.235-.314.253Z" transform="translate(-2081.782 -670.902)"/></g></g></g></g><g transform="translate(4.044 -5.092)"><rect class="a" width="7.093" height="11.396"/><path class="bb" d="M1899.684,382.553a1.1,1.1,0,0,1,.035-.21.544.544,0,0,0,.039-.234.269.269,0,0,0-.112-.2c-.01.063-.02.126-.03.189a.133.133,0,0,1-.022.065.046.046,0,0,1-.062.013.072.072,0,0,1-.018-.028l-.138-.322c-.024-.057-.056-.121-.116-.138a2.916,2.916,0,0,0,0,.443.975.975,0,0,0,.105.282,1.487,1.487,0,0,1,.137.645q.024.362.053.724c.036.449.078.9.129,1.344q.034.294.073.588l.513-.131A23.378,23.378,0,0,1,1899.684,382.553Z" transform="translate(-1896.902 -381.685)"/><g transform="translate(0 2.422)"><g transform="translate(0 4.603)"><path class="bc" d="M1854.091,526.776c-.029-.086-.117-.316-.172-.295a21.819,21.819,0,0,0,2.37-.924l-.771-.711a17.656,17.656,0,0,0-1.689.8c-.169.091-.55.205-.585.421-.028.176.09.355.132.52.064.251.13.5.194.752.019.075.283,1.028.191,1.046a1.225,1.225,0,0,0-.667.368c-.164.182.006.2.172.162a1.686,1.686,0,0,0,.492-.194,1.4,1.4,0,0,0,.237-.159c.117-.1.04-.415.053-.555a3.566,3.566,0,0,0,.051-1.207Z" transform="translate(-1853.028 -524.562)"/><path class="bd" d="M1923.782,532.452c-.1-.361-.42-.513-.688-.723-.059-.046-.1-.163-.159-.227l-.2-.239-.249-.29-.53-.456a5.285,5.285,0,0,0-1.241-1.783l-.612.481a4.02,4.02,0,0,0,1.566,1.545c.117.2.216.424.345.607a1.2,1.2,0,0,0,.475.377c.182.084.4.113.531.28.045.058.075.127.118.186a.727.727,0,0,0,.222.182.742.742,0,0,0,.389.12.05.05,0,0,0,.031-.008C1923.789,532.492,1923.787,532.47,1923.782,532.452Z" transform="translate(-1916.693 -528.25)"/><path class="be" d="M1883.351,519.266l1.174.081.237.539a3.168,3.168,0,0,1,.671.818.817.817,0,0,1-.847.35l-.857-.7-.911.389a1.082,1.082,0,0,1-.73-.735A6.071,6.071,0,0,1,1883.351,519.266Z" transform="translate(-1880.612 -519.266)"/></g><g transform="translate(2.432)"><path class="bf" d="M1939.34,485.625a2.923,2.923,0,0,0,.158.923c.057.164.211.41.174.587a.651.651,0,0,1-.036.1.544.544,0,0,0-.046.233.271.271,0,0,0,.105.206c.012-.063.024-.125.036-.188a.137.137,0,0,1,.025-.065.046.046,0,0,1,.062-.011.07.07,0,0,1,.017.029c.042.109.085.218.127.327.023.058.052.122.111.141a1.043,1.043,0,0,0-.1-.762,1.726,1.726,0,0,1-.182-.561,3.793,3.793,0,0,1-.079-.724,1.833,1.833,0,0,1-.012-.337,1.63,1.63,0,0,1,.118-.444,3.766,3.766,0,0,0,.188-.7c.032-.159.072-.352-.111-.468-.2-.127-.316.207-.354.342A4.707,4.707,0,0,0,1939.34,485.625Z" transform="translate(-1937.388 -481.092)"/><path class="bg" d="M1902.5,456.437c-.191-.137-.585-.2-.63-.486a1.514,1.514,0,0,1-.6.03,1.674,1.674,0,0,1-.074.781c-.066.18-.238.314-.272.507a1.031,1.031,0,0,0,.015.278c.038.365.024.759.034,1.13.006.24-.032.315-.026.555-.076.284,1.481.424,1.54.2a2.255,2.255,0,0,0,.037-.484c.025-.248-.023-.743.19-.913.087-.07.161-.137.243-.217a.16.16,0,0,1,.1-.056,2.958,2.958,0,0,0,.547-.08,1.8,1.8,0,0,0-.121-.5,1.614,1.614,0,0,0-.258-.21c-.084-.075-.172-.142-.264-.209Z" transform="translate(-1900.912 -454.581)"/><g transform="translate(1.311)"><path class="bh" d="M1928.1,450.474l-.137.375-.114.312c-.026.07-.035.125-.1.164a.324.324,0,0,1-.213.041.315.315,0,0,1-.211-.142.183.183,0,0,1,0-.2l.316-.685a.134.134,0,0,1,.142-.076l.214.034A.135.135,0,0,1,1928.1,450.474Z" transform="translate(-1927.262 -449.182)"/><path class="bi" d="M1944.485,446.8a.262.262,0,0,1,0,.115.6.6,0,0,1-.19.33c-.083.071-.185.116-.264.192a.247.247,0,0,0-.069.294c.037.059.113.1.122.166a.22.22,0,0,1-.031.113.507.507,0,0,0-.048.29.287.287,0,0,0,.174.224c.1.037.247.007.307.1a.664.664,0,0,1,.04.114.314.314,0,0,0,.307.153.832.832,0,0,0,.767-1.068.578.578,0,0,0-.08-.184,2.888,2.888,0,0,0-.22-.23c-.177-.207-.247-.477-.419-.678a.63.63,0,0,0-.353-.206c-.048-.01-.088.045-.086.094A.847.847,0,0,0,1944.485,446.8Z" transform="translate(-1943.065 -445.634)"/><path class="bj" d="M1927.565,435.884a1.057,1.057,0,0,0-.617.355c-.311.33-.234.555-.07.637a.841.841,0,0,0,.775,0C1928.006,436.714,1927.959,435.865,1927.565,435.884Z" transform="translate(-1926.735 -435.538)"/><path class="bk" d="M1937.606,430.19s.391-.5-.111-.678l-.147.044s-.081-.378.272-.429a.579.579,0,0,1,.661.646c-.006.454-.074.736-.353.862s-.295-.127-.295-.127.178-.145.162-.259-.164-.032-.164-.032Z" transform="translate(-1936.802 -429.121)"/><path class="bl" d="M1942.954,448.865s.2-.26.3-.1-.2.235-.314.253Z" transform="translate(-1942.115 -447.714)"/></g></g></g></g><g transform="translate(4.044 6.304)"><rect class="a" width="7.093" height="11.396" transform="translate(0 0)"/><path class="bm" d="M1899.684,605.74a1.1,1.1,0,0,1,.035-.21.545.545,0,0,0,.039-.234.269.269,0,0,0-.112-.2c-.01.063-.02.126-.03.189a.132.132,0,0,1-.022.065.046.046,0,0,1-.062.013.073.073,0,0,1-.018-.028l-.138-.322c-.024-.057-.056-.121-.116-.138a2.919,2.919,0,0,0,0,.444.975.975,0,0,0,.105.282,1.487,1.487,0,0,1,.137.646q.024.362.053.724c.036.449.078.9.129,1.344q.034.294.073.588l.513-.131A23.371,23.371,0,0,1,1899.684,605.74Z" transform="translate(-1896.902 -604.872)"/><g transform="translate(0 2.422)"><g transform="translate(0 4.603)"><path class="bn" d="M1854.091,749.964c-.029-.086-.117-.316-.172-.294a21.819,21.819,0,0,0,2.37-.924l-.771-.711a17.568,17.568,0,0,0-1.689.8c-.169.091-.55.206-.585.42-.028.176.09.355.132.52.064.251.13.5.194.752.019.075.283,1.028.191,1.046a1.227,1.227,0,0,0-.667.368c-.164.181.006.195.172.162a1.687,1.687,0,0,0,.492-.194,1.414,1.414,0,0,0,.237-.16c.117-.1.04-.416.053-.556a3.563,3.563,0,0,0,.051-1.206Z" transform="translate(-1853.028 -747.75)"/><path class="bo" d="M1923.782,755.64c-.1-.361-.42-.513-.688-.723-.059-.046-.1-.163-.159-.227l-.2-.239-.249-.29-.53-.456a5.283,5.283,0,0,0-1.241-1.783l-.612.481a4.021,4.021,0,0,0,1.566,1.545c.117.2.216.424.345.607a1.192,1.192,0,0,0,.475.377c.182.084.4.113.531.28.045.058.075.127.118.186a.728.728,0,0,0,.222.182.743.743,0,0,0,.389.12.049.049,0,0,0,.031-.008C1923.789,755.68,1923.787,755.658,1923.782,755.64Z" transform="translate(-1916.693 -751.438)"/><path class="bp" d="M1883.351,742.454l1.174.081.237.539a3.17,3.17,0,0,1,.671.818.817.817,0,0,1-.847.35l-.857-.7-.911.389a1.082,1.082,0,0,1-.73-.735A6.066,6.066,0,0,1,1883.351,742.454Z" transform="translate(-1880.612 -742.454)"/></g><g transform="translate(2.432)"><path class="bq" d="M1939.34,708.812a2.924,2.924,0,0,0,.158.924c.057.164.211.409.174.587a.673.673,0,0,1-.036.1.542.542,0,0,0-.046.233.271.271,0,0,0,.105.205c.012-.062.024-.125.036-.188a.136.136,0,0,1,.025-.065.046.046,0,0,1,.062-.011.07.07,0,0,1,.017.028l.127.327c.023.058.052.122.111.142a1.043,1.043,0,0,0-.1-.762,1.724,1.724,0,0,1-.182-.561,3.8,3.8,0,0,1-.079-.724,1.833,1.833,0,0,1-.012-.337,1.626,1.626,0,0,1,.118-.443,3.773,3.773,0,0,0,.188-.7c.032-.159.072-.352-.111-.468-.2-.127-.316.207-.354.341A4.709,4.709,0,0,0,1939.34,708.812Z" transform="translate(-1937.388 -704.279)"/><path class="br" d="M1902.5,679.625c-.191-.137-.585-.2-.63-.486a1.513,1.513,0,0,1-.6.03,1.674,1.674,0,0,1-.074.781c-.066.18-.238.314-.272.507a1.029,1.029,0,0,0,.015.278c.038.366.024.759.034,1.13.006.24-.032.315-.026.555-.076.285,1.481.424,1.54.2a2.256,2.256,0,0,0,.037-.484c.025-.248-.023-.743.19-.913.087-.07.161-.137.243-.217a.161.161,0,0,1,.1-.056,2.969,2.969,0,0,0,.547-.08,1.8,1.8,0,0,0-.121-.5,1.612,1.612,0,0,0-.258-.211c-.084-.075-.172-.142-.264-.209Z" transform="translate(-1900.912 -677.769)"/><g transform="translate(1.311)"><path class="bs" d="M1928.1,673.662l-.137.375-.114.312c-.026.07-.035.125-.1.164a.325.325,0,0,1-.213.041.318.318,0,0,1-.211-.142.183.183,0,0,1,0-.2l.316-.685a.133.133,0,0,1,.142-.076l.214.033A.135.135,0,0,1,1928.1,673.662Z" transform="translate(-1927.262 -672.37)"/><path class="bt" d="M1944.485,669.988a.261.261,0,0,1,0,.115.6.6,0,0,1-.19.329c-.083.071-.185.116-.264.192a.247.247,0,0,0-.069.294c.037.059.113.1.122.166a.22.22,0,0,1-.031.113.507.507,0,0,0-.048.29.287.287,0,0,0,.174.224c.1.037.247.007.307.1a.668.668,0,0,1,.04.114.314.314,0,0,0,.307.153.832.832,0,0,0,.767-1.068.576.576,0,0,0-.08-.184,2.933,2.933,0,0,0-.22-.23c-.177-.207-.247-.476-.419-.678a.63.63,0,0,0-.353-.206c-.048-.01-.088.045-.086.094A.85.85,0,0,0,1944.485,669.988Z" transform="translate(-1943.065 -668.822)"/><path class="bu" d="M1927.565,659.072a1.059,1.059,0,0,0-.617.355c-.311.33-.234.556-.07.637a.841.841,0,0,0,.775,0C1928.006,659.9,1927.959,659.053,1927.565,659.072Z" transform="translate(-1926.735 -658.726)"/><path class="bv" d="M1937.606,653.378s.391-.5-.111-.678l-.147.044s-.081-.378.272-.428a.579.579,0,0,1,.661.646c-.006.454-.074.736-.353.862s-.295-.127-.295-.127.178-.145.162-.259-.164-.032-.164-.032Z" transform="translate(-1936.802 -652.309)"/><path class="bw" d="M1942.954,672.054s.2-.26.3-.1-.2.235-.314.253Z" transform="translate(-1942.115 -670.902)"/></g></g></g></g><g transform="translate(-3.049 -5.092)"><rect class="a" width="7.093" height="11.396"/><path class="bx" d="M1760.016,382.553a1.127,1.127,0,0,1,.035-.21.55.55,0,0,0,.039-.234.272.272,0,0,0-.112-.2c-.011.063-.02.126-.031.189a.139.139,0,0,1-.022.065.047.047,0,0,1-.062.013.072.072,0,0,1-.018-.028l-.139-.322c-.024-.057-.056-.121-.115-.138a2.9,2.9,0,0,0,0,.443.978.978,0,0,0,.1.282,1.491,1.491,0,0,1,.137.645q.024.362.053.724c.036.449.078.9.129,1.344q.033.294.073.588l.513-.131A23.438,23.438,0,0,1,1760.016,382.553Z" transform="translate(-1757.234 -381.685)"/><g transform="translate(0 2.422)"><g transform="translate(0 4.603)"><path class="by" d="M1714.423,526.776c-.029-.086-.117-.316-.172-.295a21.839,21.839,0,0,0,2.37-.924l-.771-.711a17.618,17.618,0,0,0-1.689.8c-.169.091-.55.205-.585.421-.028.176.09.355.132.52.064.251.131.5.194.752.019.075.283,1.028.191,1.046a1.225,1.225,0,0,0-.667.368c-.164.182.006.2.173.162a1.693,1.693,0,0,0,.491-.194,1.4,1.4,0,0,0,.237-.159c.117-.1.04-.415.053-.555a3.557,3.557,0,0,0,.051-1.207S1714.428,526.789,1714.423,526.776Z" transform="translate(-1713.36 -524.562)"/><path class="bz" d="M1784.114,532.452c-.1-.361-.42-.513-.689-.723a1.94,1.94,0,0,1-.159-.227l-.2-.239-.248-.29-.53-.456a5.276,5.276,0,0,0-1.242-1.783l-.612.481a4.022,4.022,0,0,0,1.566,1.545c.118.2.216.424.344.607a1.2,1.2,0,0,0,.476.377c.182.084.4.113.53.28.046.058.076.127.119.186a.725.725,0,0,0,.222.182.743.743,0,0,0,.389.12.049.049,0,0,0,.031-.008C1784.122,532.492,1784.119,532.47,1784.114,532.452Z" transform="translate(-1777.025 -528.25)"/><path class="ca" d="M1743.683,519.266l1.174.081.237.539a3.185,3.185,0,0,1,.671.818.818.818,0,0,1-.848.35l-.857-.7-.911.389a1.081,1.081,0,0,1-.73-.735A6.089,6.089,0,0,1,1743.683,519.266Z" transform="translate(-1740.944 -519.266)"/></g><g transform="translate(2.432)"><path class="cb" d="M1799.672,485.625a2.954,2.954,0,0,0,.158.923c.058.164.211.41.175.587a.639.639,0,0,1-.036.1.549.549,0,0,0-.046.233.269.269,0,0,0,.106.206l.036-.188a.135.135,0,0,1,.025-.065.046.046,0,0,1,.062-.011.071.071,0,0,1,.017.029l.128.327c.022.058.052.122.111.141a1.041,1.041,0,0,0-.1-.762,1.726,1.726,0,0,1-.182-.561,3.773,3.773,0,0,1-.079-.724,1.812,1.812,0,0,1-.012-.337,1.617,1.617,0,0,1,.118-.444,3.794,3.794,0,0,0,.188-.7c.031-.159.072-.352-.111-.468-.2-.127-.316.207-.354.342A4.711,4.711,0,0,0,1799.672,485.625Z" transform="translate(-1797.72 -481.092)"/><path class="cc" d="M1762.827,456.437c-.191-.137-.585-.2-.63-.486a1.515,1.515,0,0,1-.6.03,1.671,1.671,0,0,1-.074.781c-.066.18-.239.314-.272.507a1.041,1.041,0,0,0,.016.278c.038.365.024.759.034,1.13.006.24-.031.315-.025.555-.076.284,1.481.424,1.54.2a2.239,2.239,0,0,0,.037-.484c.025-.248-.022-.743.19-.913.087-.07.161-.137.243-.217a.16.16,0,0,1,.1-.056,2.966,2.966,0,0,0,.547-.08,1.817,1.817,0,0,0-.121-.5,1.6,1.6,0,0,0-.259-.21c-.084-.075-.172-.142-.264-.209Z" transform="translate(-1761.244 -454.581)"/><g transform="translate(1.311)"><path class="cd" d="M1788.43,450.474c-.046.125-.092.25-.137.375l-.114.312c-.026.07-.035.125-.1.164a.324.324,0,0,1-.213.041.314.314,0,0,1-.211-.142.181.181,0,0,1,0-.2l.316-.685a.134.134,0,0,1,.142-.076l.214.034A.135.135,0,0,1,1788.43,450.474Z" transform="translate(-1787.593 -449.182)"/><path class="ce" d="M1804.817,446.8a.271.271,0,0,1,0,.115.6.6,0,0,1-.19.33c-.083.071-.185.116-.264.192a.248.248,0,0,0-.069.294c.037.059.114.1.122.166a.22.22,0,0,1-.031.113.505.505,0,0,0-.048.29.287.287,0,0,0,.173.224c.1.037.247.007.307.1a.7.7,0,0,1,.041.114.312.312,0,0,0,.306.153.832.832,0,0,0,.767-1.068.6.6,0,0,0-.079-.184,3,3,0,0,0-.22-.23c-.177-.207-.247-.477-.419-.678a.63.63,0,0,0-.353-.206c-.048-.01-.088.045-.086.094A.819.819,0,0,0,1804.817,446.8Z" transform="translate(-1803.397 -445.634)"/><path class="cf" d="M1787.9,435.884a1.058,1.058,0,0,0-.617.355c-.311.33-.234.555-.071.637a.842.842,0,0,0,.775,0C1788.339,436.714,1788.291,435.865,1787.9,435.884Z" transform="translate(-1787.067 -435.538)"/><path class="cg" d="M1797.937,430.19s.391-.5-.111-.678l-.146.044s-.081-.378.272-.429a.579.579,0,0,1,.661.646c-.006.454-.074.736-.353.862s-.295-.127-.295-.127.177-.145.162-.259-.164-.032-.164-.032Z" transform="translate(-1797.133 -429.121)"/><path class="ch" d="M1803.286,448.865s.2-.26.3-.1-.2.235-.314.253Z" transform="translate(-1802.447 -447.714)"/></g></g></g></g><g transform="translate(-3.049 6.304)"><rect class="a" width="7.093" height="11.396" transform="translate(0 0)"/><path class="ci" d="M1760.016,605.74a1.127,1.127,0,0,1,.035-.21.55.55,0,0,0,.039-.234.272.272,0,0,0-.112-.2c-.011.063-.02.126-.031.189a.137.137,0,0,1-.022.065.047.047,0,0,1-.062.013.072.072,0,0,1-.018-.028c-.046-.107-.092-.215-.139-.322-.024-.057-.056-.121-.115-.138a2.907,2.907,0,0,0,0,.444.977.977,0,0,0,.1.282,1.49,1.49,0,0,1,.137.646q.024.362.053.724c.036.449.078.9.129,1.344q.033.294.073.588l.513-.131A23.431,23.431,0,0,1,1760.016,605.74Z" transform="translate(-1757.234 -604.872)"/><g transform="translate(0 2.422)"><g transform="translate(0 4.603)"><path class="cj" d="M1714.423,749.964c-.029-.086-.117-.316-.172-.294a21.839,21.839,0,0,0,2.37-.924l-.771-.711a17.531,17.531,0,0,0-1.689.8c-.169.091-.55.206-.585.42-.028.176.09.355.132.52.064.251.131.5.194.752.019.075.283,1.028.191,1.046a1.227,1.227,0,0,0-.667.368c-.164.181.006.195.173.162a1.7,1.7,0,0,0,.491-.194,1.41,1.41,0,0,0,.237-.16c.117-.1.04-.416.053-.556a3.554,3.554,0,0,0,.051-1.206A.282.282,0,0,0,1714.423,749.964Z" transform="translate(-1713.36 -747.75)"/><path class="ck" d="M1784.114,755.64c-.1-.361-.42-.513-.689-.723a1.959,1.959,0,0,1-.159-.227l-.2-.239-.248-.29-.53-.456a5.274,5.274,0,0,0-1.242-1.783l-.612.481a4.024,4.024,0,0,0,1.566,1.545c.118.2.216.424.344.607a1.192,1.192,0,0,0,.476.377c.182.084.4.113.53.28.046.058.076.127.119.186a.726.726,0,0,0,.222.182.743.743,0,0,0,.389.12.048.048,0,0,0,.031-.008C1784.122,755.68,1784.119,755.658,1784.114,755.64Z" transform="translate(-1777.025 -751.438)"/><path class="cl" d="M1743.683,742.454l1.174.081.237.539a3.186,3.186,0,0,1,.671.818.818.818,0,0,1-.848.35l-.857-.7-.911.389a1.081,1.081,0,0,1-.73-.735A6.084,6.084,0,0,1,1743.683,742.454Z" transform="translate(-1740.944 -742.454)"/></g><g transform="translate(2.432)"><path class="cm" d="M1799.672,708.812a2.955,2.955,0,0,0,.158.924c.058.164.211.409.175.587a.661.661,0,0,1-.036.1.548.548,0,0,0-.046.233.269.269,0,0,0,.106.205l.036-.188a.134.134,0,0,1,.025-.065.046.046,0,0,1,.062-.011.071.071,0,0,1,.017.028l.128.327c.022.058.052.122.111.142a1.041,1.041,0,0,0-.1-.762,1.724,1.724,0,0,1-.182-.561,3.777,3.777,0,0,1-.079-.724,1.811,1.811,0,0,1-.012-.337,1.613,1.613,0,0,1,.118-.443,3.8,3.8,0,0,0,.188-.7c.031-.159.072-.352-.111-.468-.2-.127-.316.207-.354.341A4.713,4.713,0,0,0,1799.672,708.812Z" transform="translate(-1797.72 -704.279)"/><path class="cn" d="M1762.827,679.625c-.191-.137-.585-.2-.63-.486a1.513,1.513,0,0,1-.6.03,1.671,1.671,0,0,1-.074.781c-.066.18-.239.314-.272.507a1.039,1.039,0,0,0,.016.278c.038.366.024.759.034,1.13.006.24-.031.315-.025.555-.076.285,1.481.424,1.54.2a2.24,2.24,0,0,0,.037-.484c.025-.248-.022-.743.19-.913.087-.07.161-.137.243-.217a.16.16,0,0,1,.1-.056,2.976,2.976,0,0,0,.547-.08,1.814,1.814,0,0,0-.121-.5,1.6,1.6,0,0,0-.259-.211c-.084-.075-.172-.142-.264-.209Z" transform="translate(-1761.244 -677.769)"/><g transform="translate(1.311)"><path class="co" d="M1788.43,673.662c-.046.125-.092.25-.137.375l-.114.312c-.026.07-.035.125-.1.164a.326.326,0,0,1-.213.041.316.316,0,0,1-.211-.142.18.18,0,0,1,0-.2l.316-.685a.133.133,0,0,1,.142-.076l.214.033A.135.135,0,0,1,1788.43,673.662Z" transform="translate(-1787.593 -672.37)"/><path class="cp" d="M1804.817,669.988a.27.27,0,0,1,0,.115.6.6,0,0,1-.19.329c-.083.071-.185.116-.264.192a.249.249,0,0,0-.069.294c.037.059.114.1.122.166a.22.22,0,0,1-.031.113.506.506,0,0,0-.048.29.288.288,0,0,0,.173.224c.1.037.247.007.307.1a.7.7,0,0,1,.041.114.313.313,0,0,0,.306.153.832.832,0,0,0,.767-1.068.592.592,0,0,0-.079-.184,3.051,3.051,0,0,0-.22-.23c-.177-.207-.247-.476-.419-.678a.629.629,0,0,0-.353-.206c-.048-.01-.088.045-.086.094A.821.821,0,0,0,1804.817,669.988Z" transform="translate(-1803.397 -668.822)"/><path class="cq" d="M1787.9,659.072a1.059,1.059,0,0,0-.617.355c-.311.33-.234.556-.071.637a.842.842,0,0,0,.775,0C1788.339,659.9,1788.291,659.053,1787.9,659.072Z" transform="translate(-1787.067 -658.726)"/><path class="cr" d="M1797.937,653.378s.391-.5-.111-.678l-.146.044s-.081-.378.272-.428a.579.579,0,0,1,.661.646c-.006.454-.074.736-.353.862s-.295-.127-.295-.127.177-.145.162-.259-.164-.032-.164-.032Z" transform="translate(-1797.133 -652.309)"/><path class="cs" d="M1803.286,672.054s.2-.26.3-.1-.2.235-.314.253Z" transform="translate(-1802.447 -670.902)"/></g></g></g></g></g></g><path class="ct" d="M1801.036,608.83a17.779,17.779,0,0,0,8.129.254.389.389,0,0,1,.461.383v.266a.39.39,0,0,1-.318.385,17.848,17.848,0,0,1-8.49-.539.393.393,0,0,1-.183-.63h0A.385.385,0,0,1,1801.036,608.83Z" transform="translate(-1749.227 -602.31)"/></g></g></svg>