<svg xmlns="http://www.w3.org/2000/svg" width="87" height="216.292" viewBox="0 0 87 216.292"><defs><style>.a{fill:#f8c83d;}.b{fill:#463f43;}.c{fill:#d1d3d5;}.d,.g{fill:#fff;}.d{opacity:0.3;}.e{fill:#e8e6e7;}.f{opacity:0.2;}.g{opacity:0.5;}.h{fill:#bcbdbe;}.i{fill:#f6f8fe;}</style></defs><g transform="translate(-251 -170.708)"><g transform="translate(98.487 -75.542)"><path class="a" d="M220.435,287.84V433.667a7.079,7.079,0,0,1-4.114,6.167,77.169,77.169,0,0,1-55.267.011,7.1,7.1,0,0,1-4.117-6.178V287.84c0-10.515,8.943-19.427,21.375-22.678a3.947,3.947,0,0,0,2.9-3.612V255.9h14.941v5.654a3.956,3.956,0,0,0,2.91,3.612C211.491,268.414,220.435,277.325,220.435,287.84Z" transform="translate(0.002 16.276)"/><path class="b" d="M220.431,313.256v23.627a7.071,7.071,0,0,1-4.114,6.167,77.156,77.156,0,0,1-55.267.013,7.107,7.107,0,0,1-4.114-6.181V313.256A117.886,117.886,0,0,0,220.431,313.256Z" transform="translate(0 113.06)"/><rect class="c" width="23.673" height="7.24" transform="translate(175.316 256.747)"/><path class="b" d="M160.611,261.113A2.469,2.469,0,0,1,158.6,260.1a9.282,9.282,0,0,1,0-9.774,2.461,2.461,0,0,1,2.013-1.016,80.21,80.21,0,0,1,15.648,2.252,8.534,8.534,0,0,0,0,7.3A80.208,80.208,0,0,1,160.611,261.113Z" transform="translate(0.46 5.158)"/><path class="d" d="M159.423,253.9a2.571,2.571,0,0,1,1.8-1.389,75.407,75.407,0,0,1,12.415-1.156,69.153,69.153,0,0,0-12.808-1.733,2.279,2.279,0,0,0-1.862.943,8.583,8.583,0,0,0,0,9.051,1.568,1.568,0,0,0,.438.449A8.643,8.643,0,0,1,159.423,253.9Z" transform="translate(1.26 5.681)"/><rect class="c" width="9.747" height="21.351" transform="translate(183.809 250.822)"/><path class="c" d="M176.682,250.821a4.883,4.883,0,1,1-4.872-4.571A4.724,4.724,0,0,1,176.682,250.821Z" transform="translate(16.873)"/><path class="e" d="M174.97,250.35a3.821,3.821,0,1,1-3.821-3.821A3.821,3.821,0,0,1,174.97,250.35Z" transform="translate(17.535 0.471)"/><g class="f" transform="translate(181.209 272.17)"><rect width="14.941" height="3.711"/></g><g transform="translate(178.982 269.941)"><path class="e" d="M182.314,259.527H167.367a2.23,2.23,0,0,1,0-4.461h14.947a2.23,2.23,0,0,1,0,4.461Z" transform="translate(-165.139 -255.066)"/></g><path class="g" d="M166.82,258.569a2.194,2.194,0,0,1,1.862-2.548l9.873-.787H167.491a2,2,0,0,0-2.136,1.819,1.879,1.879,0,0,0,1.508,1.731A2.162,2.162,0,0,1,166.82,258.569Z" transform="translate(14.207 15.159)"/><path class="h" d="M173.762,249.885a3.08,3.08,0,1,1-3.08-3.08A3.079,3.079,0,0,1,173.762,249.885Z" transform="translate(18 0.936)"/><path class="e" d="M169.979,248.194a.951.951,0,1,1-.951-.951A.953.953,0,0,1,169.979,248.194Z" transform="translate(18.798 1.675)"/></g><rect class="i" width="87" height="11" transform="translate(251 376)"/></g></svg>