<svg xmlns="http://www.w3.org/2000/svg" width="78.776" height="199" viewBox="0 0 78.776 199"><defs><style>.a,.c{fill:#463f43;}.a,.b{fill-rule:evenodd;}.b{fill:#f8c83d;}</style></defs><g transform="translate(-250.761 -177.5)"><path class="a" d="M351.815,143.138v-1.819H353.7a1.987,1.987,0,1,0,0-3.973h-1.881v-1.261h10.427a12.885,12.885,0,0,0,12.869-12.866V78.006A12.885,12.885,0,0,0,362.241,65.14H329.27A12.885,12.885,0,0,0,316.4,78.006v45.214a12.885,12.885,0,0,0,12.87,12.866H339.7v1.261h-1.881a1.987,1.987,0,0,0,0,3.973H339.7v1.819a1.98,1.98,0,0,0,1.976,1.989h8.159a1.977,1.977,0,0,0,1.984-1.989Zm-14.1-4.228h16.14a.446.446,0,0,1,.447.447h0a.448.448,0,0,1-.447.447h-16.14a.448.448,0,0,1-.447-.447h0a.446.446,0,0,1,.447-.447Zm-17.345-15.691V78.006a8.9,8.9,0,0,1,8.895-8.9h32.972a8.9,8.9,0,0,1,8.9,8.9v45.214a8.908,8.908,0,0,1-8.9,8.9H329.27a8.9,8.9,0,0,1-8.895-8.9Zm23.281,12.866h4.188v1.261h-4.188v-1.261Zm0,6.5v-1.267h4.188v1.267Z" transform="translate(-65.639 112.36)"/><path class="b" d="M329.343,107.976v42.531a8.7,8.7,0,0,0,8.7,8.693h32.228a8.7,8.7,0,0,0,8.7-8.693V107.976Z" transform="translate(-74.038 84.565)"/><path class="c" d="M347.131,295.751a1.292,1.292,0,0,1,2.583,0c0,9.686-6.567,19.517-13.163,29.392-7.018,10.507-14.073,21.07-12.75,30.99.979,7.345,4.176,13,8.732,16.895a28.181,28.181,0,0,0,16.26,6.4,38.99,38.99,0,0,0,15.378-2.013,117.126,117.126,0,0,0-11.4-9.594A115.314,115.314,0,0,1,342,358.8a23.122,23.122,0,0,1-5.96-10.086,18.608,18.608,0,0,1-.433-8.5,13.888,13.888,0,0,1,3.768-7.25,14.634,14.634,0,0,1,6.572-3.729c5.923-1.648,13.438,1.085,18.915,4.735a15.584,15.584,0,0,1,11.123-9.513,19.355,19.355,0,0,1,12.372,1.072,16.361,16.361,0,0,1,6.148,4.938,17.947,17.947,0,0,1,3.264,7.148,20.674,20.674,0,0,1-1.558,13.013c-6.307,13.635-16.237,22.743-26.822,27.51-.251.116-.5.227-.756.334a23.608,23.608,0,0,1,5.419,10.64,15.168,15.168,0,0,1,.27,2.833c0,5.277-2.764,10.038-6.682,13.688a28.273,28.273,0,0,1-13.413,6.974,18.093,18.093,0,0,1-3.363.337,1.292,1.292,0,0,1,0-2.584,15.372,15.372,0,0,0,2.888-.286,25.6,25.6,0,0,0,12.133-6.327c3.432-3.2,5.855-7.313,5.855-11.8a12.844,12.844,0,0,0-.218-2.358,21.854,21.854,0,0,0-5.424-10.111,41.891,41.891,0,0,1-17.5,2.522,30.714,30.714,0,0,1-17.732-7.008c-5.023-4.293-8.54-10.493-9.611-18.52-1.449-10.874,5.877-21.843,13.164-32.753,6.372-9.544,12.718-19.041,12.718-27.96Zm19.687,80.681c.5-.206,1.009-.424,1.511-.649,10.064-4.535,19.516-13.218,25.539-26.241a18.087,18.087,0,0,0,1.377-11.4,15.345,15.345,0,0,0-2.788-6.117,13.792,13.792,0,0,0-5.182-4.163,16.838,16.838,0,0,0-10.756-.893,13.161,13.161,0,0,0-9.512,8.553q.5.4.97.8a18.808,18.808,0,0,1,3.321,3.631,5.956,5.956,0,0,1,1.211,3.732,3.439,3.439,0,0,1-2.667,3v0l0,0a4.126,4.126,0,0,1-4.919-1.385,7.428,7.428,0,0,1-1.333-3.722,14.544,14.544,0,0,1,.313-4.609l.113-.484c-4.988-3.511-12.014-6.275-17.38-4.785a12.153,12.153,0,0,0-5.434,3.061,11.371,11.371,0,0,0-3.059,5.931,16.045,16.045,0,0,0,.381,7.324,20.524,20.524,0,0,0,5.295,8.945,113.035,113.035,0,0,0,10.527,8.806,109.624,109.624,0,0,1,12.477,10.656Zm-.547-38.177a11.309,11.309,0,0,0-.12,3.059,4.919,4.919,0,0,0,.815,2.431,1.728,1.728,0,0,0,2.073.5h0c.594-.194.88-.472.909-.79a3.617,3.617,0,0,0-.8-2.069,16.264,16.264,0,0,0-2.857-3.109l-.021-.018Z" transform="translate(-68.665 -36.438)"/></g></svg>