<svg xmlns="http://www.w3.org/2000/svg" width="21.3" height="27.783" viewBox="0 0 21.3 27.783"><defs><style>.a{fill:#2f61f5;}.b,.c{fill:#f4532f;}.c{font-size:5px;font-family:Lato-Regular, Lato;}.d{font-size:2.917px;baseline-shift:-1.666500052313606;}</style></defs><g transform="translate(-158.7 -648.783)"><path class="a" d="M36.374,253.891H21.836l-1.295-2.471,1.271-.848L21.3,249.8l-1.19.793-.347-.662,1.124-.749-.514-.771-1.043.7-1.006-1.921L19.5,246.4a.463.463,0,0,0,.157-.592l-.637-1.273a2.378,2.378,0,0,1,1.425,1.218l1.161,2.322a.463.463,0,0,0,.877-.207V240h-.926v5.911l-.284-.568A3.344,3.344,0,0,0,18.2,243.5a3.288,3.288,0,0,0-2.036.77.463.463,0,0,0-.114.571l5.093,9.724a.463.463,0,0,0,.41.248h15.28a.463.463,0,0,0,.463-.463v-2.778h-.926Zm-19.314-9.12a2.354,2.354,0,0,1,.882-.316l.7,1.406-.752.5Z" transform="translate(142.7 421.748)"/><path class="a" d="M95.28,30.817a2.3,2.3,0,0,0-1.637.678,2.349,2.349,0,0,0-.216.248,2.314,2.314,0,0,0-3.488-.248,2.346,2.346,0,0,0-.216.248,2.315,2.315,0,0,0-3.24-.464v-3.24a1.854,1.854,0,0,0,1.852-1.852V24.8h-.926v1.389a.927.927,0,0,1-.926.926h-4.63a.927.927,0,0,1-.926-.926V17.852a.927.927,0,0,1,.926-.926h4.63a.927.927,0,0,1,.926.926v3.241h.926V17.852A1.854,1.854,0,0,0,86.483,16h-4.63A1.854,1.854,0,0,0,80,17.852v8.335a1.854,1.854,0,0,0,1.852,1.852h3.7v5.093a.463.463,0,1,0,.926,0,1.389,1.389,0,1,1,2.778,0,.463.463,0,0,0,.926,0,1.389,1.389,0,0,1,2.778,0,.463.463,0,0,0,.926,0,1.389,1.389,0,1,1,2.778,0v6.483H97.6V33.133A2.318,2.318,0,0,0,95.28,30.817Z" transform="translate(82.404 632.783)"/><path class="a" d="M112.463,48a.463.463,0,0,0-.463.463v7.409a.463.463,0,0,0,.463.463h3.7a.463.463,0,0,0,.463-.463V48.463a.463.463,0,0,0-.463-.463Zm3.241,7.409h-2.778v-.926H115.7Zm0-1.852h-2.778v-4.63H115.7Z" transform="translate(52.256 602.635)"/><rect class="b" width="1" height="1" transform="translate(166.2 652.283)"/><rect class="b" width="1" height="1" transform="translate(166.2 654.283)"/><path class="a" d="M210.129,23.01V17.752A1.6,1.6,0,0,0,208.76,16h-6.023a1.6,1.6,0,0,0-1.369,1.752v2.255l-1.236.949a.406.406,0,0,0,0,.6l1.236.949v2.255a1.6,1.6,0,0,0,1.369,1.752h6.023a1.6,1.6,0,0,0,1.369-1.752V23.711h-.548v1.051a.959.959,0,0,1-.821,1.051h-6.023a.959.959,0,0,1-.821-1.051V22.309a.379.379,0,0,0-.133-.3l-.978-.751.978-.751a.379.379,0,0,0,.133-.3V17.752a.959.959,0,0,1,.821-1.051h6.023a.959.959,0,0,1,.821,1.051V23.01Z" transform="translate(-30.129 634.345)"/><rect class="b" width="0.926" height="2.619" transform="translate(158.835 650.962) rotate(-45)"/><rect class="b" width="2.619" height="0.926" transform="translate(158.835 658.642) rotate(-45)"/><rect class="b" width="2" height="1" transform="translate(158.7 654.283)"/><text class="c" transform="translate(172.7 656.283)"><tspan x="0" y="0">O</tspan><tspan class="d" y="0">2</tspan></text></g></svg>