<svg xmlns="http://www.w3.org/2000/svg" width="28" height="24.063" viewBox="0 0 28 24.063"><defs><style>.a{fill:#f4532f;}.b{fill:#2f61f5;}</style></defs><g transform="translate(0 0.001)"><path class="a" d="M124.094.547A.547.547,0,1,1,123.547,0,.547.547,0,0,1,124.094.547Zm0,0" transform="translate(-116.274 -0.001)"/><path class="b" d="M20.727,0C17.62,0,15.341,2.082,14,4.843A8.8,8.8,0,0,0,9.9.548a.547.547,0,1,0-.443,1c2.88,1.277,4,4.864,4.015,4.9A.546.546,0,0,0,14,6.835h0a.547.547,0,0,0,.523-.387c.649-2.137,2.757-5.354,6.2-5.354a6.357,6.357,0,0,1,6.18,6.646,8.306,8.306,0,0,1-2.214,5.386H20.323L18.629,6.964a.547.547,0,0,0-1.046-.028L14.82,15.223,13.7,11.858a.547.547,0,0,0-.519-.374H10.293L8.777,6.936a.547.547,0,0,0-1.046.028L6.036,13.125H3.308A8.306,8.306,0,0,1,1.094,7.739,6.56,6.56,0,0,1,5.058,1.513.547.547,0,1,0,4.652.5,7.685,7.685,0,0,0,0,7.739a8.969,8.969,0,0,0,1.929,5.386H.547a.547.547,0,0,0,0,1.094H2.8c2.429,2.825,6.3,5.732,10.843,9.709a.547.547,0,0,0,.72,0c4.539-3.971,8.415-6.885,10.843-9.709h2.25a.547.547,0,0,0,0-1.094H26.07A8.97,8.97,0,0,0,28,7.739,7.452,7.452,0,0,0,20.726,0ZM14,22.789c-3.982-3.463-7.409-6.1-9.731-8.571H6.453a.547.547,0,0,0,.527-.4L8.308,8.989,9.38,12.2a.547.547,0,0,0,.519.374h2.887L14.3,17.125a.547.547,0,0,0,1.038,0l2.712-8.137,1.327,4.828a.546.546,0,0,0,.527.4h3.825C21.41,16.686,17.977,19.331,14,22.789Zm0,0"/></g></svg>