<svg xmlns="http://www.w3.org/2000/svg" width="48" height="48" viewBox="0 0 48 48"><defs><style>.a{fill:#fff;}.b,.d{fill:none;}.b{stroke:#fff;}.c{stroke:none;}</style></defs><g transform="translate(-163 -1051)"><g transform="translate(175.182 1066.222)"><path class="a" d="M250.53,473.43h-1.512a3.4,3.4,0,0,1-3.39-3.692l.263-4.141c.153.092.311.162.467.243a6.719,6.719,0,0,0,1.294.537,2.366,2.366,0,0,0,1.664,2.361.423.423,0,0,0,.19-.825,1.422,1.422,0,0,1-.985-1.341,7.435,7.435,0,0,0,1.071.1.423.423,0,1,0,0-.846h-.012a7.336,7.336,0,0,1-5.109-2.466,1.738,1.738,0,0,0-2.517,0,7.026,7.026,0,0,1-5.121,2.466.423.423,0,0,0,0,.847,6.908,6.908,0,0,0,1.04-.09,1.418,1.418,0,0,1-.984,1.333.423.423,0,0,0,.19.825,2.362,2.362,0,0,0,1.664-2.352,7.332,7.332,0,0,0,1.031-.391c.006,0,.72-.373.817-.432.311,4.869.26,4.1.267,4.184a3.4,3.4,0,0,1-3.391,3.683h-1.346a.423.423,0,1,0,0,.847h1.346a4.252,4.252,0,0,0,4.235-4.6l-.3-4.7a10.313,10.313,0,0,0,1.166-1.046.878.878,0,0,1,.644-.276c.613,0,.56.369,1.865,1.372l-.3,4.646a4.25,4.25,0,0,0,4.235,4.6h1.512a.423.423,0,1,0,0-.847Zm0,0" transform="translate(-230.925 -455.064)"/><path class="a" d="M538.358,17.39c-.884-6.6-1.719-12.84-5.818-15.556a3.307,3.307,0,0,0-1.833-.55c-1.688,0-4.3,1.282-4.445,3.052l-.094,1.128a2.167,2.167,0,0,1-.54-1.321V-5.377A.423.423,0,0,0,525.2-5.8a.423.423,0,0,0-.423.423V4.143a2.5,2.5,0,0,0,.372,1.315,12.146,12.146,0,0,0,1.029,1.4,6.967,6.967,0,0,0,1.885,1.559c.029.017.057.042.087.058a.831.831,0,0,0,.144.065,4.856,4.856,0,0,0,2.033.521A.391.391,0,0,0,530.492,9c.045-.02.1-.021.135-.055a.423.423,0,0,0-.291-.725,3.648,3.648,0,0,1-.6-.082,2.463,2.463,0,0,0,.974-1.425.423.423,0,1,0-.817-.221,1.582,1.582,0,0,1-1.345,1.231,6.118,6.118,0,0,1-1.609-1.287l.168-2.027c.1-1.234,2.284-2.276,3.6-2.276a2.462,2.462,0,0,1,1.365.409c3.778,2.5,4.588,8.556,5.446,14.963l.014.1a.671.671,0,0,1-.665.759h-3.754a.423.423,0,1,0,0,.847h3.754a1.518,1.518,0,0,0,1.5-1.718Zm0,0" transform="translate(-511.647)"/><path class="a" d="M4.21,2.54A2.462,2.462,0,0,1,5.575,2.13c1.316,0,3.5,1.042,3.6,2.276l.163,1.963c-.147.164-.3.3-.447.439A3.328,3.328,0,0,1,8.02,7.5c-.111.072-.221.163-.333.224A1.6,1.6,0,0,1,6.3,6.489a.423.423,0,1,0-.817.221,2.466,2.466,0,0,0,.976,1.427,3.708,3.708,0,0,1-.573.081.424.424,0,0,0-.29.725c.026.026.07.024.1.042a.381.381,0,0,0,.2.08A5.835,5.835,0,0,0,8.047,8.5,8.545,8.545,0,0,0,11.07,5.459a2.5,2.5,0,0,0,.371-1.313V-5.377a.423.423,0,0,0-.423-.423.423.423,0,0,0-.423.423V4.145a1.831,1.831,0,0,1-.491,1.2L10.02,4.336C9.873,2.565,7.263,1.284,5.575,1.284a3.306,3.306,0,0,0-1.833.55C-.609,4.718-1.334,11.849-2.09,17.494a1.518,1.518,0,0,0,1.5,1.718H2.77a.423.423,0,0,0,0-.847H-.587a.662.662,0,0,1-.5-.229.724.724,0,0,1-.146-.635C-.379,11.1.431,5.044,4.21,2.54Zm0,0" transform="translate(0)"/></g><g class="b" transform="translate(163 1051)"><circle class="c" cx="24" cy="24" r="24"/><circle class="d" cx="24" cy="24" r="23.5"/></g></g></svg>