<svg xmlns="http://www.w3.org/2000/svg" width="26.605" height="26.605" viewBox="0 0 26.605 26.605"><defs><style>.a{fill:#2f61f5;}.b{fill:#f5532f;}</style></defs><g transform="translate(0 0.001)"><g transform="translate(0 -0.001)"><path class="a" d="M143.041,9.907A5.064,5.064,0,0,0,149,2.69a5.064,5.064,0,0,0-6.848-2.1h0a5.064,5.064,0,0,0,.893,9.314Zm-.527-8.625h0a4.284,4.284,0,1,1,4.019,7.567,4.284,4.284,0,1,1-4.019-7.567Z" transform="translate(-132.214 0.001)"/><path class="b" d="M180.924,44.851h.795v.793a.9.9,0,0,0,.895.9h.738a.9.9,0,0,0,.9-.9v-.793h.793a.9.9,0,0,0,.9-.9v-.738a.9.9,0,0,0-.9-.9h-.793v-.793a.9.9,0,0,0-.9-.9h-.738a.9.9,0,0,0-.895.9v.793h-.795a.9.9,0,0,0-.9.9v.738A.9.9,0,0,0,180.924,44.851Zm-.117-1.634a.119.119,0,0,1,.117-.117h1.184a.39.39,0,0,0,.39-.39V41.527a.118.118,0,0,1,.115-.117h.738a.119.119,0,0,1,.117.117V42.71a.39.39,0,0,0,.39.39h1.183a.119.119,0,0,1,.117.117v.738a.119.119,0,0,1-.117.117h-1.183a.39.39,0,0,0-.39.39v1.183a.119.119,0,0,1-.117.117h-.738a.118.118,0,0,1-.115-.117V44.461a.39.39,0,0,0-.39-.39h-1.184a.119.119,0,0,1-.117-.117Z" transform="translate(-170.673 -38.52)"/><path class="a" d="M25.09,158.763v-3.21h1.045a.39.39,0,0,0,.39-.39v-7.809a1.5,1.5,0,0,0-2.942-.39H20.07a.39.39,0,0,0,0,.779h3.461v7.03H12.993v-5.446a1.586,1.586,0,0,1,1.584-1.584H18.27a.39.39,0,0,0,0-.779H14.578a2.366,2.366,0,0,0-2.364,2.363v.105H7.557a1.592,1.592,0,0,0-.975-1.428l-.033-.012-3.556-1.111v-2.007a1.5,1.5,0,1,0-2.993,0v3.647a.39.39,0,0,0,.779,0v-3.647a.717.717,0,1,1,1.434,0v8.074a.39.39,0,0,0,.39.39h9.61v1.434H.78v-4.452a.39.39,0,0,0-.779,0v4.841a.39.39,0,0,0,.39.39H1.834v3.21a1.905,1.905,0,1,0,.78,0v-1.236h21.7v1.236a1.905,1.905,0,1,0,.78,0Zm-.063-12.125a.718.718,0,0,1,.718.716v7.419H24.31v-7.419A.717.717,0,0,1,25.027,146.639ZM6.3,148.732a.807.807,0,0,1,.48.7H2.993V147.7Zm-3.305,3.829v-2.348h9.221v2.348Zm.356,8.068A1.126,1.126,0,1,1,2.224,159.5,1.127,1.127,0,0,1,3.35,160.629Zm-.736-3.88v-1.194h21.7v1.194ZM24.7,161.754a1.126,1.126,0,1,1,1.126-1.126A1.127,1.127,0,0,1,24.7,161.754Z" transform="translate(0 -135.928)"/></g></g></svg>