<svg xmlns="http://www.w3.org/2000/svg" width="19" height="19" viewBox="0 0 19 19"><defs><style>.a{fill:#f5532f;}</style></defs><path class="a" d="M8.321,12.723a15.99,15.99,0,0,0,6.956,6.956L17.6,17.357a1.05,1.05,0,0,1,1.077-.253,12.041,12.041,0,0,0,3.768.6A1.059,1.059,0,0,1,23.5,18.761v3.684A1.059,1.059,0,0,1,22.444,23.5,17.943,17.943,0,0,1,4.5,5.556,1.059,1.059,0,0,1,5.556,4.5H9.25a1.059,1.059,0,0,1,1.056,1.056,11.991,11.991,0,0,0,.6,3.768,1.059,1.059,0,0,1-.264,1.077L8.321,12.723Z" transform="translate(-4.5 -4.5)"/></svg>