<svg xmlns="http://www.w3.org/2000/svg" width="29.146" height="37.4" viewBox="0 0 29.146 37.4"><defs><style>.a{fill:#2f61f5;}.b{fill:#f4532f;}</style></defs><g transform="translate(-14.125)"><path class="a" d="M41.591,5.334h-3.8a3.144,3.144,0,0,0-3.112-2.739H33.388A2.853,2.853,0,0,0,30.552,0H26.844a2.853,2.853,0,0,0-2.838,2.595H21.923a3.143,3.143,0,0,0-3.112,2.739H15.805a1.682,1.682,0,0,0-1.68,1.68V35.72a1.682,1.682,0,0,0,1.68,1.68H41.591a1.682,1.682,0,0,0,1.68-1.68V7.014A1.682,1.682,0,0,0,41.591,5.334ZM19.293,9.1H39.911V34.04H17.485V9.1ZM34.455,8.073H22.142V5.955H34.454ZM19.8,5.736a2.121,2.121,0,0,1,2.118-2.118h2.584a.511.511,0,0,0,.511-.511V2.849a1.828,1.828,0,0,1,1.826-1.826h3.707a1.828,1.828,0,0,1,1.826,1.826v.257a.511.511,0,0,0,.511.511h1.785a2.121,2.121,0,0,1,2.118,2.118V8.073H35.477V5.736a.8.8,0,0,0-.8-.8H21.923a.8.8,0,0,0-.8.8V8.073H19.8ZM42.248,35.72a.658.658,0,0,1-.657.657H15.805a.658.658,0,0,1-.657-.657V7.014a.658.658,0,0,1,.657-.657h2.977V8.073H16.974a.511.511,0,0,0-.511.511V34.551a.511.511,0,0,0,.511.511H40.422a.511.511,0,0,0,.511-.511V8.585a.511.511,0,0,0-.511-.511H37.814V6.357H41.59a.658.658,0,0,1,.657.657Z"/><path class="a" d="M58.573,9.9H61.02a.511.511,0,1,0,0-1.023H58.573a.511.511,0,0,0,0,1.023Z" transform="translate(-31.099 -6.286)"/><path class="a" d="M46.128,51.5a7.378,7.378,0,1,0-7.378-7.377A7.378,7.378,0,0,0,46.128,51.5Zm0-13.733a6.355,6.355,0,1,1-6.355,6.355,6.355,6.355,0,0,1,6.355-6.355Z" transform="translate(-17.43 -26.01)"/><path class="b" d="M48.646,52.192h2.7v2.7a.511.511,0,0,0,.511.511h1.823a.511.511,0,0,0,.511-.511v-2.7h2.7a.511.511,0,0,0,.511-.511V49.857a.511.511,0,0,0-.511-.511h-2.7v-2.7a.511.511,0,0,0-.511-.511H51.859a.511.511,0,0,0-.511.511v2.7h-2.7a.511.511,0,0,0-.511.511V51.68a.511.511,0,0,0,.511.511Zm.511-1.824h2.7a.511.511,0,0,0,.511-.511v-2.7h.8v2.7a.511.511,0,0,0,.511.511h2.7v.8h-2.7a.511.511,0,0,0-.511.511v2.7h-.8v-2.7a.511.511,0,0,0-.511-.511h-2.7Z" transform="translate(-24.073 -32.654)"/><path class="a" d="M33.308,93.4H50.52a.511.511,0,1,0,0-1.023H33.308a.511.511,0,1,0,0,1.023Z" transform="translate(-13.216 -65.383)"/><path class="a" d="M33.308,101.459H50.52a.511.511,0,1,0,0-1.023H33.308a.511.511,0,1,0,0,1.023Z" transform="translate(-13.216 -71.09)"/><path class="a" d="M53.851,108.5H41.323a.511.511,0,0,0,0,1.023H53.851a.511.511,0,1,0,0-1.023Z" transform="translate(-18.889 -76.798)"/></g></svg>