<svg xmlns="http://www.w3.org/2000/svg" width="26.041" height="23.548" viewBox="0 0 26.041 23.548"><defs><style>.a{fill:#2f61f5;}.b{fill:#f5532f;}</style></defs><g transform="translate(-0.013 0)"><g transform="translate(0.013 0)"><path class="a" d="M18.33,1.592a5.349,5.349,0,0,0-7.572-.044l-.044.044L6.263,6.043a.545.545,0,0,0-.209.209L1.576,10.725a5.366,5.366,0,0,0,7.6,7.572l.005-.005L13.659,13.8a.55.55,0,0,0,.159-.159l4.467-4.478A5.354,5.354,0,0,0,18.33,1.592ZM8.406,17.517A4.266,4.266,0,0,1,2.357,11.5l4.2-4.2,6.022,6.033Zm9.1-9.138-4.16,4.171L7.329,6.527l4.165-4.165a4.255,4.255,0,0,1,6.017,6.017Z" transform="translate(-0.013 0)"/></g><g transform="translate(9.588 3.581)"><path class="a" d="M191.98,70.894a.538.538,0,0,0-.775-.005l-1.9,1.868a.548.548,0,1,0,.764.786l.005-.005,1.9-1.868A.547.547,0,0,0,191.98,70.894Z" transform="translate(-189.138 -70.727)"/></g><g transform="translate(15.395 12.87)"><path class="b" d="M242.727,234.869l-.005-.005a5.288,5.288,0,0,0-7.484-.049l-.049.049a5.331,5.331,0,1,0,7.539.005Zm-8,3.764a4.229,4.229,0,0,1,6.8-3.357L235.6,241.21A4.253,4.253,0,0,1,234.727,238.633Zm7.22,2.989a4.232,4.232,0,0,1-5.566.363l5.929-5.929A4.22,4.22,0,0,1,241.947,241.622Z" transform="translate(-233.626 -233.287)"/></g></g></svg>