<svg xmlns="http://www.w3.org/2000/svg" width="14.975" height="25.051" viewBox="0 0 14.975 25.051"><defs><style>.a{fill:#f4532f;}.a,.b{stroke:#fff;stroke-width:0.5px;}.b{fill:#2f61f5;}</style></defs><g transform="translate(0.25 0.249)"><path class="a" d="M63.641,129.42v-9.483a.719.719,0,1,0-1.439,0v9.483a2.922,2.922,0,1,0,1.439,0Zm-.719,4.316a1.484,1.484,0,1,1,1.483-1.484A1.485,1.485,0,0,1,62.922,133.736Zm0,0" transform="translate(-57.123 -113.5)"/><path class="b" d="M9.369,14.182V3.571a3.57,3.57,0,1,0-7.139,0V14.182a5.8,5.8,0,1,0,7.139,0ZM5.8,23.114a4.362,4.362,0,0,1-2.446-7.972.72.72,0,0,0,.315-.6V3.571a2.131,2.131,0,1,1,4.262,0V14.547a.72.72,0,0,0,.315.6A4.362,4.362,0,0,1,5.8,23.114Zm0,0" transform="translate(0 0)"/><path class="a" d="M228.323,239.488h-2.229a.719.719,0,1,0,0,1.439h2.229a.719.719,0,0,0,0-1.439Zm0,0" transform="translate(-214.567 -228.003)"/><path class="a" d="M228.323,179.477h-2.229a.719.719,0,1,0,0,1.439h2.229a.719.719,0,1,0,0-1.439Zm0,0" transform="translate(-214.567 -170.87)"/><path class="a" d="M228.323,119.465h-2.229a.719.719,0,1,0,0,1.439h2.229a.719.719,0,0,0,0-1.439Zm0,0" transform="translate(-214.567 -113.736)"/><path class="a" d="M226.094,60.892h2.229a.719.719,0,0,0,0-1.439h-2.229a.719.719,0,1,0,0,1.439Zm0,0" transform="translate(-214.568 -56.601)"/></g></svg>