<svg xmlns="http://www.w3.org/2000/svg" xmlns:xlink="http://www.w3.org/1999/xlink" width="532" height="431" viewBox="0 0 532 431">
  <defs>
    <clipPath id="clip-logo">
      <rect width="532" height="431"/>
    </clipPath>
  </defs>
  <g id="logo" clip-path="url(#clip-logo)">
    <rect width="532" height="431" fill="#fff"/>
    <g id="Group_159528" data-name="Group 159528">
      <g id="shield" transform="translate(152 76)">
        <g id="Group_159526" data-name="Group 159526" transform="translate(0)">
          <path id="Path_8330" data-name="Path 8330" d="M286.489,35.624,168.979.37a8.771,8.771,0,0,0-5.044,0L46.423,35.624a8.776,8.776,0,0,0-6.255,8.406V173.293c0,16.813,6.806,34.024,20.229,51.154C70.65,237.53,84.833,250.668,102.554,263.5a378.189,378.189,0,0,0,60.316,35.32,8.772,8.772,0,0,0,7.172,0,378.2,378.2,0,0,0,60.315-35.32c17.72-12.828,31.9-25.965,42.156-39.049,13.423-17.13,20.229-34.341,20.229-51.154V44.03A8.775,8.775,0,0,0,286.489,35.624Zm-11.3,137.669c0,29.754-29.855,57.654-54.9,75.82a371.629,371.629,0,0,1-53.834,31.993,371.624,371.624,0,0,1-53.835-31.993c-25.045-18.166-54.9-46.066-54.9-75.82V50.56L166.456,17.94,275.19,50.56Z" transform="translate(-40.168 0)" fill="#f4532f" stroke="#fff" stroke-width="7"/>
        </g>
      </g>
      <path id="Subtraction_5" data-name="Subtraction 5" d="M1.684,252.538a7.129,7.129,0,0,1-1.684-.2V.2a7.12,7.12,0,0,1,3.768.11l97.14,29.718a7.2,7.2,0,0,1,3.736,2.67,7.444,7.444,0,0,1,1.434,4.417V146.08c0,14.174-5.626,28.682-16.722,43.122-8.474,11.027-20.2,22.1-34.848,32.917A311.328,311.328,0,0,1,4.648,251.892,7.082,7.082,0,0,1,1.684,252.538Z" transform="translate(278.222 98.5)" fill="#2f61f5" stroke="#2f61f5" stroke-width="1"/>
      <g id="Union_1" data-name="Union 1" transform="translate(244 192)" fill="#f4532f">
        <path d="M 43.59111022949219 66 L 24.40888977050781 66 L 24.40888977050781 45.59111022949219 L 24.40888977050781 43.59111022949219 L 22.40888977050781 43.59111022949219 L 2 43.59111022949219 L 2 24.40888977050781 L 22.40888977050781 24.40888977050781 L 24.40888977050781 24.40888977050781 L 24.40888977050781 22.40888977050781 L 24.40888977050781 2 L 43.59111022949219 2 L 43.59111022949219 22.40888977050781 L 43.59111022949219 24.40888977050781 L 45.59111022949219 24.40888977050781 L 66 24.40888977050781 L 66 43.59111022949219 L 45.59111022949219 43.59111022949219 L 43.59111022949219 43.59111022949219 L 43.59111022949219 45.59111022949219 L 43.59111022949219 66 Z" stroke="none"/>
        <path d="M 41.59111404418945 64 L 41.59111404418945 45.59111404418945 L 41.59111404418945 41.59111404418945 L 45.59111404418945 41.59111404418945 L 64 41.59111404418945 L 64 26.40888786315918 L 45.59111404418945 26.40888786315918 L 41.59111404418945 26.40888786315918 L 41.59111404418945 22.40888786315918 L 41.59111404418945 4 L 26.40888786315918 4 L 26.40888786315918 22.40888786315918 L 26.40888786315918 26.40888786315918 L 22.40888786315918 26.40888786315918 L 4 26.40888786315918 L 4 41.59111404418945 L 22.40888786315918 41.59111404418945 L 26.40888786315918 41.59111404418945 L 26.40888786315918 45.59111404418945 L 26.40888786315918 64 L 41.59111404418945 64 M 45.59111404418945 68 L 22.40888786315918 68 L 22.40888786315918 45.59111404418945 L 0 45.59111404418945 L 0 22.40888786315918 L 22.40888786315918 22.40888786315918 L 22.40888786315918 0 L 45.59111404418945 0 L 45.59111404418945 22.40888786315918 L 68 22.40888786315918 L 68 45.59111404418945 L 45.59111404418945 45.59111404418945 L 45.59111404418945 68 Z" stroke="none" fill="#fff"/>
      </g>
    </g>
  </g>
</svg>
